<svg width="106" height="77" viewBox="0 0 106 77" fill="none" xmlns="http://www.w3.org/2000/svg">
<path d="M53.3785 36.2164H0V76.0995H53.3785V36.2164Z" fill="#455A64"/>
<path d="M18.7588 54.1828V59.7182H34.1112V53.686L18.7588 54.1828Z" fill="#263238"/>
<path d="M34.6079 64.3783H18.7588V66.6374H34.6079V64.3783Z" fill="#263238"/>
<g opacity="0.4">
<path opacity="0.4" d="M18.7588 54.1828V59.7182H34.1112V53.686L18.7588 54.1828Z" fill="black"/>
<path opacity="0.4" d="M34.6079 64.3783H18.7588V66.6374H34.6079V64.3783Z" fill="black"/>
</g>
<path d="M53.3785 36.2165L106 35.8262L105.042 76.0877H53.3785V36.2165Z" fill="#263238"/>
<path opacity="0.4" d="M53.3785 36.2165L106 35.8262L105.042 76.0877H53.3785V36.2165Z" fill="black"/>
<path d="M104.131 0H51.5215V35.8143H104.131V0Z" fill="#FAFAFA"/>
<path d="M38.7594 5.71274L41.4088 36.1455L104.096 35.8261L100.382 6.05575C100.252 5.12902 99.7623 4.2909 99.018 3.72381C98.2737 3.15673 97.3356 2.90659 96.4077 3.02786L71.1082 5.2278L66.803 2.03434C66.4096 1.75952 65.933 1.62991 65.4546 1.66768L40.4745 3.86762C40.0049 3.8921 39.5633 4.0984 39.2432 4.4428C38.9231 4.78719 38.7496 5.24265 38.7594 5.71274Z" fill="#263238"/>
<path d="M38.7594 5.71274L41.4088 36.1455L104.096 35.8261L100.382 6.05575C100.252 5.12902 99.7623 4.2909 99.018 3.72381C98.2737 3.15673 97.3356 2.90659 96.4077 3.02786L71.1082 5.2278L66.803 2.03434C66.4096 1.75952 65.933 1.62991 65.4546 1.66768L40.4745 3.86762C40.0049 3.8921 39.5633 4.0984 39.2432 4.4428C38.9231 4.78719 38.7496 5.24265 38.7594 5.71274Z" fill="#6EB3F3"/>
<path d="M20.7695 28.221L19.4448 20.2964L77.4361 16.4642L82.5339 36.1337L21.9168 35.8262L20.7695 28.221Z" fill="#FAFAFA"/>
<path d="M13.3653 24.365L14.3943 36.1927H76.4188L74.9522 24.6844C74.8228 23.76 74.3343 22.9238 73.5926 22.357C72.851 21.7902 71.9159 21.5386 70.9899 21.6565L45.6904 23.8564L41.3733 20.663C40.9853 20.3862 40.5117 20.2563 40.0368 20.2963L15.0567 22.5081C14.587 22.5326 14.1461 22.7413 13.8294 23.089C13.5127 23.4366 13.346 23.8952 13.3653 24.365Z" fill="#6EB3F3"/>
<path opacity="0.7" d="M13.3653 24.365L14.3943 36.1927H76.4188L74.9522 24.6844C74.8228 23.76 74.3343 22.9238 73.5926 22.357C72.851 21.7902 71.9159 21.5386 70.9899 21.6565L45.6904 23.8564L41.3733 20.663C40.9853 20.3862 40.5117 20.2563 40.0368 20.2963L15.0567 22.5081C14.587 22.5326 14.1461 22.7413 13.8294 23.089C13.5127 23.4366 13.346 23.8952 13.3653 24.365Z" fill="#FAFAFA"/>
<path d="M78.8199 21.7749H87.0993C87.4125 21.7756 87.7216 21.847 88.0034 21.9837C88.2851 22.1204 88.5324 22.3189 88.7268 22.5645C88.9212 22.81 89.0577 23.0963 89.1261 23.4019C89.1945 23.7075 89.1931 24.0247 89.1219 24.3297L86.4488 35.8144H82.5812L78.8199 21.7749Z" fill="#263238"/>
</svg>
