<svg width="103" height="72" viewBox="0 0 103 72" fill="none" xmlns="http://www.w3.org/2000/svg">
<path d="M12.5773 42.0072H55.0404L78.4268 3.3363L99.0423 42.6899V71.8512H12.5773V42.0072Z" fill="#6EB3F3"/>
<path d="M51.6534 71.9416C51.616 71.9416 51.584 65.7948 51.584 58.2136C51.584 50.6324 51.616 44.483 51.6534 44.483C51.6907 44.483 51.7227 50.6271 51.7227 58.2136C51.7227 65.8001 51.6934 71.9416 51.6534 71.9416Z" fill="#263238"/>
<path d="M51.6534 47.1845C51.6534 47.2217 42.9431 47.2536 32.1847 47.2536C21.4262 47.2536 12.716 47.2217 12.716 47.1845C12.716 47.1474 21.4262 47.1155 32.1847 47.1155C42.9431 47.1155 51.6534 47.1447 51.6534 47.1845Z" fill="#263238"/>
<path d="M51.6534 50.5262C51.6534 50.5634 42.9431 50.5953 32.1847 50.5953C21.4262 50.5953 12.716 50.5634 12.716 50.5262C12.716 50.489 21.4262 50.4572 32.1847 50.4572C42.9431 50.4572 51.6534 50.4864 51.6534 50.5262Z" fill="#263238"/>
<path d="M51.6534 53.8679C51.6534 53.9051 42.9431 53.937 32.1847 53.937C21.4262 53.937 12.716 53.9051 12.716 53.8679C12.716 53.8307 21.4262 53.7988 32.1847 53.7988C42.9431 53.7988 51.6534 53.8281 51.6534 53.8679Z" fill="#263238"/>
<path d="M51.6534 57.2121C51.6534 57.2493 42.9431 57.2812 32.1847 57.2812C21.4262 57.2812 12.716 57.2493 12.716 57.2121C12.716 57.1749 21.4262 57.1431 32.1847 57.1431C42.9431 57.1431 51.6534 57.1696 51.6534 57.2121Z" fill="#263238"/>
<path d="M51.6534 60.5512C51.6534 60.5884 42.9431 60.6203 32.1847 60.6203C21.4262 60.6203 12.716 60.5884 12.716 60.5512C12.716 60.5141 21.4262 60.4822 32.1847 60.4822C42.9431 60.4822 51.6534 60.5114 51.6534 60.5512Z" fill="#263238"/>
<path d="M51.6534 63.8929C51.6534 63.9301 42.9431 63.962 32.1847 63.962C21.4262 63.962 12.716 63.9301 12.716 63.8929C12.716 63.8557 21.4262 63.8239 32.1847 63.8239C42.9431 63.8239 51.6534 63.8531 51.6534 63.8929Z" fill="#263238"/>
<path d="M51.6534 67.2346C51.6534 67.2718 42.9431 67.3036 32.1847 67.3036C21.4262 67.3036 12.716 67.2718 12.716 67.2346C12.716 67.1974 21.4262 67.1655 32.1847 67.1655C42.9431 67.1655 51.6534 67.1947 51.6534 67.2346Z" fill="#263238"/>
<path d="M99.0422 71.8512C99.0422 71.8512 99.0422 71.8007 99.0422 71.7051C99.0422 71.6095 99.0422 71.4634 99.0422 71.2801C99.0422 70.9002 99.0422 70.3477 99.0289 69.6332C99.0289 68.1961 99.0289 66.1109 99.0102 63.5103C99.0102 58.2959 98.9942 51.0069 98.9862 42.6899V42.7218C97.8928 40.6393 96.762 38.4717 95.6045 36.2722L83.6566 13.4277L80.0456 6.47611L79.0722 4.58745L78.8215 4.09603C78.7655 3.98446 78.7415 3.92603 78.7415 3.92603L78.8348 4.08806C78.8961 4.20228 78.9815 4.3537 79.1015 4.57417L80.0989 6.4522C80.963 8.08851 82.2085 10.4367 83.7446 13.3587L95.7299 36.2032L99.1089 42.6554V42.6713C99.1089 50.9883 99.0902 58.2773 99.0849 63.4917C99.0849 66.0923 99.0689 68.1775 99.0636 69.6146C99.0636 70.3291 99.0636 70.8816 99.0636 71.2615C99.0636 71.4448 99.0636 71.5856 99.0636 71.6865C99.0636 71.7874 99.0422 71.8512 99.0422 71.8512Z" fill="#263238"/>
<path d="M55.0297 43.9783C55.0697 43.9783 55.0991 50.1596 55.0991 57.7912C55.0991 65.4229 55.0697 71.6042 55.0297 71.6042C54.9897 71.6042 54.9604 65.4255 54.9604 57.7912C54.9604 50.1569 54.9924 43.9783 55.0297 43.9783Z" fill="#263238"/>
<path d="M58.7047 38.756C58.7421 38.756 58.7741 46.1061 58.7741 55.1721C58.7741 64.2382 58.7421 71.5883 58.7047 71.5883C58.6674 71.5883 58.6354 64.2409 58.6354 55.1721C58.6354 46.1034 58.6727 38.756 58.7047 38.756Z" fill="#263238"/>
<path d="M62.5238 31.4457C62.5611 31.4457 62.5932 40.4321 62.5932 51.517C62.5932 62.6018 62.5611 71.5909 62.5238 71.5909C62.4865 71.5909 62.4545 62.6045 62.4545 51.517C62.4545 40.4294 62.4838 31.4457 62.5238 31.4457Z" fill="#263238"/>
<path d="M66.3402 25.4716C66.3802 25.4716 66.4096 35.7967 66.4096 48.5286C66.4096 61.2604 66.3802 71.5882 66.3402 71.5882C66.3002 71.5882 66.2709 61.2657 66.2709 48.5286C66.2709 35.7914 66.3029 25.4716 66.3402 25.4716Z" fill="#263238"/>
<path d="M70.1592 71.5883C70.1192 71.5883 70.0899 59.7782 70.0899 45.2109C70.0899 30.6435 70.1192 18.8308 70.1592 18.8308C70.1992 18.8308 70.2286 30.6409 70.2286 45.2109C70.2286 59.7809 70.1966 71.5883 70.1592 71.5883Z" fill="#263238"/>
<path d="M73.9757 11.2948C74.0157 11.2948 74.045 24.7916 74.045 41.4389C74.045 58.0862 74.0157 71.5883 73.9757 71.5883C73.9357 71.5883 73.9063 58.0941 73.9063 41.4389C73.9063 24.7837 73.9383 11.2948 73.9757 11.2948Z" fill="#263238"/>
<path d="M77.7947 3.93408C77.8321 3.93408 77.8641 19.0752 77.8641 37.7599C77.8641 56.4445 77.8321 71.5883 77.7947 71.5883C77.7574 71.5883 77.7254 56.4472 77.7254 37.7599C77.7254 19.0725 77.7547 3.93408 77.7947 3.93408Z" fill="#263238"/>
<path d="M81.6085 9.41406C81.6485 9.41406 81.6778 23.3333 81.6778 40.4932C81.6778 57.6531 81.6485 71.5723 81.6085 71.5723C81.5685 71.5723 81.5391 57.6558 81.5391 40.4932C81.5391 23.3306 81.5738 9.41406 81.6085 9.41406Z" fill="#263238"/>
<path d="M85.4302 16.5171C85.4675 16.5171 85.4995 28.8478 85.4995 44.0527C85.4995 59.2575 85.4675 71.5883 85.4302 71.5883C85.3928 71.5883 85.3608 59.2629 85.3608 44.0527C85.3608 28.8425 85.3902 16.5171 85.4302 16.5171Z" fill="#263238"/>
<path d="M89.2466 23.7716C89.2866 23.7716 89.3159 34.4766 89.3159 47.6786C89.3159 60.8806 89.2866 71.5857 89.2466 71.5857C89.2066 71.5857 89.1772 60.8833 89.1772 47.6786C89.1772 34.474 89.2092 23.7716 89.2466 23.7716Z" fill="#263238"/>
<path d="M93.0763 31.4457C93.1136 31.4457 93.1456 40.4321 93.1456 51.517C93.1456 62.6018 93.1136 71.5909 93.0763 71.5909C93.039 71.5909 93.007 62.6045 93.007 51.517C93.007 40.4294 93.0283 31.4457 93.0763 31.4457Z" fill="#263238"/>
<path d="M96.8821 38.5701C96.9221 38.5701 96.9541 45.96 96.9541 55.0792C96.9541 64.1984 96.9221 71.5883 96.8821 71.5883C96.8421 71.5883 96.8101 64.1984 96.8101 55.0872C96.8101 45.9759 96.8447 38.5701 96.8821 38.5701Z" fill="#263238"/>
<path opacity="0.4" d="M51.5894 44.2041H12.5773V45.1312L13.9721 45.2666L13.5721 71.8433H16.2044V45.4845L46.3622 48.4038L45.6714 71.8433H48.301V48.5897L51.5894 48.9085V44.2041Z" fill="black"/>
<g opacity="0.4">
<path opacity="0.4" d="M58.7048 38.7559C58.4781 42.8334 58.1714 48.239 58.7048 52.3032C59.1315 48.603 59.6595 43.9969 60.0862 40.2966C60.1937 39.0097 60.4241 37.736 60.7743 36.4927C61.1637 35.2628 61.4997 34.2348 62.4972 33.414C62.2807 36.6807 62.2896 39.9584 62.5238 43.2239C63.1106 37.7492 63.2626 31.9849 65.1641 27.2274L58.7048 38.7559Z" fill="black"/>
</g>
<path d="M66.3936 66.5599L62.0785 64.1107L54.4963 66.86L48.381 71.8646H70.7647L66.3936 66.5599Z" fill="#F5F5F5"/>
<path d="M48.381 71.8646L56.1418 67.37L66.3936 66.5599L61.9051 63.9115L54.4963 66.86L48.381 71.8646Z" fill="#E0E0E0"/>
<path d="M59.6088 71.8752L63.4119 69.3118L66.9509 69.0621L63.9933 69.7156L62.5131 71.8646L59.6088 71.8752Z" fill="#E0E0E0"/>
<path d="M67.0736 69.0089C66.9813 69.0282 66.8877 69.0406 66.7936 69.0461L66.0201 69.1152L63.4172 69.3144H63.4385L63.0145 69.6066C62.0597 70.2574 61.193 70.8418 60.5636 71.2615L59.8142 71.7529L59.6088 71.8831C59.5608 71.9123 59.5368 71.9256 59.5341 71.9229C59.5315 71.9203 59.5555 71.9017 59.5981 71.8698L59.7955 71.7237L60.5262 71.1924C61.1476 70.7594 62.0064 70.1671 62.9612 69.5163L63.3879 69.2241L65.9935 69.0541L66.7695 69.0142C66.8705 69.0037 66.9723 69.002 67.0736 69.0089Z" fill="#263238"/>
<path d="M66.3802 66.5439C66.3802 66.5439 66.4096 66.5731 66.4602 66.6342L66.6923 66.8998L67.5777 67.9624L70.8527 71.8725L70.8794 71.9044H52.5548H48.381H48.301L48.3624 71.8539L54.4643 66.8759L61.8731 63.8955L65.1934 65.8453L66.0735 66.3632L66.2976 66.4961C66.3234 66.5105 66.3483 66.5264 66.3722 66.5439L66.2949 66.4987L66.0655 66.3686L65.1828 65.8585L61.8731 63.9274L54.4857 66.9051L48.389 71.8884L48.3704 71.8379H52.5441L70.826 71.8592L70.8127 71.8911L67.551 67.973C67.1697 67.5134 66.8736 67.1575 66.6736 66.9105L66.4469 66.6448L66.3802 66.5439Z" fill="#263238"/>
<path d="M67.0069 67.269C66.5846 67.6363 66.0719 67.8852 65.5213 67.9902C64.9707 68.0953 64.4019 68.0526 63.8733 67.8667C63.6336 67.7904 63.4171 67.6552 63.2439 67.4736C63.1589 67.3818 63.0991 67.2698 63.0702 67.1484C63.0412 67.027 63.0441 66.9002 63.0785 66.7802C62.7547 66.8609 62.4157 66.8596 62.0925 66.7766C61.7692 66.6936 61.4719 66.5314 61.2277 66.3048C60.9819 66.0673 60.7971 65.7743 60.6889 65.4506C60.5808 65.127 60.5524 64.7822 60.6063 64.4453L61.8811 63.9141L66.3935 66.5704L67.0069 67.269Z" fill="#455A64"/>
<path d="M12.5773 71.8512H11.2092L11.5479 67.2345L10.9478 61.1594L12.1133 61.2577L12.5773 71.8512Z" fill="#455A64"/>
<path d="M15.0362 71.8512H16.4043L16.0656 67.2345L16.6657 61.1594L15.5002 61.2577L15.0362 71.8512Z" fill="#455A64"/>
<path d="M20.6635 71.8512H19.6474L19.7194 65.0722L19.2953 61.4038H20.5861L20.9729 67.9729L20.6635 71.8512Z" fill="#455A64"/>
<path d="M25.056 71.8512H23.6878L24.0265 67.2345L23.4265 61.1594L24.5919 61.2577L25.056 71.8512Z" fill="#455A64"/>
<path d="M27.5148 71.8512H28.883L28.5443 67.2345L29.1443 61.1594L27.9789 61.2577L27.5148 71.8512Z" fill="#455A64"/>
<path d="M33.1421 71.8512H32.126L32.198 65.0722L31.7739 61.4038H33.0647L33.4514 67.9729L33.1421 71.8512Z" fill="#455A64"/>
<path d="M37.5345 71.8512H36.1664L36.5051 67.2345L35.905 61.1594L37.0705 61.2577L37.5345 71.8512Z" fill="#455A64"/>
<path d="M39.9935 71.8512H41.3616L41.0229 67.2345L41.623 61.1594L40.4602 61.2577L39.9935 71.8512Z" fill="#455A64"/>
<path d="M48.301 54.6302L47.8343 54.2026L46.9408 54.7232V52.5052V44.2041H43.7698L44.4392 49.376L43.7698 71.8512H46.9408L46.4234 59.6746L46.9408 56.3568L48.301 54.6302Z" fill="#455A64"/>
<path d="M47.0449 62.3283L6.40069 61.4862C6.22467 60.8939 6.23534 59.9695 6.5367 59.4355L26.3387 60.1554L47.0449 60.1953C47.1971 60.5304 47.2759 60.894 47.2759 61.2618C47.2759 61.6296 47.1971 61.9932 47.0449 62.3283Z" fill="#455A64"/>
<path d="M47.0449 62.3283C47.0449 62.3283 47.0449 62.2832 47.0876 62.2008C47.1299 62.0735 47.1655 61.944 47.1942 61.813C47.3245 61.273 47.2652 60.705 47.0262 60.2032L47.0449 60.2165H31.9393H26.3174L20.1514 59.996L6.53402 59.5046L6.59536 59.4701C6.44495 59.78 6.36569 60.1194 6.36334 60.4636C6.34626 60.7975 6.38318 61.1321 6.47268 61.4544L6.40867 61.4066L35.2117 62.0281L43.8766 62.23L46.2315 62.2911L46.8449 62.3071H47.0556H46.8529H46.2448L43.9059 62.2699L35.249 62.1105L6.40067 61.5553H6.34734V61.5075C6.25375 61.1705 6.21503 60.8207 6.23266 60.4715C6.23454 60.103 6.32025 59.7398 6.48335 59.409V59.3957L6.50202 59.3585H6.54469L20.1541 59.8685L26.3201 60.097L31.9393 60.1129L47.0449 60.1767C47.2846 60.6871 47.3383 61.2647 47.1969 61.8103C47.1651 61.942 47.125 62.0715 47.0769 62.1981C47.0636 62.2911 47.0449 62.3283 47.0449 62.3283Z" fill="#263238"/>
<path d="M11.0625 60.4927C10.7098 60.5559 10.3535 60.5976 9.99569 60.6176C9.03707 60.6789 8.07453 60.6254 7.12872 60.4582L7.03271 60.4422L7.12606 60.413C9.08546 59.8253 11.1839 59.8906 13.1027 60.599L13.188 60.6308L13.1 60.6521C11.5813 60.9623 10.0282 61.0712 8.48086 60.9762C7.89947 60.9523 7.43809 60.9257 7.12072 60.9044L6.75535 60.8779C6.71336 60.8757 6.67152 60.8713 6.63 60.8646H6.75535L7.12072 60.8832C7.43809 60.8965 7.90214 60.9204 8.48086 60.939C10.0182 61.0205 11.5597 60.9063 13.068 60.599V60.6494C11.1597 59.9502 9.07573 59.8831 7.12606 60.4582V60.3997C8.06692 60.5708 9.02466 60.6314 9.97968 60.5804C10.3264 60.5618 10.5957 60.5352 10.7798 60.514L11.0625 60.4927Z" fill="#263238"/>
<path d="M20.9888 60.0465H20.9088L20.6848 60.0624C20.4901 60.0624 20.2074 60.0943 19.8607 60.1262C18.0488 60.2937 16.2674 60.702 14.5642 61.3401C14.2361 61.4597 13.9748 61.5633 13.7934 61.6403L13.5854 61.7253C13.562 61.7371 13.5367 61.7452 13.5107 61.7492L13.5801 61.7147L13.7854 61.619C13.9641 61.5393 14.2228 61.4278 14.5482 61.3029C15.3982 60.9753 16.2707 60.7089 17.1591 60.506C18.0479 60.3043 18.9497 60.1649 19.8581 60.089C20.2074 60.0624 20.4901 60.0465 20.6848 60.0438H20.9088L20.9888 60.0465Z" fill="#263238"/>
<path d="M40.0895 60.9443C39.7805 61.034 39.4648 61.0988 39.1454 61.1383C38.2498 61.2585 37.3395 61.2089 36.4624 60.9922L36.4064 60.9789L36.4624 60.9603C38.6853 60.2073 41.1028 60.2533 43.2951 61.0904L43.3538 61.1143L43.2951 61.1383C42.2011 61.5692 41.0471 61.8299 39.8734 61.9112C38.6047 61.9963 37.3305 61.9536 36.0704 61.7837C33.6115 61.4703 31.3152 60.8912 29.1897 60.6043C26.0311 60.1456 22.8113 60.3473 19.7354 61.1967C19.298 61.3162 18.9619 61.4198 18.7353 61.4942C18.5086 61.5686 18.3885 61.6031 18.3885 61.6031C18.3885 61.6031 18.8579 61.4251 19.722 61.1754C20.9566 60.8257 22.2192 60.5831 23.4957 60.4503C25.3901 60.2522 27.3019 60.2897 29.187 60.5618C31.3206 60.8487 33.6115 61.4225 36.0677 61.7386C37.3245 61.9063 38.595 61.9481 39.8601 61.8634C41.0273 61.7848 42.1752 61.5267 43.2631 61.0984V61.1462C41.0811 60.3125 38.6758 60.2608 36.4598 61.0001V60.9683C37.5679 61.2416 38.7248 61.2543 39.8388 61.0054L40.0895 60.9443Z" fill="#263238"/>
<path d="M45.8714 50.0401C45.8714 50.0401 45.8954 50.0746 45.9327 50.1437C45.9837 50.2498 46.0196 50.3624 46.0394 50.4784C46.0693 50.6659 46.0602 50.8576 46.0128 51.0415C45.9518 51.2912 45.8171 51.517 45.6261 51.6897L45.6047 51.7083V51.6817C45.4001 50.6545 45.3168 49.607 45.3567 48.5605C45.3524 48.4001 45.3758 48.2401 45.426 48.0877C45.4544 48.0067 45.502 47.9338 45.5647 47.8752C45.6006 47.8433 45.6453 47.8232 45.693 47.8175C45.7407 47.8118 45.789 47.8208 45.8314 47.8433C46.0021 47.9389 46.0314 48.1328 46.0821 48.2869C46.1328 48.441 46.1781 48.6163 46.2181 48.7863C46.3765 49.4968 46.449 50.2236 46.4341 50.9512C46.3967 52.1312 46.243 53.3048 45.9754 54.4549C45.7461 55.5174 45.5114 56.4658 45.3514 57.2706C45.1913 58.0755 45.0847 58.7343 45.0447 59.1912C45.0207 59.4196 45.0047 59.5976 44.9967 59.7224C44.9887 59.8473 44.9807 59.9057 44.9807 59.9057C44.9807 59.9057 44.9807 59.6401 45.0233 59.1938C45.0865 58.5481 45.1836 57.9062 45.314 57.2706C45.4687 56.4737 45.6981 55.5121 45.9274 54.4496C46.1906 53.3025 46.3415 52.1326 46.3781 50.9565C46.3942 50.2334 46.3225 49.5109 46.1648 48.8049C46.1248 48.6349 46.0848 48.4702 46.0314 48.3081C45.9781 48.1461 45.9461 47.9681 45.8101 47.8964C45.7773 47.8798 45.7403 47.8732 45.7038 47.8775C45.6672 47.8817 45.6328 47.8966 45.6047 47.9203C45.5486 47.973 45.5064 48.0387 45.482 48.1116C45.4323 48.2587 45.4088 48.4133 45.4127 48.5685C45.3701 49.6107 45.4479 50.6545 45.6447 51.679H45.6181C45.8054 51.5103 45.9389 51.2905 46.0021 51.0468C46.0497 50.8666 46.0606 50.6788 46.0341 50.4943C46.009 50.3341 45.9538 50.18 45.8714 50.0401Z" fill="#263238"/>
<path d="M45.4847 71.2535C45.4768 71.2292 45.4705 71.2044 45.4661 71.1792C45.4536 71.1136 45.4376 71.0393 45.4181 70.956C45.3781 70.7648 45.3274 70.4859 45.2687 70.1405C45.1487 69.4472 45.002 68.4883 44.9113 67.4231C44.8207 66.3579 44.7673 65.3857 44.7567 64.6844C44.7567 64.3338 44.7567 64.0496 44.7567 63.853C44.7567 63.7707 44.7567 63.6963 44.7567 63.6272C44.7527 63.6017 44.7527 63.5757 44.7567 63.5502C44.7567 63.5502 44.7567 63.5767 44.7567 63.6272V63.853C44.7567 64.0788 44.77 64.355 44.778 64.6844C44.7993 65.383 44.8473 66.3526 44.946 67.4178C45.0447 68.483 45.178 69.4419 45.2874 70.1326C45.3407 70.4567 45.3861 70.7303 45.4207 70.9534L45.4581 71.1765C45.4707 71.2008 45.4796 71.2267 45.4847 71.2535Z" fill="#263238"/>
<path d="M27.1148 48.6561H18.4019V57.082H27.1148V48.6561Z" fill="#455A64"/>
<path d="M26.5974 49.1582H18.9219V56.58H26.5974V49.1582Z" fill="#263238"/>
<path d="M26.7921 52.6433H18.778V53.233H26.7921V52.6433Z" fill="#455A64"/>
<path d="M23.0157 48.8553H22.4396V56.7739H23.0157V48.8553Z" fill="#455A64"/>
<path d="M21.9089 54.2902C21.8051 54.3686 21.6964 54.4405 21.5836 54.5053C21.3809 54.6328 21.1035 54.8135 20.8021 55.018C20.5008 55.2225 20.2314 55.4191 20.0367 55.5493C19.9358 55.6311 19.8298 55.7065 19.7194 55.7751C19.7194 55.7751 19.7434 55.7458 19.794 55.7007C19.8447 55.6555 19.9194 55.5944 20.0127 55.52C20.2021 55.3686 20.4661 55.1694 20.7701 54.9622C21.0742 54.755 21.3569 54.5824 21.5702 54.4602L21.8182 54.322C21.8474 54.3087 21.8778 54.298 21.9089 54.2902Z" fill="white"/>
<path d="M21.5169 53.9847C21.5169 53.9847 21.2288 54.1468 20.8821 54.3566C20.5354 54.5665 20.2714 54.7604 20.2607 54.7471C20.3078 54.6918 20.3626 54.6434 20.4234 54.6037C20.5618 54.4974 20.706 54.399 20.8555 54.3088C21.0039 54.2185 21.157 54.1361 21.3142 54.0618C21.3771 54.0252 21.4455 53.9992 21.5169 53.9847Z" fill="white"/>
<path d="M23.7864 51.7507C23.7864 51.7507 23.8104 51.7215 23.8638 51.6764L24.0878 51.4878L24.8239 50.8635L25.544 50.2233L25.7626 50.0294C25.7883 50.004 25.817 49.9817 25.848 49.963C25.8292 49.993 25.8058 50.0199 25.7786 50.0427L25.5733 50.2526C25.3946 50.4252 25.1439 50.659 24.8612 50.906C24.5785 51.1531 24.3092 51.3682 24.1118 51.5196L23.8771 51.6923C23.8494 51.7154 23.8189 51.735 23.7864 51.7507Z" fill="white"/>
<path d="M24.0025 51.0681C24.1355 50.9294 24.281 50.8031 24.4372 50.6909C24.5824 50.5656 24.7386 50.4536 24.9039 50.3562C24.773 50.4961 24.6283 50.6225 24.4719 50.7334C24.326 50.859 24.1689 50.9711 24.0025 51.0681Z" fill="white"/>
<path d="M18.9593 49.1953C18.8303 49.16 18.7145 49.088 18.6259 48.9881C18.525 48.8999 18.4533 48.7832 18.4206 48.6534C18.4366 48.6534 18.5166 48.7995 18.666 48.9483C18.8153 49.0971 18.9673 49.1821 18.9593 49.1953Z" fill="#263238"/>
<path d="M27.1548 48.6401C27.0905 48.7532 27.0044 48.8525 26.9014 48.9323C26.8124 49.0261 26.7054 49.1011 26.5867 49.1528C26.6706 49.0548 26.7644 48.9658 26.8668 48.8872C26.9548 48.796 27.0512 48.7133 27.1548 48.6401Z" fill="#263238"/>
<path d="M27.1121 57.0236C27.014 56.9704 26.9242 56.9033 26.8455 56.8244C26.7542 56.7576 26.6741 56.6769 26.6081 56.5853C26.7074 56.6356 26.7975 56.702 26.8748 56.7819C27.0161 56.9014 27.1228 57.0103 27.1121 57.0236Z" fill="#263238"/>
<path d="M18.9353 56.6091C18.8601 56.7065 18.7702 56.7917 18.6686 56.8615C18.582 56.9446 18.4842 57.0152 18.3779 57.0713C18.5304 56.8905 18.7104 56.7345 18.9113 56.6091H18.9353Z" fill="#263238"/>
<path d="M42.4524 48.7332H33.7395V57.1591H42.4524V48.7332Z" fill="#455A64"/>
<path d="M41.935 49.2352H34.2595V56.657H41.935V49.2352Z" fill="#263238"/>
<path d="M42.1297 52.7203H34.1155V53.31H42.1297V52.7203Z" fill="#455A64"/>
<path d="M38.3533 48.9324H37.7772V56.8509H38.3533V48.9324Z" fill="#455A64"/>
<path d="M37.2465 54.3778C37.1421 54.4555 37.0335 54.5273 36.9211 54.593C36.7184 54.7205 36.4411 54.9011 36.1371 55.1056C35.833 55.3102 35.5663 55.5068 35.3743 55.6369C35.2736 55.7183 35.1676 55.7928 35.0569 55.86C35.0569 55.86 35.0809 55.8335 35.1316 55.7883C35.1823 55.7432 35.257 55.6821 35.3503 55.6077C35.537 55.4563 35.8037 55.2571 36.1077 55.0499C36.4117 54.8427 36.6918 54.6674 36.9078 54.5478L37.1558 54.4097C37.1848 54.3959 37.2152 54.3852 37.2465 54.3778Z" fill="white"/>
<path d="M36.8518 54.0618C36.8518 54.075 36.5665 54.2238 36.2198 54.4337C35.8731 54.6435 35.6091 54.8374 35.5984 54.8241C35.6454 54.7688 35.7002 54.7205 35.7611 54.6807C35.8985 54.5744 36.0418 54.4759 36.1904 54.3858C36.3665 54.2822 36.5291 54.1946 36.6518 54.1388C36.7141 54.103 36.7816 54.077 36.8518 54.0618Z" fill="white"/>
<path d="M39.1214 51.8277C39.1449 51.7997 39.1717 51.7748 39.2014 51.7534L39.4254 51.5648L40.1615 50.9405L40.8816 50.3004L41.1003 50.1064C41.1536 50.0586 41.1829 50.0347 41.1856 50.04C41.1649 50.0686 41.1417 50.0953 41.1163 50.1197L40.9083 50.3296C40.7322 50.5022 40.4815 50.736 40.1962 50.983C39.9108 51.2301 39.6441 51.4452 39.4494 51.594L39.2147 51.7693C39.1859 51.7922 39.1546 51.8118 39.1214 51.8277Z" fill="white"/>
<path d="M39.3347 51.1451C39.4662 51.0048 39.6118 50.8784 39.7694 50.7679C39.9141 50.642 40.0703 50.5299 40.2361 50.4332C40.1052 50.5731 39.9605 50.6995 39.8041 50.8104C39.6577 50.9354 39.5007 51.0474 39.3347 51.1451Z" fill="white"/>
<path d="M34.2969 49.2724C34.1677 49.2376 34.0517 49.1655 33.9635 49.0652C33.8625 48.9769 33.7909 48.8602 33.7582 48.7305C33.7742 48.7305 33.8542 48.8766 34.0035 49.0253C34.1529 49.1741 34.3049 49.2564 34.2969 49.2724Z" fill="#263238"/>
<path d="M42.4924 48.7119C42.4231 48.8254 42.3326 48.9246 42.2257 49.0041C42.136 49.0982 42.028 49.1732 41.9083 49.2246C41.9938 49.1282 42.0875 49.0393 42.1884 48.959C42.2818 48.8674 42.3836 48.7847 42.4924 48.7119Z" fill="#263238"/>
<path d="M42.4497 57.098C42.3502 57.0481 42.26 56.9816 42.183 56.9014C42.0915 56.8339 42.0113 56.7523 41.9457 56.6597C42.044 56.7126 42.1338 56.7797 42.2124 56.8589C42.3027 56.9267 42.3826 57.0072 42.4497 57.098Z" fill="#263238"/>
<path d="M34.2756 56.6809C34.2015 56.783 34.1114 56.8727 34.0089 56.9465C33.9222 57.0307 33.8233 57.1015 33.7155 57.1564C33.7914 57.0596 33.8812 56.9745 33.9822 56.904C34.0678 56.815 34.1668 56.7397 34.2756 56.6809Z" fill="#263238"/>
<path d="M83.542 49.554H72.0208V71.8433H83.542V49.554Z" fill="#455A64"/>
<path d="M73.0742 71.8433L82.4699 71.822L82.4512 71.8433C82.4512 66.3632 82.4512 58.8697 82.4512 50.6112L82.4779 50.6377H73.0742L73.1009 50.6112C73.0849 62.8994 73.0769 71.2296 73.0742 71.8433C73.0742 71.2296 73.0742 62.8994 73.0475 50.6112V50.5846H82.4992V50.6138C82.4992 58.8724 82.4992 66.3659 82.4992 71.8459V71.8645H82.4779L73.0742 71.8433Z" fill="#263238"/>
<path d="M72.1061 49.5406C72.2973 49.7106 72.4755 49.8944 72.6395 50.0905C72.816 50.2758 72.9808 50.4719 73.1329 50.6776C72.7622 50.3243 72.4181 49.9443 72.1035 49.5406H72.1061Z" fill="#263238"/>
<path d="M83.5687 49.5646C83.5687 49.5646 83.3207 49.7957 83.0353 50.0958C82.7499 50.396 82.5152 50.6271 82.5019 50.6271C82.5368 50.5611 82.5807 50.5003 82.6326 50.4465C82.7467 50.3094 82.8677 50.1781 82.9953 50.0533C83.1446 49.9072 83.2886 49.7877 83.3953 49.6974C83.4452 49.6438 83.5038 49.5989 83.5687 49.5646Z" fill="#263238"/>
<path d="M81.3924 59.5869C81.2777 59.5896 81.1659 59.6232 81.0687 59.684C80.9716 59.7447 80.8927 59.8305 80.8404 59.9322C80.7909 60.043 80.7797 60.1671 80.8087 60.2849C80.8376 60.4027 80.9051 60.5076 81.0004 60.583C81.0963 60.6585 81.2143 60.7006 81.3365 60.703C81.4587 60.7054 81.5783 60.668 81.6771 60.5963C81.7759 60.5247 81.8485 60.4228 81.8838 60.3063C81.919 60.1897 81.9151 60.0649 81.8725 59.9508C81.828 59.8383 81.7494 59.7424 81.6475 59.6767C81.5456 59.611 81.4257 59.5786 81.3044 59.5842" fill="#263238"/>
<path d="M74.5811 71.9999C74.5651 71.9999 74.5544 67.2504 74.5544 61.3905C74.5544 55.5307 74.5544 50.7811 74.5811 50.7811C74.6077 50.7811 74.6077 55.5307 74.6077 61.3905C74.6077 67.2504 74.5971 71.9999 74.5811 71.9999Z" fill="#263238"/>
<path d="M76.9947 71.9999C76.9787 71.9999 76.9653 67.2504 76.9653 61.3905C76.9653 55.5307 76.9787 50.7811 76.9947 50.7811C77.0107 50.7811 77.0213 55.5307 77.0213 61.3905C77.0213 67.2504 77.008 71.9999 76.9947 71.9999Z" fill="#263238"/>
<path d="M79.4056 71.9999C79.3922 71.9999 79.3789 67.2504 79.3789 61.3905C79.3789 55.5307 79.3922 50.7811 79.4056 50.7811C79.4189 50.7811 79.4349 55.5307 79.4349 61.3905C79.4349 67.2504 79.4216 71.9999 79.4056 71.9999Z" fill="#263238"/>
<path d="M81.3417 71.9999C81.3417 71.9999 81.3151 67.2504 81.3151 61.3905C81.3151 55.5307 81.3284 50.7811 81.3417 50.7811C81.3551 50.7811 81.3711 55.5307 81.3711 61.3905C81.3711 67.2504 81.3631 71.9999 81.3417 71.9999Z" fill="#263238"/>
<path opacity="0.4" d="M73.0822 68.3316L73.7783 50.9539L81.9045 50.6112H73.0822V68.3316Z" fill="black"/>
<path d="M70.7113 27.7534V40.0204H71.7994V27.7534H70.7113Z" fill="white"/>
<path d="M83.7047 27.7507H71.7994V39.2633H83.7047V27.7507Z" fill="#455A64"/>
<path d="M82.9953 28.4387H72.5089V38.578H82.9953V28.4387Z" fill="#263238"/>
<path d="M83.262 33.1989H72.3141V34.0064H83.262V33.1989Z" fill="#455A64"/>
<path d="M78.1041 28.0243H77.3173V38.8436H78.1041V28.0243Z" fill="#455A64"/>
<path d="M76.5919 35.4647C76.5544 35.4948 76.5142 35.5215 76.4719 35.5444L76.1439 35.7516C75.8772 35.9243 75.4852 36.1686 75.0771 36.4502C74.6691 36.7318 74.2984 37.0001 74.0343 37.194L73.7223 37.4251C73.6856 37.4564 73.6454 37.4831 73.6023 37.5048C73.6358 37.4707 73.6714 37.4388 73.709 37.4092C73.7783 37.3481 73.8823 37.2657 74.0103 37.1621C74.277 36.9602 74.6317 36.6866 75.0451 36.4051C75.4585 36.1235 75.8452 35.8738 76.1279 35.7171L76.4666 35.5258C76.5064 35.5017 76.5484 35.4812 76.5919 35.4647Z" fill="white"/>
<path d="M76.0532 35.0317C75.9728 35.0879 75.8881 35.1376 75.7999 35.1805C75.6399 35.2655 75.4212 35.3877 75.1838 35.5311C74.9464 35.6746 74.7384 35.8154 74.5891 35.9163C74.5106 35.9763 74.4267 36.0287 74.3384 36.073C74.4073 36.0026 74.4832 35.9394 74.5651 35.8844C74.754 35.7409 74.9508 35.6079 75.1545 35.486C75.3575 35.3613 75.5666 35.247 75.7812 35.1433C75.8675 35.0962 75.9587 35.0588 76.0532 35.0317Z" fill="white"/>
<path d="M79.1548 31.977C79.1884 31.9412 79.225 31.9083 79.2642 31.8787L79.5709 31.6131C79.8376 31.3979 80.1896 31.1004 80.579 30.763C80.9684 30.4257 81.3151 30.1122 81.5631 29.8864L81.8591 29.6208C81.8949 29.5869 81.9332 29.5558 81.9738 29.5278C81.9452 29.5677 81.9121 29.6043 81.8751 29.6367L81.5898 29.9183C81.3471 30.1547 81.0057 30.4708 80.6163 30.8108C80.227 31.1508 79.8643 31.4404 79.5949 31.6476L79.2775 31.8893C79.2395 31.9223 79.1984 31.9517 79.1548 31.977Z" fill="white"/>
<path d="M79.4456 31.0473C79.4456 31.0473 79.5042 30.9809 79.6136 30.8879C79.7229 30.7949 79.8803 30.6727 80.0429 30.5399C80.2056 30.4071 80.3683 30.2876 80.483 30.2026C80.543 30.1531 80.6083 30.1104 80.6777 30.0751C80.628 30.1337 80.5716 30.1863 80.5097 30.2318C80.4003 30.3248 80.243 30.4496 80.0776 30.5824C79.9123 30.7153 79.7522 30.8348 79.6376 30.9198C79.5785 30.9692 79.5141 31.012 79.4456 31.0473Z" fill="white"/>
<path d="M72.5622 28.4892C72.3893 28.4334 72.2346 28.3325 72.1141 28.197C71.9802 28.0751 71.8808 27.9203 71.8261 27.748C71.9274 27.8906 72.0369 28.0272 72.1541 28.1571C72.2842 28.2748 72.4204 28.3857 72.5622 28.4892Z" fill="#263238"/>
<path d="M83.758 27.7268C83.6638 27.876 83.5447 28.008 83.406 28.1173C83.2806 28.2421 83.1367 28.3469 82.9792 28.4281C82.9792 28.4281 83.1553 28.2714 83.3686 28.0774C83.4924 27.9541 83.6224 27.8371 83.758 27.7268Z" fill="#263238"/>
<path d="M83.6993 39.1836C83.5608 39.1138 83.4333 39.0244 83.3206 38.918C83.1968 38.825 83.0888 38.7129 83.0006 38.5859C83.1269 38.6743 83.2464 38.7719 83.358 38.8781C83.4809 38.9694 83.5951 39.0716 83.6993 39.1836Z" fill="#263238"/>
<path d="M72.5409 38.6178C72.4353 38.7428 72.3164 38.8559 72.1862 38.9551C72.0673 39.0681 71.9358 39.1671 71.7941 39.25C71.8997 39.125 72.0186 39.0119 72.1488 38.9126C72.2673 38.7993 72.3989 38.7003 72.5409 38.6178Z" fill="#263238"/>
<path d="M85.7102 26.6697H69.9139V27.7535H85.7102V26.6697Z" fill="white"/>
<g opacity="0.4">
<path opacity="0.4" d="M70.0259 40.2807L70.2366 40.4188L77.3146 40.8969C78.7791 41.0345 80.2521 41.0594 81.7204 40.9713C82.8578 40.8735 83.9796 40.6417 85.0621 40.2807C80.0638 39.7574 75.0242 39.7574 70.0259 40.2807Z" fill="black"/>
</g>
<path d="M85.7102 39.1517H69.9139V40.2355H85.7102V39.1517Z" fill="white"/>
<path d="M83.7126 27.5887V39.8557H84.8008V27.5887H83.7126Z" fill="white"/>
<g opacity="0.4">
<path opacity="0.4" d="M70.642 27.7774C73.1568 28.6332 75.7746 29.1522 78.4268 29.3207C80.4936 29.4243 82.9606 28.6885 84.8008 27.7481C80.0856 27.7269 75.3571 27.7933 70.642 27.7774Z" fill="black"/>
</g>
<path d="M0.00268555 44.204H53.7016L78.4268 3.3363H23.8452L0.00268555 44.204Z" fill="#6EB3F3"/>
<path opacity="0.2" d="M0.00268555 44.204H55.6698L78.4268 3.3363H23.8452L0.00268555 44.204Z" fill="black"/>
<path d="M27.7095 3.33633C27.7415 3.35493 22.4503 12.5193 15.8896 23.7901C9.32895 35.061 3.98173 44.2227 3.94973 44.1961C3.91773 44.1695 9.20627 35.0238 15.7696 23.7423C22.333 12.4608 27.6749 3.31774 27.7095 3.33633Z" fill="#263238"/>
<path d="M32.4727 3.33633C32.5074 3.35493 27.2135 12.5193 20.6528 23.7901C14.0921 35.061 8.74492 44.2227 8.71291 44.1961C8.68091 44.1695 13.9721 35.0238 20.5355 23.7423C27.0988 12.4608 32.4407 3.31774 32.4727 3.33633Z" fill="#263238"/>
<path d="M37.2385 3.33633C37.2705 3.35493 31.9793 12.5193 25.4186 23.7901C18.858 35.061 13.5107 44.2227 13.4761 44.1961C13.4414 44.1695 18.7353 35.0158 25.2986 23.7264C31.862 12.4369 37.2039 3.31774 37.2385 3.33633Z" fill="#263238"/>
<path d="M42.0017 3.33633C42.0337 3.35493 36.7425 12.5193 30.1818 23.7901C23.6211 35.061 18.2739 44.2227 18.2419 44.1961C18.2099 44.1695 23.4984 35.0158 30.0618 23.7264C36.6251 12.4369 41.967 3.31774 42.0017 3.33633Z" fill="#263238"/>
<path d="M46.7648 3.33633C46.7995 3.35493 41.5056 12.5193 34.9449 23.7901C28.3843 35.061 23.037 44.2227 23.005 44.1961C22.973 44.1695 28.2696 35.0238 34.8249 23.7423C41.3803 12.4608 46.7328 3.31774 46.7648 3.33633Z" fill="#263238"/>
<path d="M51.528 3.33633C51.5626 3.35493 46.2688 12.5193 39.7107 23.7901C33.1527 35.061 27.8028 44.2227 27.7682 44.1961C27.7335 44.1695 33.0274 35.0158 39.5907 23.7264C46.1541 12.4369 51.496 3.31774 51.528 3.33633Z" fill="#263238"/>
<path d="M56.2938 3.33633C56.3258 3.35493 51.0346 12.5193 44.4739 23.7901C37.9132 35.061 32.566 44.2227 32.5367 44.1961C32.5073 44.1695 37.7906 35.0238 44.3539 23.7423C50.9173 12.4608 56.2725 3.31774 56.2938 3.33633Z" fill="#263238"/>
<path d="M61.057 3.33633C61.0916 3.35493 55.7977 12.5193 49.2371 23.7901C42.6764 35.061 37.3372 44.2227 37.2972 44.1961C37.2572 44.1695 42.5537 35.0158 49.1171 23.7264C55.6804 12.4369 61.025 3.31774 61.057 3.33633Z" fill="#263238"/>
<path d="M65.8201 3.33633C65.8548 3.35493 60.5609 12.5193 54.0029 23.7901C47.4449 35.061 42.095 44.2227 42.0603 44.1961C42.0257 44.1695 47.3196 35.0238 53.8722 23.7423C60.4249 12.4608 65.7881 3.31774 65.8201 3.33633Z" fill="#263238"/>
<path d="M70.586 3.33633C70.618 3.35493 65.3268 12.5193 58.7661 23.7901C52.2054 35.061 46.8582 44.2227 46.8235 44.1961C46.7889 44.1695 52.0827 35.0238 58.6461 23.7423C65.2094 12.4608 70.5513 3.31774 70.586 3.33633Z" fill="#263238"/>
<path d="M75.3491 3.33633C75.3811 3.35493 70.0899 12.5193 63.5292 23.7901C56.9685 35.061 51.6213 44.2227 51.5893 44.1961C51.5573 44.1695 56.8459 35.0158 63.4092 23.7264C69.9726 12.4369 75.3171 3.31774 75.3491 3.33633Z" fill="#263238"/>
<path d="M0 44.1961H0.266694H1.04277L4.03242 44.1828L15.0256 44.1616L51.296 44.1403H55.6724L55.6138 44.1775C62.0144 32.7181 67.6977 22.5045 71.7994 15.1544C73.853 11.486 75.5065 8.53216 76.6479 6.48943C77.2187 5.47471 77.6614 4.68844 77.9654 4.15186C78.1148 3.88622 78.2294 3.68434 78.3094 3.54621C78.3868 3.40808 78.4295 3.34167 78.4295 3.34167C78.4295 3.34167 78.3948 3.4134 78.3201 3.55153C78.2454 3.68966 78.1334 3.89685 77.9867 4.16248C77.6907 4.69375 77.2533 5.49065 76.6933 6.516L71.8794 15.1996C67.7883 22.5523 62.1051 32.7739 55.7391 44.2386L55.7204 44.2732H51.2933L15.0229 44.2546L4.02975 44.2307H1.04011H0.264028L0 44.1961Z" fill="#263238"/>
<path d="M99.0422 42.6899H103L80.8697 3.3363H78.4268L99.0422 42.6899Z" fill="#6EB3F3"/>
<path opacity="0.4" d="M99.0422 42.6899H103L80.8697 3.3363H78.4268L99.0422 42.6899Z" fill="black"/>
<path d="M46.0661 0H36.8865V20.4936H46.0661V0Z" fill="#6EB3F3"/>
<path d="M46.0661 20.4963L50.4772 12.9284L50.6532 0.00268555H46.0661V20.4963Z" fill="#6EB3F3"/>
<path opacity="0.3" d="M46.0661 0H36.8865V20.4936H46.0661V0Z" fill="black"/>
<path d="M36.8865 0C36.8888 0.0344924 36.8888 0.0691045 36.8865 0.103597C36.8865 0.175318 36.8865 0.27626 36.8865 0.403764C36.8865 0.669398 36.8865 1.06254 36.8865 1.56193C36.8865 2.5793 36.8865 4.0456 36.9078 5.87316C36.9078 9.54422 36.9211 14.6656 36.9291 20.4963L36.8625 20.4272H46.0421L45.9728 20.4963C45.9728 14.6656 45.9914 9.54422 45.9968 5.87316C45.9968 4.0456 46.0128 2.5793 46.0181 1.56193C46.0181 1.06254 46.0181 0.674711 46.0181 0.403764C46.0181 0.27626 46.0181 0.175318 46.0181 0.103597C46.0146 0.0691532 46.0146 0.0344438 46.0181 0C46.0181 0 46.0181 0.0345322 46.0181 0.103597C46.0181 0.172662 46.0181 0.27626 46.0181 0.403764C46.0181 0.669398 46.0181 1.06254 46.0181 1.56193C46.0181 2.5793 46.0181 4.0456 46.0368 5.87316C46.0368 9.54422 46.0528 14.6656 46.0608 20.4963V20.5547H36.8171V20.4883C36.8171 14.6577 36.8358 9.53625 36.8411 5.86519C36.8411 4.03763 36.8571 2.57134 36.8625 1.55396C36.8625 1.05457 36.8625 0.666742 36.8625 0.395796C36.8625 0.268291 36.8625 0.167349 36.8625 0.0956283C36.8668 0.0629547 36.8749 0.0308757 36.8865 0Z" fill="#263238"/>
<g opacity="0.4">
<path opacity="0.4" d="M36.6438 20.9479C35.0522 23.0465 33.793 25.3757 32.9101 27.8544C35.2357 25.2565 37.6733 22.5763 40.8976 21.2348L39.3268 24.688C40.0187 23.6453 40.9376 22.7711 42.0152 22.1306C43.0928 21.49 44.3015 21.0994 45.5514 20.9878L45.5834 21.4739C46.0368 20.9426 46.6795 20.0634 46.5462 20.167L46.0555 20.4831H36.8865L36.6438 20.9479Z" fill="black"/>
</g>
</svg>
