<svg width="97" height="147" viewBox="0 0 97 147" fill="none" xmlns="http://www.w3.org/2000/svg">
<path d="M23.7956 106.187C23.6275 106.344 23.4459 106.486 23.2529 106.61L21.6466 107.749H21.6104H21.5598L13.1156 103.625L13.0215 103.581V103.486C12.8189 100.72 12.5874 97.5814 12.3342 94.2676C12.1171 91.1582 11.9072 88.202 11.7191 85.5525V85.3992H11.8638C14.8448 84.7777 17.9223 84.8001 20.8941 85.4649C21.737 85.6502 22.5663 85.8941 23.376 86.1948C23.6703 86.2886 23.9541 86.4133 24.2225 86.5671C23.9257 86.4975 23.6333 86.4097 23.347 86.3043C22.5268 86.0533 21.6934 85.8486 20.8507 85.6912C17.9049 85.1062 14.8721 85.131 11.9362 85.7641L12.0737 85.5817C12.269 88.2312 12.4934 91.1801 12.7249 94.2895C12.9564 97.6032 13.1807 100.742 13.3761 103.508L13.282 103.37L21.6538 107.639H21.5598L23.2168 106.574C23.3943 106.423 23.5885 106.293 23.7956 106.187Z" fill="#263238"/>
<path d="M24.049 79.9395C24.1213 80.2975 24.16 80.6616 24.1648 81.027C24.2154 81.7569 24.2661 82.7569 24.3095 84.0123C24.3963 86.5378 24.418 90.0268 24.3963 93.8734C24.3746 97.72 24.3601 101.209 24.3963 103.727C24.3963 104.931 24.3963 105.917 24.3963 106.712C24.4178 107.08 24.4057 107.449 24.3602 107.815C24.2875 107.454 24.2487 107.088 24.2444 106.72C24.1937 105.99 24.1431 104.997 24.0997 103.734C24.0128 101.209 23.9911 97.72 24.0128 93.8734C24.0345 90.0268 24.049 86.5743 24.0128 84.0196C24.0128 82.8153 24.0128 81.8299 24.0128 81.0343C23.9908 80.669 24.003 80.3025 24.049 79.9395Z" fill="#263238"/>
<g opacity="0.3">
<path opacity="0.3" d="M24.3818 106.428C26.3716 99.2237 25.9592 90.202 24.049 82.9686L24.3818 106.428Z" fill="black"/>
</g>
<path d="M24.0851 89.7567C23.4988 89.7436 22.915 89.6752 22.3413 89.5524C21.2776 89.3991 19.8015 89.2239 18.159 89.129C16.5165 89.0341 15.0332 89.0487 13.955 89.0779C13.3727 89.1352 12.7863 89.1352 12.204 89.0779C12.7693 88.9137 13.3526 88.8205 13.9406 88.8006C16.7635 88.5637 19.6053 88.7234 22.3847 89.275C22.9694 89.3623 23.5408 89.5241 24.0851 89.7567Z" fill="#263238"/>
<path d="M24.7797 142.42C24.5255 142.339 24.2824 142.226 24.0561 142.084C23.6003 141.85 22.9563 141.485 22.1748 141.025C20.1301 139.804 18.1497 138.476 16.2415 137.047C14.3327 135.623 12.4995 134.097 10.7496 132.478C10.0766 131.858 9.54842 131.34 9.19387 130.975C8.99655 130.795 8.81941 130.595 8.66565 130.376C8.89678 130.509 9.10861 130.674 9.29516 130.865L10.9232 132.281C12.3052 133.464 14.2444 135.077 16.4731 136.741C18.7017 138.405 20.8145 139.806 22.3123 140.792L24.1285 141.96C24.365 142.083 24.584 142.238 24.7797 142.42Z" fill="#263238"/>
<path d="M2.0522 66.2903C4.17736 60.2599 7.86772 54.9152 12.7383 50.8138C17.609 46.7123 23.4814 44.0044 29.743 42.9726C36.0046 41.9407 42.426 42.6226 48.3373 44.9473C54.2486 47.2719 59.4333 51.154 63.3504 56.1887C67.2675 61.2234 69.7736 67.2261 70.6073 73.5707C71.4409 79.9154 70.5716 86.3694 68.0899 92.2596C65.6082 98.1498 61.6051 103.26 56.4982 107.058C51.3914 110.856 45.3678 113.202 39.0559 113.851L36.0675 122.369L6.74821 111.931C6.74821 111.931 8.24601 107.085 9.64252 102.8C5.16952 98.0084 2.09409 92.0643 0.754871 85.6226C-0.584354 79.1808 -0.13543 72.4912 2.0522 66.2903Z" fill="#F5F5BE"/>
<path d="M11.1548 113.457C11.1548 113.457 11.2271 113.325 11.3574 113.063L11.9218 111.88C12.4138 110.844 13.1302 109.304 14.0274 107.311C15.8074 103.318 18.2965 97.4938 20.9592 90.1363C21.6249 88.3042 22.3051 86.37 22.978 84.3408C23.3181 83.3263 23.6582 82.2971 23.9983 81.2387C24.4069 80.1732 24.651 79.0506 24.7219 77.9104C24.7348 77.3109 24.6032 76.7173 24.3384 76.1805C24.2111 75.8973 24.0281 75.6433 23.8005 75.4337C23.5729 75.2242 23.3053 75.0635 23.0142 74.9615C22.71 74.8839 22.3926 74.8736 22.0841 74.9316C21.7755 74.9896 21.4831 75.1143 21.227 75.2973C20.7014 75.6597 20.2897 76.1663 20.0403 76.7571C19.8159 77.3504 19.7286 77.9874 19.785 78.6198C19.8414 79.2523 20.0401 79.8634 20.3659 80.4066C21.0148 81.5424 21.9987 82.4457 23.1806 82.9905C24.3895 83.5532 25.7354 83.7461 27.0518 83.5452C28.3992 83.3185 29.6544 82.7082 30.6697 81.7862C31.7045 80.8609 32.5015 79.6962 32.9923 78.3921C33.2501 77.7302 33.3968 77.0297 33.4265 76.3192C33.4823 75.582 33.2629 74.8505 32.8114 74.2681C32.5617 73.9822 32.2308 73.7809 31.8636 73.6915C31.5021 73.6038 31.1252 73.6038 30.7637 73.6915C30.0449 73.8637 29.4019 74.2688 28.9331 74.8448C28.4676 75.4108 28.0873 76.0429 27.8043 76.7206C27.5167 77.3884 27.2631 78.0705 27.0445 78.7644C26.571 80.1767 26.3124 81.6533 26.2775 83.1438C26.2215 84.6592 26.5848 86.1605 27.3267 87.4794C27.7063 88.1362 28.1959 88.7215 28.7739 89.2093C29.358 89.6919 30.0435 90.0339 30.7782 90.2093C31.5149 90.3596 32.2767 90.3295 32.9996 90.1217C33.7121 89.9126 34.3796 89.571 34.9677 89.1144C36.099 88.2067 37.0765 87.1196 37.862 85.8956C38.2672 85.3043 38.6435 84.6985 39.0053 84.0854C39.3835 83.4793 39.7103 82.842 39.9821 82.1803C40.2608 81.5064 40.3265 80.762 40.1702 80.049C40.0879 79.6873 39.919 79.3515 39.6782 79.0709C39.4248 78.7879 39.0772 78.6086 38.7014 78.5673C38.3354 78.5321 37.9674 78.6083 37.6449 78.7863C37.3342 78.9533 37.0491 79.1647 36.7984 79.414C36.3126 79.9057 35.9007 80.4663 35.5755 81.0782C34.1857 83.3886 33.6072 86.1036 33.933 88.786C34.144 90.0725 34.677 91.2834 35.4814 92.3041C36.2545 93.3191 37.3422 94.0437 38.5711 94.3625C39.7809 94.6336 41.0476 94.4328 42.1166 93.8004C43.1642 93.2311 44.0035 92.3384 44.5117 91.2531C44.7629 90.7246 44.9104 90.152 44.9458 89.567C44.9981 88.9802 44.85 88.393 44.5261 87.9028C44.3493 87.6607 44.0963 87.4862 43.8085 87.408C43.5206 87.3298 43.215 87.3524 42.9415 87.4722C42.4413 87.715 42.0142 88.0879 41.7042 88.5524C41.1318 89.4366 40.6678 90.3876 40.3222 91.3845L39.1934 94.1654C36.2412 101.406 33.9619 107.304 32.4641 111.413C31.7406 113.464 31.1545 115.063 30.7854 116.165L30.373 117.406L30.2427 117.836C30.2427 117.836 30.3006 117.69 30.4019 117.413L30.8361 116.179C31.2196 115.099 31.7912 113.493 32.5582 111.45C34.0849 107.355 36.3859 101.464 39.3598 94.2311C39.7288 93.326 40.0834 92.4063 40.5031 91.4574C40.8416 90.4776 41.2985 89.5436 41.8634 88.6765C42.1518 88.2394 42.5518 87.889 43.0211 87.6619C43.2521 87.5599 43.5107 87.5404 43.7541 87.6068C43.9975 87.6732 44.2112 87.8214 44.3597 88.0269C44.6567 88.4787 44.7896 89.0203 44.736 89.5597C44.7 90.1149 44.5574 90.6578 44.3163 91.1582C43.827 92.2038 43.0179 93.0635 42.0081 93.6107C40.9855 94.2102 39.7768 94.4004 38.6218 94.1435C37.4435 93.833 36.4019 93.1342 35.6623 92.1582C34.8841 91.1696 34.3708 89.9958 34.1718 88.7495C33.8369 86.116 34.3954 83.4456 35.7564 81.1731C36.0714 80.5836 36.4686 80.0429 36.9358 79.5673C37.1484 79.3213 37.4109 79.1242 37.7055 78.9895C38.0001 78.8547 38.32 78.7854 38.6435 78.7863C38.96 78.8439 39.251 78.9991 39.4765 79.2304C39.7019 79.4618 39.8508 79.758 39.9025 80.0782C40.0463 80.7436 39.9805 81.4377 39.7144 82.0635C39.4481 82.7098 39.1286 83.3324 38.7592 83.9248C38.4047 84.5306 38.0357 85.1364 37.6232 85.7204C36.8504 86.9216 35.8901 87.9889 34.7796 88.8809C34.2155 89.3143 33.578 89.6408 32.8983 89.8444C32.2161 90.0457 31.4952 90.0733 30.7999 89.9246C30.1038 89.7379 29.4525 89.4108 28.8854 88.9629C28.3183 88.515 27.8471 87.9557 27.5004 87.3189C26.7783 86.0438 26.4272 84.5891 26.4874 83.1219C26.5171 81.6679 26.7609 80.2263 27.211 78.8446C27.5842 77.4684 28.2074 76.1741 29.0489 75.0272C29.4815 74.4907 30.0761 74.1114 30.742 73.947C31.0598 73.8568 31.396 73.8553 31.7146 73.9427C32.0332 74.0301 32.3222 74.2031 32.551 74.4433C32.9608 74.977 33.1571 75.6465 33.1009 76.3192C33.0769 76.9999 32.9374 77.6714 32.6884 78.3045C32.2124 79.5709 31.4405 80.7026 30.4381 81.6037C29.4649 82.4946 28.2601 83.0871 26.9649 83.3117C25.6956 83.512 24.3958 83.3266 23.2313 82.7788C22.0916 82.2585 21.1426 81.3905 20.5179 80.2972C20.2027 79.7808 20.0094 79.1983 19.953 78.5946C19.8965 77.9909 19.9784 77.3822 20.1923 76.8155C20.4305 76.2767 20.8141 75.8164 21.2993 75.4871C21.5265 75.3191 21.7876 75.2038 22.0641 75.1496C22.3405 75.0953 22.6254 75.1034 22.8984 75.1732C23.1612 75.2672 23.4027 75.4131 23.609 75.6024C23.8152 75.7916 23.982 76.0204 24.0996 76.2754C24.3464 76.7837 24.468 77.3445 24.4541 77.9104C24.3852 79.0296 24.141 80.1308 23.7306 81.1731C23.3905 82.2314 23.0504 83.2679 22.7248 84.2825C22.0494 86.3019 21.3789 88.2337 20.7132 90.0779C18.0794 97.4354 15.6482 103.267 13.8682 107.267C12.9854 109.267 12.2836 110.815 11.806 111.858C11.5672 112.377 11.3863 112.778 11.2561 113.048L11.1548 113.457Z" fill="white"/>
<path d="M19.4253 145.507C18.448 145.752 17.5101 146.135 16.6395 146.646C16.3399 146.834 16.0018 146.951 15.6507 146.988C15.2996 147.024 14.9449 146.98 14.6135 146.857L8.10128 144.514C7.74026 144.386 7.41577 144.171 7.156 143.887C6.89624 143.603 6.70907 143.26 6.61072 142.887C6.39281 141.866 5.82055 140.957 4.99713 140.325L19.4253 145.507Z" fill="#263238"/>
<path d="M32.9851 129.632C32.9345 129.763 27.7898 139.536 25.8217 143.274C25.4323 144.036 24.8604 144.688 24.1579 145.171C23.4554 145.654 22.6444 145.953 21.7986 146.04C21.12 146.106 20.4354 146.018 19.7943 145.784L5.47469 140.675C5.47469 140.675 1.72657 139.339 1.93641 136.04C2.14625 132.566 4.83072 119.566 4.83072 119.566L32.9851 129.632Z" fill="#E0E0E0"/>
<path d="M1.07333 133.251L1.04402 133.334C0.903719 133.728 1.10712 134.163 1.49833 134.304L26.4197 143.32C26.8109 143.462 27.2418 143.257 27.3821 142.862L27.4114 142.78C27.5517 142.385 27.3483 141.95 26.9571 141.809L2.03572 132.793C1.64451 132.651 1.21364 132.856 1.07333 133.251Z" fill="#E0E0E0"/>
<path d="M1.5095 134.318C1.3352 134.231 1.19311 134.09 1.10428 133.916C1.05622 133.811 1.03134 133.696 1.03134 133.58C1.03134 133.464 1.05622 133.35 1.10428 133.245C1.16546 133.106 1.26806 132.99 1.39776 132.913C1.52747 132.835 1.67782 132.801 1.82785 132.814C3.18818 133.281 5.18525 134.055 7.61647 134.945L26.8492 141.945C26.9481 141.978 27.0368 142.037 27.1066 142.115C27.1763 142.193 27.2248 142.288 27.2471 142.39C27.2725 142.491 27.2725 142.596 27.2471 142.697C27.2199 142.801 27.1759 142.899 27.1169 142.989C27.0557 143.073 26.9747 143.14 26.8812 143.185C26.7877 143.23 26.6847 143.25 26.5814 143.244C26.357 143.194 26.1369 143.125 25.923 143.04L23.224 142.062L18.1083 140.215L9.42541 137.113L3.57892 135.04L1.97982 134.493L1.56738 134.354L1.42265 134.318L1.56013 134.376L1.96533 134.537L3.54275 135.135L9.33136 137.325L17.9781 140.478L23.0865 142.332L25.7855 143.317L26.1328 143.441C26.2575 143.494 26.3891 143.529 26.5235 143.544C26.6634 143.545 26.8017 143.513 26.9274 143.451C27.053 143.389 27.1625 143.298 27.2471 143.186C27.3298 143.07 27.3888 142.938 27.4208 142.799C27.4533 142.657 27.4533 142.51 27.4208 142.368C27.3869 142.223 27.3175 142.089 27.2189 141.978C27.1202 141.867 26.9956 141.783 26.8564 141.733L7.60201 134.807C5.12737 133.938 3.15202 133.201 1.73381 132.756C1.56231 132.736 1.38908 132.773 1.24116 132.863C1.09324 132.953 0.978958 133.09 0.91616 133.252C0.861169 133.366 0.832581 133.49 0.832581 133.617C0.832581 133.743 0.861169 133.868 0.91616 133.982C0.980195 134.083 1.0678 134.166 1.17127 134.224C1.27474 134.283 1.39089 134.315 1.5095 134.318Z" fill="#263238"/>
<path d="M1.68875 129.804L1.65944 129.886C1.51914 130.281 1.72253 130.716 2.11373 130.857L28.0908 140.255C28.482 140.397 28.9129 140.191 29.0532 139.797L29.0825 139.714C29.2228 139.32 29.0194 138.885 28.6282 138.744L2.65113 129.346C2.25993 129.204 1.82905 129.409 1.68875 129.804Z" fill="#E0E0E0"/>
<path d="M2.12457 130.909C1.93858 130.83 1.7906 130.68 1.71215 130.493C1.66955 130.381 1.65199 130.26 1.66074 130.14C1.6695 130.021 1.70433 129.904 1.76278 129.799C1.83706 129.657 1.95616 129.543 2.10147 129.475C2.24678 129.408 2.41013 129.391 2.56596 129.427L8.60784 131.653L28.5858 138.952C28.687 138.989 28.7772 139.052 28.8481 139.133C28.9189 139.215 28.9681 139.314 28.991 139.42C29.02 139.525 29.02 139.636 28.991 139.741C28.9627 139.851 28.9108 139.953 28.839 140.04C28.7685 140.12 28.6792 140.181 28.5792 140.216C28.4793 140.252 28.372 140.262 28.2674 140.244C28.072 140.193 27.8043 140.084 27.5438 140.004L24.7436 138.938L19.4325 137.026L10.4312 133.785L4.36042 131.639L2.70345 131.062L2.26929 130.923L2.12457 130.88C2.12457 130.88 2.16799 130.88 2.26205 130.945L2.68896 131.113L4.32425 131.734L10.3734 133.967L19.3529 137.244L24.6568 139.171L27.4643 140.186C27.7009 140.284 27.9425 140.369 28.1878 140.441C28.3352 140.465 28.486 140.45 28.6264 140.399C28.7667 140.348 28.8921 140.262 28.991 140.15C29.0849 140.036 29.1539 139.905 29.1936 139.763C29.2298 139.614 29.2298 139.459 29.1936 139.31C29.1637 139.16 29.0951 139.02 28.9948 138.905C28.8945 138.789 28.7659 138.703 28.622 138.653L8.61506 131.449C6.05359 130.537 3.98417 129.799 2.53701 129.303C2.36223 129.262 2.17878 129.282 2.01697 129.361C1.85515 129.439 1.72465 129.571 1.64701 129.734C1.58829 129.845 1.55462 129.968 1.54837 130.095C1.54212 130.221 1.56345 130.347 1.61084 130.464C1.64914 130.577 1.71702 130.679 1.80739 130.757C1.89775 130.835 2.00728 130.888 2.12457 130.909Z" fill="#263238"/>
<path d="M2.49472 126.433L2.4654 126.515C2.3251 126.91 2.5285 127.345 2.9197 127.486L29.5643 137.126C29.9555 137.267 30.3864 137.062 30.5267 136.667L30.556 136.585C30.6963 136.19 30.4929 135.756 30.1017 135.614L3.45709 125.975C3.06589 125.833 2.63502 126.038 2.49472 126.433Z" fill="#E0E0E0"/>
<path d="M2.92776 127.507C2.74389 127.414 2.59801 127.26 2.51531 127.07C2.46797 126.951 2.44918 126.824 2.46051 126.697C2.47183 126.57 2.51293 126.447 2.58043 126.34C2.66298 126.197 2.79089 126.087 2.9433 126.028C3.09572 125.968 3.26367 125.962 3.41978 126.011L9.60636 128.296L30.0691 135.734C30.1719 135.774 30.2629 135.84 30.3337 135.926C30.4045 136.011 30.4529 136.113 30.4743 136.223C30.4884 136.334 30.4782 136.447 30.4445 136.554C30.4107 136.662 30.3543 136.76 30.279 136.843C30.2041 136.922 30.1101 136.981 30.0061 137.013C29.9021 137.045 29.7917 137.049 29.6856 137.025C29.4613 136.952 29.2008 136.85 28.962 136.763L26.0677 135.726L20.6482 133.828L11.437 130.522L5.22148 128.332L3.52832 127.741L3.0797 127.595H2.92776L3.07246 127.661L3.50661 127.829L5.18531 128.464L11.3791 130.748L20.5686 134.099L26.0026 136.077L28.8969 137.12C29.1502 137.208 29.3673 137.295 29.6205 137.383C29.7709 137.418 29.9276 137.414 30.0758 137.37C30.224 137.327 30.3587 137.246 30.4671 137.135C30.5649 137.022 30.6388 136.891 30.6842 136.748C30.7345 136.6 30.7494 136.443 30.7276 136.288C30.7002 136.133 30.633 135.988 30.5327 135.868C30.4324 135.748 30.3025 135.656 30.156 135.602L9.70767 128.142L3.4849 125.953C3.30888 125.901 3.12076 125.911 2.95123 125.982C2.7817 126.052 2.64078 126.178 2.55148 126.34C2.48587 126.455 2.44722 126.584 2.43845 126.717C2.42967 126.85 2.45101 126.983 2.50085 127.106C2.54047 127.199 2.5989 127.283 2.6724 127.352C2.7459 127.421 2.83287 127.474 2.92776 127.507Z" fill="#263238"/>
<path d="M3.09604 122.991L3.06673 123.073C2.92642 123.468 3.12982 123.902 3.52103 124.044L31.2486 134.075C31.6398 134.217 32.0706 134.011 32.2109 133.617L32.2403 133.534C32.3806 133.14 32.1772 132.705 31.786 132.564L4.05843 122.532C3.66722 122.391 3.23634 122.596 3.09604 122.991Z" fill="#E0E0E0"/>
<path d="M3.52825 124.062C3.33669 123.97 3.18676 123.809 3.10858 123.61C3.0682 123.489 3.05633 123.36 3.07392 123.233C3.0915 123.106 3.13804 122.985 3.20987 122.88C3.30452 122.736 3.44656 122.631 3.61081 122.583C3.77506 122.535 3.95091 122.547 4.10712 122.617L10.5252 124.989L31.7478 132.704C31.8554 132.745 31.9504 132.813 32.023 132.903C32.0955 132.993 32.1429 133.101 32.1602 133.215C32.1708 133.332 32.1554 133.449 32.1154 133.559C32.0753 133.669 32.0116 133.769 31.9286 133.85C31.8426 133.926 31.7381 133.976 31.6261 133.996C31.5141 134.017 31.3987 134.007 31.2919 133.967L30.5322 133.697L27.551 132.617L21.9143 130.58L12.3559 127.157L5.90882 124.865L4.15054 124.252L3.68744 124.106C3.63746 124.082 3.58351 124.067 3.52825 124.062L3.68022 124.128L4.12883 124.303L5.87265 124.96L12.298 127.325L21.8348 130.807L27.4642 132.858L30.4453 133.938L31.1689 134.215C31.2815 134.254 31.4006 134.271 31.5194 134.263C31.6383 134.256 31.7545 134.225 31.8613 134.172C31.9682 134.119 32.0637 134.045 32.1423 133.955C32.2209 133.865 32.2811 133.76 32.3194 133.646C32.3758 133.497 32.3957 133.337 32.3773 133.179C32.3565 133.015 32.2915 132.861 32.1894 132.732C32.0873 132.603 31.952 132.505 31.7984 132.449L10.5542 124.8L4.10712 122.508C3.93075 122.433 3.73372 122.423 3.55095 122.48C3.36818 122.538 3.21146 122.659 3.10858 122.822C3.03471 122.937 2.98842 123.069 2.97335 123.205C2.95829 123.342 2.97486 123.481 3.02176 123.61C3.08202 123.767 3.19453 123.899 3.34013 123.982C3.39548 124.024 3.46002 124.051 3.52825 124.062Z" fill="#263238"/>
<path d="M41.3425 118.719C41.2484 118.982 38.4482 125.092 37.001 128.208C36.7373 128.775 36.3506 129.274 35.8696 129.67C35.3887 130.065 34.8258 130.346 34.2225 130.493L32.428 130.923L4.73671 121.011L3.62963 119.552C3.24587 119.049 2.98113 118.465 2.85571 117.844C2.73029 117.223 2.74751 116.581 2.90606 115.968L5.5254 105.873L41.3425 118.719Z" fill="#F5F5BE"/>
<g opacity="0.3">
<path opacity="0.3" d="M25.5177 142.938C22.6134 142.496 19.7683 141.722 17.0374 140.631C14.6786 139.77 12.3414 139.011 9.80165 138.033C7.93482 137.303 6.23441 136.609 4.38929 135.843C3.63552 135.579 2.94874 135.15 2.37775 134.588L25.5177 142.938Z" fill="black"/>
</g>
<g opacity="0.3">
<path opacity="0.3" d="M27.6524 140.025C24.5297 139.506 21.4709 138.652 18.5281 137.478C15.9883 136.551 13.4631 135.726 10.7135 134.683C8.70193 133.916 6.87126 133.15 4.88142 132.347C4.07755 132.061 3.33921 131.614 2.71069 131.033L27.6524 140.025Z" fill="black"/>
</g>
<g opacity="0.3">
<path opacity="0.3" d="M28.7883 136.799C25.6662 136.285 22.6075 135.436 19.664 134.267C17.1171 133.34 14.599 132.515 11.8494 131.471C9.83785 130.705 8.00722 129.945 6.01015 129.135C5.20652 128.849 4.46829 128.402 3.83942 127.821L28.7883 136.799Z" fill="black"/>
</g>
<g opacity="0.3">
<path opacity="0.3" d="M29.9244 133.573C26.8021 133.06 23.7432 132.211 20.8001 131.04C18.2531 130.113 15.7351 129.289 12.9855 128.245C10.9739 127.515 9.14327 126.719 7.14619 125.909C6.3412 125.625 5.6024 125.178 4.97546 124.595L29.9244 133.573Z" fill="black"/>
</g>
<path d="M36.0675 111.552C36.2144 111.564 36.362 111.564 36.5089 111.552C36.7911 111.552 37.2325 111.552 37.7607 111.515C39.2954 111.424 40.8214 111.219 42.3264 110.902C44.5633 110.44 46.746 109.743 48.8386 108.822C54.0068 106.581 58.5132 103.031 61.9209 98.5156C63.311 96.6988 64.5113 94.742 65.5026 92.6763C66.1699 91.2792 66.7358 89.8351 67.1958 88.3553C67.3695 87.8297 67.4563 87.4137 67.5359 87.1363C67.5785 86.9951 67.6124 86.8512 67.6372 86.7057C67.5701 86.8377 67.5191 86.9774 67.4852 87.1217C67.3912 87.3918 67.2899 87.8078 67.1017 88.3188C66.6056 89.7816 66.0159 91.2103 65.3362 92.596C61.8722 99.7669 55.9905 105.459 48.7446 108.654C46.6654 109.575 44.501 110.287 42.283 110.778C40.787 111.105 39.2715 111.334 37.7462 111.464C37.2035 111.523 36.7838 111.53 36.4944 111.552H36.0675Z" fill="#263238"/>
<path d="M68.4766 79.7351C68.297 80.3299 68.1948 80.9458 68.1727 81.5672C68.0683 82.1796 68.0513 82.8039 68.1221 83.4211C68.3017 82.8263 68.4039 82.2105 68.426 81.5891C68.5304 80.9767 68.5474 80.3524 68.4766 79.7351Z" fill="#263238"/>
<path d="M3.00726 75.4359C3.03905 75.3135 3.06322 75.1892 3.07962 75.0637C3.1158 74.7936 3.16645 74.436 3.23157 73.9834L3.33288 73.2024C3.38353 72.9251 3.4559 72.6185 3.52102 72.29C3.66573 71.6331 3.7815 70.8813 4.03475 70.1003C4.15052 69.6989 4.2663 69.2682 4.39654 68.8303C4.52678 68.3923 4.70767 67.9398 4.86686 67.4726C5.17076 66.5311 5.59044 65.5749 6.068 64.553C7.10782 62.3733 8.35845 60.3025 9.80166 58.3707C11.275 56.4627 12.9276 54.7027 14.7365 53.1154C15.5975 52.3855 16.3934 51.7213 17.2183 51.1811C17.6235 50.8965 17.9998 50.6045 18.3905 50.3636L19.5121 49.6848C20.2356 49.225 20.9086 48.9111 21.5019 48.5973C21.7986 48.4513 22.0663 48.298 22.3268 48.1812L23.0504 47.8746L24.0417 47.444C24.1598 47.3985 24.2736 47.3423 24.3817 47.2761C24.2602 47.3037 24.1415 47.3428 24.0272 47.3929L23.0142 47.7798L22.2906 48.0644C22.0301 48.1812 21.7552 48.3272 21.4513 48.4659C20.8579 48.7724 20.1561 49.0717 19.4397 49.5242L18.2965 50.1958C17.9057 50.4366 17.5222 50.7213 17.1098 50.9986C16.2777 51.5461 15.4673 52.2322 14.599 52.9329C12.7663 54.5192 11.0961 56.2872 9.61352 58.2101C8.16379 60.161 6.90834 62.2513 5.8654 64.4508C5.42402 65.48 4.97539 66.4508 4.67872 67.3705C4.51954 67.8449 4.34589 68.2974 4.21565 68.7427C4.0854 69.1879 3.9841 69.6186 3.87556 70.0273C3.67459 70.7626 3.51275 71.5081 3.39076 72.2608C3.33287 72.5966 3.26776 72.9032 3.22435 73.1878C3.18093 73.4725 3.17369 73.7353 3.14474 73.9688C3.10133 74.4214 3.06515 74.7863 3.03621 75.0564C3.00894 75.1809 2.99919 75.3087 3.00726 75.4359Z" fill="white"/>
<g opacity="0.2">
<path opacity="0.2" d="M45.3148 54.4584C46.393 53.2395 48.3105 52.765 50.3799 52.8672C53.2999 53.057 56.0299 54.3934 57.9847 56.5898C63.8095 62.9691 66.2624 68.9982 65.9006 78.1001C65.7776 81.173 64.591 85.8955 62.2827 88.129C61.7209 88.6961 61.0494 89.1404 60.3099 89.4343C59.5705 89.7281 58.779 89.8652 57.9847 89.837C53.8241 89.5961 52.1237 84.8225 52.1961 80.8664C52.2612 77.1804 53.1729 73.3192 51.7547 69.9178C50.5825 67.1223 48.0427 65.1953 46.1976 62.7867C44.3525 60.378 43.3033 56.7138 45.3148 54.4584Z" fill="white"/>
</g>
<g opacity="0.2">
<path opacity="0.2" d="M32.3629 48.3491C34.3527 46.6265 37.768 46.8382 39.2803 48.3053C39.8955 48.9331 40.3617 49.6934 40.6437 50.529C40.9257 51.3647 41.0161 52.254 40.9083 53.13C40.747 54.1814 40.2778 55.1601 39.5609 55.9405C38.844 56.7209 37.9123 57.2673 36.8852 57.5094C35.8485 57.7107 34.7752 57.5763 33.8188 57.1253C32.8623 56.6744 32.0716 55.93 31.5597 54.9986C30.5901 53.13 30.771 49.7286 32.3629 48.3491Z" fill="white"/>
</g>
<path opacity="0.3" d="M41.3425 118.719C41.2484 118.982 38.4482 125.092 37.001 128.208C36.7373 128.775 36.3506 129.274 35.8696 129.67C35.3887 130.065 34.8258 130.346 34.2225 130.493L32.428 130.923L4.73671 121.011L3.62963 119.552C3.24587 119.049 2.98113 118.465 2.85571 117.844C2.73029 117.223 2.74751 116.581 2.90606 115.968L5.5254 105.873L41.3425 118.719Z" fill="black"/>
<path d="M5.30835 105.822C5.30835 105.895 13.2677 108.822 23.2024 112.391C33.1371 115.96 41.1543 118.756 41.176 118.69C41.1978 118.624 33.2167 115.69 23.282 112.121C13.3473 108.552 5.36624 105.756 5.30835 105.822Z" fill="#263238"/>
<path d="M3.10132 117.581C3.10132 117.654 10.4601 120.354 19.5989 123.624C28.7377 126.894 36.1616 129.464 36.1833 129.42C36.205 129.376 28.8245 126.654 19.6857 123.384C10.5469 120.114 3.12303 117.515 3.10132 117.581Z" fill="#263238"/>
<path d="M27.7971 36.021C27.6958 36.021 26.5815 30.1817 25.308 23.0068C24.0345 15.8318 23.0794 9.94872 23.1807 9.92682C23.282 9.90492 24.4036 15.7661 25.6771 22.9411C26.9506 30.116 27.9346 36.021 27.7971 36.021Z" fill="#263238"/>
<path d="M68.3173 0.000112421C68.4186 0.0366078 64.9527 8.95607 60.5822 19.9193C56.2118 30.8825 52.6229 39.7362 52.4927 39.6997C52.3624 39.6632 55.8573 30.7438 60.2277 19.7806C64.5981 8.81739 68.2015 -0.0363829 68.3173 0.000112421Z" fill="#263238"/>
<path d="M92.7236 33.5612C92.7815 33.6488 87.3474 37.2108 80.5892 41.5318C73.831 45.8529 68.3173 49.2761 68.245 49.1593C68.1726 49.0426 73.6284 45.5098 80.3866 41.1815C87.1448 36.8531 92.673 33.4736 92.7236 33.5612Z" fill="#263238"/>
<path d="M97 68.9033C97 69.0128 92.2027 68.5968 86.32 67.9763C80.4373 67.3559 75.6689 66.772 75.6762 66.6698C75.6834 66.5676 80.4662 66.9764 86.3561 67.5968C92.2461 68.2172 97.0072 68.8011 97 68.9033Z" fill="#263238"/>
<path d="M42.9126 33.3423C42.8041 33.3423 43.1803 28.8533 43.7375 23.3425C44.2946 17.8318 44.8373 13.3939 44.9386 13.3939C45.0399 13.3939 44.6709 17.8828 44.1137 23.3936C43.5566 28.9044 42.9922 33.3569 42.9126 33.3423Z" fill="#263238"/>
<path d="M76.0814 24.7585C75.9838 25.0168 75.855 25.262 75.6979 25.4885C75.4302 25.941 75.0322 26.5687 74.5185 27.3424C73.491 28.8898 72.0004 30.9919 70.2277 33.1817C68.4549 35.3714 66.74 37.2983 65.452 38.6341C64.8153 39.2983 64.2871 39.8311 63.9036 40.1888C63.718 40.383 63.5145 40.559 63.2958 40.7143C63.4349 40.4824 63.6054 40.2711 63.8023 40.0866C64.2003 39.634 64.6851 39.0939 65.2494 38.4516C66.4795 37.0721 68.1437 35.1451 69.9165 32.9481C71.6893 30.7511 73.2015 28.6927 74.258 27.1891L75.5532 25.3863C75.7028 25.1557 75.8802 24.9449 76.0814 24.7585Z" fill="#263238"/>
<path d="M86.0522 53.13C84.1889 53.8501 82.282 54.4498 80.3432 54.9256C78.4461 55.5349 76.5127 56.0225 74.5546 56.3854C76.4206 55.6641 78.3298 55.062 80.2708 54.5825C82.1662 53.9779 84.0971 53.4928 86.0522 53.13Z" fill="#263238"/>
</svg>
