<svg width="113" height="181" viewBox="0 0 113 181" fill="none" xmlns="http://www.w3.org/2000/svg">
<path d="M50.8838 61.7333C50.8838 61.7333 51.4267 55.9444 51.9757 55.9932C52.5247 56.042 52.6161 57.0668 52.549 57.567C52.4819 58.0672 52.549 60.007 52.549 60.007L50.8838 61.7333Z" fill="#FFBE9D"/>
<path d="M100.556 56.9936L97.7805 76.5136L110.59 132.475L75.2105 135.305L90.4605 45.184C90.4605 45.184 100.526 44.0433 100.556 56.9936Z" fill="#263238"/>
<path d="M57.057 155.502L55.0135 178.597H63.7425L67.5916 155.502H57.057Z" fill="#FFBE9D"/>
<path d="M55.0135 178.597C55.0135 178.597 49.1209 179.36 48.0717 180.116L63.5107 179.933L63.7425 178.597H55.0135Z" fill="#FFBE9D"/>
<path d="M48.0717 180.122V180.738L63.9682 180.567V179.902L48.0717 180.122Z" fill="#95C8C4"/>
<path d="M53.7203 180.476C53.6349 180.512 53.3848 180.037 52.8724 179.665C52.36 179.292 51.8415 179.177 51.8537 179.091C51.8659 179.006 52.4637 178.981 53.0737 179.421C53.6837 179.86 53.7752 180.458 53.7203 180.476Z" fill="#95C8C4"/>
<path d="M63.9439 178.14C63.9439 178.225 62.8824 178.438 61.6746 179.012C60.4668 179.585 59.6128 180.232 59.5518 180.189C60.0851 179.545 60.7707 179.044 61.5466 178.731C62.2817 178.332 63.1072 178.128 63.9439 178.14Z" fill="#95C8C4"/>
<path d="M63.5839 177.761C60.7184 177.824 57.852 177.68 55.0074 177.328C56.4305 177.249 57.8574 177.272 59.2774 177.395C60.7199 177.412 62.1592 177.535 63.5839 177.761Z" fill="#95C8C4"/>
<path d="M64.6087 174.724C63.057 175.167 61.4777 175.507 59.8812 175.742C58.3037 176.082 56.7064 176.322 55.0989 176.462C56.6519 176.024 58.2308 175.684 59.8264 175.443C61.4041 175.105 63.0013 174.864 64.6087 174.724Z" fill="#95C8C4"/>
<path d="M64.4562 174.833C64.0579 174.839 63.6636 174.753 63.3034 174.583C62.8994 174.424 62.5147 174.219 62.1566 173.973C61.9416 173.832 61.7377 173.675 61.5466 173.504C61.4282 173.401 61.3362 173.271 61.2782 173.125C61.2466 173.04 61.2345 172.948 61.243 172.857C61.2514 172.767 61.2801 172.679 61.3269 172.601C61.3811 172.522 61.4559 172.46 61.5431 172.421C61.6303 172.383 61.7265 172.369 61.8211 172.381C61.9684 172.402 62.112 172.443 62.248 172.503C62.4878 172.602 62.7151 172.729 62.9252 172.881C63.2836 173.134 63.5901 173.453 63.828 173.821C64.0737 174.141 64.2162 174.528 64.2366 174.931C64.1878 174.931 64.0719 174.504 63.6266 173.943C63.3818 173.617 63.0825 173.337 62.7421 173.113C62.5524 172.98 62.3476 172.869 62.1321 172.784C61.9064 172.68 61.6503 172.637 61.5832 172.784C61.5478 172.877 61.5455 172.979 61.5766 173.073C61.6077 173.168 61.6703 173.249 61.7539 173.302C61.9301 173.467 62.1154 173.622 62.3091 173.766C62.6472 173.999 63.0042 174.203 63.3766 174.376C64.0293 174.681 64.4623 174.785 64.4562 174.833Z" fill="#95C8C4"/>
<path d="M64.3769 175.059C64.1867 174.711 64.1099 174.312 64.1574 173.918C64.1762 173.499 64.267 173.087 64.4258 172.698C64.5213 172.463 64.6442 172.24 64.7918 172.033C64.87 171.92 64.9555 171.812 65.048 171.71C65.1034 171.642 65.173 171.586 65.252 171.547C65.331 171.508 65.4174 171.487 65.5055 171.484C65.5988 171.49 65.6889 171.521 65.7662 171.573C65.8436 171.626 65.9052 171.699 65.9446 171.783C66.0118 171.924 66.0413 172.079 66.0301 172.235C66.0187 172.491 65.9777 172.745 65.908 172.991C65.7826 173.406 65.5752 173.792 65.298 174.126C65.0751 174.453 64.7551 174.703 64.3831 174.839C64.3831 174.797 64.7308 174.559 65.1212 173.998C65.3468 173.67 65.5121 173.304 65.6092 172.918C65.6697 172.693 65.7025 172.462 65.7068 172.229C65.7068 171.997 65.6153 171.789 65.475 171.789C65.3347 171.789 65.1517 172.021 65.0114 172.204C64.8739 172.396 64.7554 172.6 64.6576 172.814C64.4944 173.18 64.3894 173.569 64.3465 173.967C64.3038 174.602 64.4257 175.059 64.3769 175.059Z" fill="#95C8C4"/>
<path d="M65.5482 178.646C65.1462 178.126 64.8573 177.527 64.7002 176.889C64.4477 176.266 64.3333 175.596 64.3647 174.925C64.6251 175.527 64.8293 176.152 64.9747 176.791C65.2183 177.392 65.4101 178.012 65.5482 178.646Z" fill="#95C8C4"/>
<path d="M66.5912 177.828C65.395 177.109 64.5066 175.973 64.0963 174.638C64.1817 174.595 64.6026 175.401 65.3163 176.273C66.03 177.145 66.6461 177.755 66.5912 177.828Z" fill="#95C8C4"/>
<path d="M89.637 157.393L107.522 171.57L111.774 165.348L95.7858 147.945L89.637 157.393Z" fill="#FFBE9D"/>
<path d="M106.26 171.918C106.26 171.918 103.508 177.182 103.533 178.481L112.219 165.72L111.262 164.762L106.26 171.918Z" fill="#FFBE9D"/>
<path d="M103.533 178.481L104.039 178.835L113 165.708L112.457 165.323L103.533 178.481Z" fill="#95C8C4"/>
<path d="M107.04 174.077C107.04 174.162 106.491 174.077 105.894 174.309C105.296 174.541 104.905 174.87 104.838 174.815C104.771 174.76 105.107 174.248 105.796 174.016C106.485 173.784 107.077 174.004 107.04 174.077Z" fill="#95C8C4"/>
<path d="M110.993 164.335C111.079 164.372 110.633 165.378 110.414 166.696C110.194 168.013 110.255 169.099 110.164 169.136C109.811 167.496 110.108 165.784 110.993 164.36V164.335Z" fill="#95C8C4"/>
<path d="M110.505 164C109.835 165.113 109.078 166.171 108.242 167.166C107.482 168.224 106.641 169.224 105.729 170.155C106.4 169.039 107.159 167.978 107.998 166.983C108.752 165.923 109.591 164.925 110.505 164Z" fill="#95C8C4"/>
<path d="M108.584 161.834C108.129 163.186 107.58 164.505 106.943 165.781C106.397 167.096 105.757 168.371 105.027 169.593C105.483 168.244 106.031 166.927 106.668 165.653C107.212 164.334 107.852 163.058 108.584 161.834Z" fill="#95C8C4"/>
<path d="M108.578 162.023C108.608 162.023 108.321 162.408 107.711 162.829C107.356 163.076 106.974 163.281 106.571 163.439C106.333 163.535 106.088 163.612 105.839 163.67C105.686 163.704 105.528 163.704 105.375 163.67C105.287 163.647 105.205 163.605 105.135 163.545C105.065 163.486 105.01 163.412 104.972 163.329C104.94 163.239 104.932 163.143 104.951 163.049C104.969 162.956 105.012 162.869 105.076 162.798C105.176 162.689 105.291 162.594 105.418 162.517C106.011 162.141 106.704 161.952 107.406 161.975C107.809 161.954 108.208 162.061 108.547 162.28C108.547 162.328 108.108 162.17 107.406 162.194C106.755 162.211 106.121 162.41 105.576 162.768C105.363 162.896 105.18 163.085 105.247 163.213C105.303 163.296 105.385 163.357 105.481 163.386C105.577 163.415 105.679 163.41 105.772 163.371C106.007 163.32 106.239 163.255 106.467 163.176C106.857 163.038 107.234 162.866 107.595 162.664C108.212 162.286 108.547 161.987 108.578 162.023Z" fill="#95C8C4"/>
<path d="M108.706 162.206C108.311 162.162 107.94 161.995 107.644 161.731C107.301 161.475 107.007 161.159 106.778 160.797C106.64 160.583 106.527 160.354 106.442 160.114C106.393 159.987 106.354 159.857 106.327 159.724C106.301 159.639 106.295 159.55 106.308 159.462C106.32 159.375 106.352 159.291 106.4 159.217C106.459 159.145 106.537 159.089 106.625 159.056C106.712 159.023 106.807 159.013 106.9 159.028C107.052 159.056 107.194 159.121 107.315 159.217C107.518 159.374 107.702 159.554 107.864 159.754C108.14 160.086 108.348 160.469 108.474 160.883C108.614 161.253 108.635 161.658 108.535 162.042C108.463 161.675 108.374 161.313 108.266 160.956C108.124 160.581 107.918 160.234 107.656 159.931C107.504 159.758 107.334 159.6 107.15 159.461C106.973 159.315 106.735 159.284 106.65 159.4C106.565 159.516 106.65 159.797 106.729 160.01C106.806 160.223 106.904 160.427 107.022 160.62C107.228 160.964 107.488 161.273 107.791 161.535C108.303 162.017 108.724 162.158 108.706 162.206Z" fill="#95C8C4"/>
<path d="M112.335 163.31C111.664 163.351 110.992 163.247 110.365 163.005C109.701 162.857 109.077 162.568 108.535 162.158C109.802 162.512 111.061 162.897 112.311 163.31H112.335Z" fill="#95C8C4"/>
<path d="M112.28 161.987C111.665 162.315 110.976 162.481 110.279 162.469C109.586 162.559 108.882 162.466 108.236 162.2C108.236 162.115 109.157 162.2 110.261 162.164C111.365 162.127 112.231 161.895 112.28 161.987Z" fill="#95C8C4"/>
<path d="M72.3984 87.7193C72.3984 87.7193 65.5664 133.097 66.5607 135.299C67.555 137.501 89.6736 160.145 89.6736 160.145L97.9757 145.925C97.9757 145.925 83.3357 129.706 83.5492 128.845C83.7627 127.985 94.1022 84.0654 94.1022 84.0654L72.3984 87.7193Z" fill="#95C8C4"/>
<path d="M73.9722 143.876L79.8038 131.066L86.5138 116.682C82.4319 122.585 78.9575 128.886 76.1438 135.488C75.0508 138.175 74.3205 140.996 73.9722 143.876Z" fill="#95C8C4"/>
<path opacity="0.4" d="M73.9722 143.876L79.8038 131.066L86.5138 116.682C82.4319 122.585 78.9575 128.886 76.1438 135.488C75.0508 138.175 74.3205 140.996 73.9722 143.876Z" fill="black"/>
<path d="M69.9706 104.47C70.0377 103.988 75.546 91.5988 75.546 91.5988L72.8681 87.829L72.3984 87.7253L69.9706 104.47Z" fill="#95C8C4"/>
<path opacity="0.4" d="M69.9706 104.47C70.0377 103.988 75.546 91.5988 75.546 91.5988L72.8681 87.829L72.3984 87.7253L69.9706 104.47Z" fill="black"/>
<path d="M97.9818 83.4493L98.3905 85.1329C99.6131 90.0985 98.8677 95.3444 96.3104 99.7729L77.7908 131.877C76.4759 134.157 75.5192 136.626 74.9543 139.197L70.3427 159.937C70.3427 159.937 55.782 160.431 55.1537 159.937C54.5254 159.443 57.0325 145.712 58.7039 135.311C59.9666 127.467 70.4586 103.122 75.546 91.6233L72.3984 87.7437L77.8884 86.8348L97.9818 83.4493Z" fill="#95C8C4"/>
<path d="M70.3427 159.913C70.1442 159.97 69.9393 160.003 69.7327 160.01C69.3423 160.053 68.7872 160.102 68.0918 160.145C66.7071 160.236 64.7856 160.303 62.6689 160.297C60.5522 160.291 58.6307 160.23 57.246 160.157C56.5506 160.126 55.9894 160.09 55.6051 160.059C55.399 160.064 55.1932 160.037 54.9951 159.98C55.1964 159.944 55.4011 159.932 55.6051 159.943H57.246L62.6628 159.992C64.7795 159.992 66.6889 159.962 68.0736 159.931L69.7205 159.888C69.928 159.865 70.1378 159.873 70.3427 159.913Z" fill="#263238"/>
<path d="M71.1418 156.015C71.1418 156.1 67.6404 156.155 63.3277 156.137C59.015 156.119 55.5075 156.039 55.5075 155.96C55.5075 155.881 59.0089 155.82 63.3277 155.832C67.6465 155.844 71.1418 155.929 71.1418 156.015Z" fill="#263238"/>
<path d="M95.432 142.985C95.3535 143.189 95.2489 143.382 95.1209 143.559L94.1754 145.059L91.04 149.994L87.9168 154.935L86.9591 156.43C86.8522 156.621 86.7209 156.797 86.5687 156.954C86.6394 156.74 86.7357 156.535 86.8554 156.344C87.0567 155.978 87.3556 155.448 87.7277 154.801C88.4841 153.508 89.5577 151.751 90.7777 149.805C91.9977 147.859 93.1507 146.145 93.9986 144.925C94.4256 144.315 94.7732 143.815 95.0233 143.473C95.1388 143.294 95.2761 143.13 95.432 142.985Z" fill="#263238"/>
<path d="M88.8013 158.918C88.473 158.32 88.2345 157.677 88.0937 157.009C87.8553 156.371 87.7155 155.701 87.6789 155.021C88.0066 155.617 88.2451 156.258 88.3865 156.924C88.6235 157.564 88.7633 158.237 88.8013 158.918Z" fill="#263238"/>
<path d="M90.0945 158.876C89.7656 157.834 89.5348 156.764 89.4052 155.679C89.1768 154.612 89.0502 153.525 89.027 152.434C89.5813 154.544 89.9386 156.7 90.0945 158.876Z" fill="#263238"/>
<path d="M91.7842 156.466C91.4597 155.558 91.2048 154.626 91.0217 153.679C90.7383 152.756 90.5342 151.811 90.4117 150.854C90.8265 151.73 91.1298 152.654 91.3145 153.605C91.5962 154.534 91.7542 155.496 91.7842 156.466Z" fill="#263238"/>
<path d="M93.2238 153.13C92.8935 152.262 92.6622 151.359 92.5345 150.439C92.3024 149.538 92.1715 148.613 92.1441 147.682C92.4675 148.554 92.6985 149.458 92.8334 150.378C93.0621 151.279 93.193 152.201 93.2238 153.13Z" fill="#263238"/>
<path d="M95.0843 150.366C94.8094 149.495 94.5913 148.606 94.4316 147.707C94.1675 146.829 93.9637 145.934 93.8216 145.029C94.2466 145.849 94.5448 146.73 94.7061 147.64C94.9712 148.524 95.0987 149.443 95.0843 150.366Z" fill="#263238"/>
<path d="M96.7435 148.024C96.4125 147.338 96.1785 146.609 96.0481 145.858C95.8157 145.131 95.6803 144.376 95.6455 143.614C96.2042 145.029 96.5734 146.512 96.7435 148.024Z" fill="#263238"/>
<path d="M62.7605 155.862C61.5905 156.586 60.3831 157.248 59.1432 157.845C57.9562 158.535 56.7346 159.164 55.4832 159.73C55.7833 159.454 56.1175 159.219 56.4775 159.028C57.0875 158.632 58.0086 158.113 59.0212 157.576C60.0338 157.04 60.9671 156.594 61.6503 156.289C62.0005 156.1 62.3736 155.956 62.7605 155.862Z" fill="#263238"/>
<path d="M67.25 155.929C66.8969 156.221 66.5123 156.473 66.1032 156.68C65.3712 157.101 64.3525 157.656 63.1996 158.229C62.0467 158.803 60.9792 159.272 60.1984 159.596C59.7891 159.799 59.357 159.952 58.9113 160.053C59.2922 159.79 59.7014 159.571 60.1313 159.4L63.0777 157.955L66.0178 156.491C66.4072 156.26 66.8203 156.072 67.25 155.929Z" fill="#263238"/>
<path d="M70.666 155.929C69.7962 156.809 68.8398 157.597 67.8112 158.284C66.8399 159.049 65.7959 159.717 64.6941 160.279C65.622 159.467 66.6021 158.717 67.6282 158.034C68.5972 157.271 69.6117 156.569 70.666 155.929Z" fill="#263238"/>
<path d="M71.0381 158.077C71.093 158.144 70.5257 158.687 69.7693 159.248C69.3424 159.641 68.8487 159.955 68.3114 160.175C68.6654 159.714 69.0968 159.317 69.5863 159.004C70.0126 158.613 70.5039 158.299 71.0381 158.077Z" fill="#263238"/>
<path d="M58.7772 155.789C58.2106 156.303 57.5789 156.74 56.8984 157.088C56.2665 157.524 55.5792 157.872 54.8549 158.125C56.053 157.176 57.372 156.391 58.7772 155.789Z" fill="#263238"/>
<path d="M75.1434 91.4891C74.932 92.1832 74.6731 92.8618 74.3687 93.5204C73.8685 94.7404 73.1487 96.4789 72.4289 98.4004C71.7091 100.322 71.0442 102.06 70.5989 103.28C70.375 103.968 70.106 104.641 69.7937 105.293C69.8141 105.1 69.8571 104.91 69.9218 104.726C70.0255 104.366 70.1841 103.848 70.3915 103.207C70.8063 101.932 71.4224 100.157 72.1605 98.2723C72.8986 96.3874 73.6367 94.655 74.1918 93.435C74.4724 92.825 74.7042 92.337 74.875 92.0015C74.9426 91.8201 75.0327 91.648 75.1434 91.4891Z" fill="#263238"/>
<path d="M73.6245 145.328C73.611 145.208 73.611 145.087 73.6245 144.968C73.655 144.699 73.7039 144.358 73.7527 143.943C73.8015 143.528 73.8868 142.955 74.0271 142.327C74.1674 141.698 74.2772 140.985 74.4968 140.21C74.6005 139.826 74.7104 139.417 74.8202 138.99C74.93 138.563 75.0885 138.136 75.2288 137.684C75.4972 136.782 75.8693 135.854 76.2353 134.842C77.0933 132.702 78.0667 130.611 79.1511 128.577C81.1576 124.908 83.3714 121.356 85.7818 117.939C86.6907 116.621 87.4471 115.566 87.9778 114.84L88.5878 114.01C88.6567 113.91 88.7343 113.816 88.8196 113.73C88.7735 113.842 88.7141 113.949 88.6427 114.047C88.4902 114.267 88.3072 114.553 88.0754 114.907L85.9587 118.061C84.2202 120.726 81.7802 124.429 79.4439 128.699C78.3656 130.722 77.3904 132.799 76.522 134.921C76.1499 135.909 75.7656 136.843 75.4911 137.739C75.3447 138.191 75.1922 138.618 75.0702 139.033C74.9482 139.447 74.8384 139.856 74.7347 140.253C74.5029 141.021 74.3626 141.735 74.2162 142.351C74.0698 142.967 73.9661 143.51 73.8929 143.949C73.8197 144.388 73.7588 144.699 73.71 144.962C73.6941 145.086 73.6655 145.209 73.6245 145.328Z" fill="#263238"/>
<path d="M91.7842 45.2329L77.4553 46.4529C77.4553 46.4529 73.1853 46.5505 68.5005 57.4329L65.1334 68.2299L71.1907 69.5231V70.1331L72.4107 87.7194L98.2502 83.5592C98.3051 81.3266 97.0302 78.0692 96.0969 75.0192C97.0668 72.6097 101.148 62.0933 101.142 57.0303C101.142 46.2028 91.7781 45.2695 91.7781 45.2695" fill="white"/>
<path d="M97.9757 145.913C97.9147 146.127 97.8266 146.332 97.7134 146.523C97.5243 146.895 97.2437 147.426 96.8838 148.079C96.164 149.384 95.127 151.165 93.9558 153.111L90.9302 158.071L90.0152 159.583C89.9163 159.775 89.7933 159.953 89.6492 160.114C89.7102 159.9 89.7984 159.695 89.9115 159.504C90.1006 159.132 90.3812 158.601 90.7411 157.949C91.4609 156.643 92.4979 154.862 93.6691 152.916L96.6703 147.939L97.5853 146.432C97.6943 146.244 97.8254 146.07 97.9757 145.913Z" fill="#263238"/>
<path d="M94.5902 71.0907C93.958 71.3968 93.2722 71.5771 92.5711 71.6214C91.8845 71.7584 91.1776 71.7584 90.491 71.6214C91.1602 71.448 91.8445 71.3397 92.5345 71.2981C93.2116 71.1637 93.8999 71.0943 94.5902 71.0907Z" fill="white"/>
<path d="M72.4594 70.2306L72.1666 89.3175L79.9136 45.8489C77.3394 45.3914 72.5387 47.4166 70.7331 49.9847C69.4399 51.5219 68.7324 55.0599 65.1334 65.7105L62.9252 72.939L53.9704 63.1363L47.9375 68.5897C47.9375 68.5897 58.3441 85.5904 62.6934 86.5298C68.6104 87.8108 72.4534 70.2306 72.4534 70.2306" fill="#455A64"/>
<path d="M73.6977 52.5712C73.7019 52.8215 73.6753 53.0715 73.6184 53.3154C73.5391 53.8522 73.4354 54.5354 73.3073 55.3223C73.045 57.0181 72.6973 59.3605 72.374 61.959C72.0507 64.5576 71.825 66.9183 71.6664 68.6263C71.5932 69.4315 71.5322 70.1086 71.4773 70.6454C71.4739 70.8969 71.4391 71.1469 71.3736 71.3896C71.3487 71.1402 71.3487 70.8888 71.3736 70.6393C71.3736 70.1574 71.4163 69.4681 71.4651 68.608C71.5627 66.8939 71.764 64.5271 72.0751 61.898C72.3862 59.2689 72.7827 56.9509 73.0999 55.2612C73.2646 54.4194 73.4049 53.7363 73.5086 53.2666C73.5502 53.0294 73.6135 52.7967 73.6977 52.5712Z" fill="#263238"/>
<path d="M71.6909 51.7355C71.6604 51.6501 72.8621 51.1255 74.2285 50.2959C75.5949 49.4663 76.5892 48.6123 76.6685 48.6794C75.336 50.1433 73.6167 51.2006 71.7092 51.7294L71.6909 51.7355Z" fill="white"/>
<path d="M69.2143 64.3197C68.9054 63.6133 68.6544 62.883 68.4639 62.1359C68.1774 61.4215 67.9489 60.685 67.7807 59.9338C68.5967 61.2628 69.0879 62.7654 69.2143 64.3197Z" fill="white"/>
<path d="M75.4972 57.4512C75.5817 58.3013 75.5199 59.1596 75.3142 59.9888C75.209 60.8398 74.955 61.6656 74.5639 62.4288C74.664 61.5928 74.8148 60.7637 75.0153 59.9461C75.1235 59.1052 75.2844 58.2719 75.4972 57.4512Z" fill="white"/>
<path d="M66.7803 74.0919C66.7842 74.842 66.7229 75.5911 66.5973 76.3306C66.5664 77.0834 66.4725 77.8322 66.3168 78.5693C66.1272 77.061 66.2858 75.5294 66.7803 74.0919Z" fill="white"/>
<path d="M55.3307 73.9394C54.665 73.2163 54.1174 72.3929 53.7081 71.4994C53.2087 70.6514 52.8425 69.7318 52.6223 68.7727C53.1211 69.6092 53.5731 70.4726 53.9765 71.3591C54.4733 72.1946 54.9253 73.0559 55.3307 73.9394Z" fill="white"/>
<path d="M61.8821 74.4092C61.4016 74.8669 60.8329 75.2218 60.2107 75.4523C59.6275 75.7749 58.9834 75.9723 58.3196 76.0318C58.8765 75.6875 59.4672 75.4013 60.0825 75.1778C60.6549 74.8615 61.2578 74.604 61.8821 74.4092Z" fill="white"/>
<path d="M92.9066 80.436L97.3901 133.732L110.895 132.457L98.0733 76.4954L99.641 61.4711L92.9066 80.436Z" fill="#455A64"/>
<path d="M97.3901 133.732C97.3108 133.732 96.3165 121.916 95.1758 107.325C94.0351 92.7335 93.1872 80.9056 93.2665 80.8995C93.3458 80.8934 94.3462 92.7091 95.4808 107.3C96.6154 121.891 97.4755 133.725 97.3901 133.732Z" fill="#263238"/>
<path d="M96.0908 81.6681C96.1829 81.0555 96.3745 80.462 96.6581 79.9113C96.8545 79.3246 97.1427 78.7728 97.5121 78.2765C97.2333 79.4792 96.7527 80.6259 96.0908 81.6681Z" fill="white"/>
<path d="M99.8179 89.5981C99.7447 89.653 99.0737 88.8722 98.1282 88.0365C97.5239 87.5658 96.9436 87.065 96.3897 86.5359C97.122 86.817 97.7855 87.2517 98.3356 87.8108C98.9497 88.2959 99.4547 88.9049 99.8179 89.5981Z" fill="white"/>
<path d="M98.9944 100.291C99.2389 99.6645 99.5221 99.0533 99.8423 98.4614C100.07 97.8213 100.337 97.1959 100.641 96.5887C100.625 97.2856 100.446 97.9689 100.117 98.5835C99.8824 99.2332 99.4978 99.8184 98.9944 100.291Z" fill="white"/>
<path d="M101.91 108.874C100.605 108.019 99.4188 106.993 98.3844 105.824C99.0524 106.213 99.6675 106.687 100.214 107.233C100.849 107.704 101.419 108.256 101.91 108.874Z" fill="white"/>
<path d="M104.35 114.767C104.159 113.055 104.171 111.327 104.387 109.618C104.527 110.469 104.572 111.332 104.521 112.192C104.565 113.054 104.507 113.918 104.35 114.767Z" fill="white"/>
<path d="M100.019 118.768C99.8465 118.099 99.7382 117.415 99.6959 116.725C99.5578 116.048 99.4823 115.36 99.4702 114.669C99.7852 115.297 99.9738 115.981 100.025 116.682C100.162 117.371 100.16 118.08 100.019 118.768Z" fill="white"/>
<path d="M104.491 123.868C103.196 123.88 101.907 123.688 100.672 123.301C101.32 123.243 101.972 123.288 102.606 123.435C103.252 123.481 103.888 123.627 104.491 123.868Z" fill="white"/>
<path d="M103.74 130.651C104.383 129.326 105.204 128.094 106.18 126.991C105.91 127.679 105.544 128.326 105.094 128.913C104.722 129.55 104.267 130.134 103.74 130.651Z" fill="white"/>
<path d="M73.0084 86.9019L50.3226 55.9993C51.6671 54.9639 52.9257 53.8215 54.0863 52.5833C58.9235 47.4053 61.8574 40.737 62.4066 33.6723C62.9558 26.6076 61.0877 19.566 57.1088 13.7026C53.1298 7.83921 47.2763 3.50215 40.5084 1.40288C33.7405 -0.696397 26.4601 -0.43323 19.8614 2.14921C13.2627 4.73164 7.73764 9.48001 4.19242 15.6154C0.647214 21.7508 -0.707597 28.9089 0.350236 35.9155C1.40807 42.9221 4.81574 49.3611 10.0142 54.1764C15.2128 58.9917 21.8934 61.8973 28.9604 62.4165C30.0747 62.4981 31.1927 62.5184 32.3093 62.4775C36.8507 62.3379 41.3065 61.2053 45.3633 59.1591L68.2809 90.3789C68.7442 91.0026 69.436 91.4171 70.2044 91.5314C70.9729 91.6458 71.7553 91.4507 72.3802 90.9889C73.0032 90.5286 73.4189 89.8405 73.5366 89.0749C73.6543 88.3092 73.4644 87.5281 73.0084 86.9019ZM32.1385 56.6215C31.2314 56.6513 30.3233 56.635 29.4179 56.5727C22.9313 56.1052 16.8715 53.1662 12.4882 48.362C8.10486 43.5577 5.73231 37.2546 5.85983 30.7524C5.98736 24.2503 8.60523 18.045 13.1736 13.4163C17.7419 8.78764 23.9123 6.08854 30.4122 5.87568C31.3295 5.845 32.2479 5.86333 33.1633 5.93059C39.6397 6.41455 45.6845 9.36206 50.054 14.1668C54.4236 18.9716 56.7856 25.2682 56.6544 31.7613C56.5231 38.2545 53.9085 44.4505 49.3483 49.0747C44.7881 53.6989 38.6292 56.3997 32.1385 56.6215Z" fill="#263238"/>
<path d="M63.9987 70.0964L61.3087 79.2891C61.3087 79.2891 75.3875 84.407 83.0124 84.3094C90.1555 84.224 92.199 83.4127 94.7122 77.6482C97.2254 71.8837 100.08 65.2591 100.69 61.4222C100.69 61.4222 104.722 43.8603 89.3381 45.428L88.9111 59.1591C88.9111 59.1591 87.2092 64.7894 87.0811 65.1188C85.9343 68.1688 84.4459 72.6035 83.0063 73.1403C81.5667 73.6771 63.9987 70.0964 63.9987 70.0964Z" fill="#455A64"/>
<path d="M86.0929 77.4591C84.9598 76.1273 84.0717 74.6052 83.4699 72.9634C83.9907 73.6582 84.4499 74.3971 84.8424 75.1716C85.3217 75.8982 85.74 76.6634 86.0929 77.4591Z" fill="#263238"/>
<path d="M87.5325 76.0134C86.7975 75.6343 86.1113 75.1673 85.489 74.6226C84.8127 74.1568 84.1978 73.6075 83.659 72.9878C84.3924 73.3696 85.0783 73.8364 85.7025 74.3786C86.3789 74.8444 86.9937 75.3936 87.5325 76.0134Z" fill="#263238"/>
<path d="M92.3149 50.9668C91.868 52.434 91.326 53.8705 90.6923 55.2673C90.1532 56.7026 89.5195 58.1005 88.7952 59.4519C89.2371 57.9838 89.7772 56.5471 90.4117 55.1514C90.9513 53.7153 91.5871 52.3173 92.3149 50.9668Z" fill="#263238"/>
<path d="M100.08 64.0392C100.04 64.28 99.9727 64.5154 99.8789 64.7407C99.7081 65.2409 99.4946 65.8692 99.2689 66.6073C98.7077 68.1811 97.9208 70.3527 96.9936 72.7073C96.0664 75.0619 95.1636 77.203 94.4194 78.7097C94.0595 79.4661 93.7545 80.07 93.5288 80.4787C93.4288 80.6957 93.304 80.9004 93.1567 81.0887C93.222 80.8541 93.3119 80.6271 93.4251 80.4116C93.6386 79.9297 93.9009 79.3197 94.2181 78.5816C94.8891 77.0505 95.7736 74.9216 96.7069 72.5548C97.6402 70.188 98.4393 68.0896 99.0615 66.4548C99.3665 65.6801 99.6227 65.0518 99.7996 64.6248C99.875 64.4214 99.9689 64.2254 100.08 64.0392Z" fill="#263238"/>
<path d="M77.4553 72.7377C77.4553 72.8231 74.4054 72.3351 70.6112 71.6519C66.817 70.9687 63.8036 70.3465 63.8219 70.2672C63.8402 70.1879 66.8719 70.6698 70.6661 71.353C74.4603 72.0362 77.4736 72.6584 77.4553 72.7377Z" fill="#263238"/>
<path d="M93.419 64.3564C93.234 62.707 93.2566 61.0409 93.4861 59.3971C93.6247 60.217 93.6636 61.0506 93.602 61.8798C93.6426 62.7097 93.5811 63.5414 93.419 64.3564Z" fill="white"/>
<path d="M87.9352 81.2411C88.1603 80.6022 88.4314 79.9804 88.7464 79.3806C88.9704 78.7402 89.2395 78.1165 89.5516 77.514C89.5281 78.2079 89.3488 78.8875 89.027 79.5026C88.7955 80.1555 88.4227 80.7491 87.9352 81.2411Z" fill="white"/>
<path d="M80.487 80.7654C79.6499 79.3578 78.8586 77.9235 78.1141 76.4648C78.698 77.0555 79.1785 77.7401 79.5354 78.49C79.979 79.1892 80.3008 79.9586 80.487 80.7654Z" fill="white"/>
<path d="M70.1902 76.0134C69.5724 76.4226 68.9012 76.7449 68.1955 76.9711C67.5272 77.288 66.8194 77.5137 66.0911 77.6421C66.7089 77.2329 67.3801 76.9107 68.0857 76.6844C68.7537 76.3667 69.4617 76.141 70.1902 76.0134Z" fill="white"/>
<path d="M99.0737 54.4621C99.0066 54.517 98.3295 53.8521 97.3535 53.1567C96.3776 52.4613 95.487 52.1014 95.5236 52.016C96.2536 52.1439 96.9407 52.4498 97.5243 52.9066C98.1627 53.2874 98.6954 53.8222 99.0737 54.4621Z" fill="white"/>
<path d="M94.6817 69.6267C93.1203 70.1887 91.4535 70.397 89.8017 70.2367C90.6053 70.0626 91.421 69.9504 92.2417 69.9012C93.0473 69.7505 93.8628 69.6588 94.6817 69.6267Z" fill="white"/>
<path d="M93.236 22.6019C93.6475 21.853 94.3023 21.2671 95.092 20.941C95.8818 20.6149 96.7593 20.5681 97.5792 20.8085C98.3908 21.0752 99.1264 21.533 99.724 22.1435C100.322 22.7539 100.764 23.499 101.014 24.316C101.495 25.9611 101.527 27.7053 101.105 29.3668C100.837 30.5868 100.495 31.9959 101.288 32.9353C102.081 33.8747 103.435 33.7893 104.307 34.5457C104.523 34.7348 104.697 34.9661 104.819 35.2252C104.941 35.4843 105.009 35.7658 105.018 36.0521C105.027 36.3385 104.977 36.6236 104.871 36.8899C104.765 37.1561 104.606 37.3978 104.403 37.6C104.2 37.8021 103.958 37.9604 103.691 38.0651C103.424 38.1698 103.139 38.2185 102.853 38.2084C102.566 38.1983 102.285 38.1295 102.026 38.0062C101.768 37.883 101.537 37.708 101.349 37.492C101.349 38.3399 101.813 39.1146 102.075 39.932C102.337 40.7494 102.374 41.762 101.727 42.3049C101.47 42.4902 101.169 42.6037 100.854 42.6337C100.538 42.6637 100.221 42.6092 99.9338 42.4757C99.3605 42.2038 98.8417 41.8297 98.4027 41.3716C98.7016 42.2475 98.7016 43.1979 98.4027 44.0739C98.2416 44.5059 97.9716 44.889 97.6189 45.1861C97.2663 45.4832 96.8429 45.6842 96.3897 45.7697C95.8154 45.8121 95.2415 45.682 94.7416 45.3962C94.2417 45.1104 93.8385 44.6818 93.5837 44.1654C93.0939 43.1216 92.9099 41.9605 93.053 40.8165C93.1811 39.0353 93.663 37.2907 93.8582 35.5217C94.1719 33.7486 93.9422 31.922 93.1994 30.2818" fill="#95C8C4"/>
<path d="M103.576 33.0023C103.576 33.0023 103.502 33.045 103.344 33.0023C103.23 32.9837 103.122 32.9387 103.029 32.8709C102.936 32.8031 102.86 32.7144 102.807 32.6119C102.721 32.4421 102.699 32.247 102.745 32.0622C102.791 31.8773 102.901 31.7152 103.057 31.6055C103.258 31.4525 103.506 31.3764 103.758 31.3909C104.01 31.4055 104.248 31.5097 104.43 31.6848C104.643 31.8921 104.795 32.1551 104.867 32.4439C104.939 32.7328 104.929 33.036 104.838 33.3195C104.759 33.6422 104.587 33.9348 104.344 34.1614C104.076 34.4017 103.734 34.5418 103.374 34.5578C103.006 34.5812 102.638 34.5009 102.313 34.326C101.978 34.1373 101.698 33.8639 101.502 33.5331C101.116 32.8434 100.978 32.0426 101.111 31.2639C101.337 29.6962 102.093 28.3847 102.075 27.0671C102.092 25.904 101.775 24.7606 101.16 23.7731C100.746 23.1036 100.208 22.5197 99.5739 22.0529C99.1225 21.7235 98.8358 21.6015 98.8541 21.571C98.8724 21.5405 98.9274 21.571 99.0677 21.6503C99.2669 21.736 99.4586 21.838 99.6411 21.9553C100.32 22.3982 100.9 22.9778 101.343 23.6572C102.009 24.6716 102.361 25.8597 102.356 27.0732C102.356 28.4701 101.617 29.8243 101.41 31.3065C101.288 32.0153 101.411 32.7445 101.758 33.3744C101.914 33.6581 102.147 33.8927 102.429 34.0521C102.711 34.2115 103.032 34.2894 103.356 34.2773C103.642 34.2601 103.916 34.1512 104.135 33.9666C104.355 33.7821 104.51 33.5316 104.576 33.2524C104.659 33.0118 104.674 32.7527 104.619 32.5039C104.565 32.2552 104.442 32.0266 104.265 31.8434C104.12 31.6961 103.928 31.6049 103.723 31.5859C103.517 31.5669 103.312 31.6214 103.142 31.7397C103.012 31.8256 102.916 31.9542 102.87 32.1034C102.825 32.2526 102.832 32.413 102.892 32.5571C102.935 32.6488 102.997 32.7305 103.074 32.7968C103.151 32.863 103.241 32.9123 103.338 32.9414C103.49 33.0024 103.569 32.984 103.576 33.0023Z" fill="#95C8C4"/>
<path d="M89.4602 45.7697L90.2775 27.1525L82.8843 21.5527L76.1743 24.8406C76.1743 24.8406 75.9486 33.2769 76.1743 36.9369C76.4 40.5969 80.0905 40.9873 80.0905 40.9873C80.0905 40.9873 80.0052 43.1284 79.9198 45.3854C79.8958 46.0318 80.0032 46.6763 80.2355 47.28C80.4678 47.8836 80.8201 48.4339 81.2711 48.8975C81.7222 49.3611 82.2626 49.7284 82.8597 49.9771C83.4567 50.2259 84.098 50.3509 84.7448 50.3447C85.9664 50.3287 87.1356 49.8458 88.0124 48.9951C88.8893 48.1443 89.4073 46.9903 89.4602 45.7697Z" fill="#FFBE9D"/>
<path d="M76.9002 30.9894C76.9002 31.0823 76.9278 31.1731 76.9794 31.2503C77.031 31.3275 77.1044 31.3877 77.1902 31.4233C77.276 31.4588 77.3705 31.4682 77.4616 31.45C77.5527 31.4319 77.6364 31.3872 77.7021 31.3215C77.7677 31.2558 77.8125 31.1721 77.8306 31.081C77.8487 30.9899 77.8394 30.8954 77.8039 30.8096C77.7683 30.7238 77.7081 30.6504 77.6309 30.5988C77.5537 30.5472 77.4628 30.5197 77.3699 30.5197C77.2459 30.5212 77.1273 30.5712 77.0396 30.659C76.9518 30.7467 76.9018 30.8653 76.9002 30.9894Z" fill="#263238"/>
<path d="M76.4427 30.4892C76.5037 30.5502 76.8453 30.2574 77.3516 30.233C77.8579 30.2086 78.2361 30.4465 78.2849 30.3794C78.3337 30.3123 78.2483 30.2391 78.0836 30.1232C77.8621 29.9761 77.5986 29.9055 77.3332 29.922C77.0679 29.9386 76.8151 30.0413 76.6135 30.2147C76.461 30.3306 76.4122 30.4526 76.4427 30.4892Z" fill="#263238"/>
<path d="M82.3232 30.9894C82.3232 31.0823 82.3507 31.1731 82.4023 31.2503C82.4539 31.3275 82.5273 31.3877 82.6131 31.4233C82.6989 31.4588 82.7934 31.4682 82.8845 31.45C82.9756 31.4319 83.0593 31.3872 83.125 31.3215C83.1907 31.2558 83.2354 31.1721 83.2535 31.081C83.2716 30.9899 83.2623 30.8954 83.2268 30.8096C83.1912 30.7238 83.131 30.6504 83.0538 30.5988C82.9765 30.5472 82.8857 30.5197 82.7928 30.5197C82.6683 30.5197 82.5488 30.5691 82.4607 30.6572C82.3726 30.7453 82.3232 30.8648 82.3232 30.9894Z" fill="#263238"/>
<path d="M82.0303 30.4892C82.0913 30.5502 82.439 30.2574 82.9392 30.233C83.4394 30.2086 83.8237 30.4465 83.8786 30.3794C83.9335 30.3123 83.842 30.2391 83.6712 30.1232C83.4497 29.9761 83.1862 29.9055 82.9208 29.922C82.6554 29.9386 82.4027 30.0413 82.2011 30.2147C82.0486 30.3306 81.9998 30.4526 82.0303 30.4892Z" fill="#263238"/>
<path d="M81.8778 35.2167C81.108 35.609 80.2865 35.8904 79.4378 36.0524C79.6238 36.3062 79.8892 36.4909 80.1919 36.577C80.4946 36.6632 80.8174 36.646 81.1092 36.5282C81.2485 36.4973 81.3799 36.438 81.4953 36.354C81.6106 36.27 81.7074 36.1632 81.7795 36.0401C81.8517 35.917 81.8977 35.7803 81.9146 35.6386C81.9315 35.4969 81.919 35.3533 81.8778 35.2167Z" fill="white"/>
<path d="M80.0722 40.9872C81.8119 40.9128 83.4943 40.3436 84.9217 39.3463C84.9217 39.3463 83.8237 42.0364 80.1515 41.8839L80.0722 40.9872Z" fill="#EB996E"/>
<path d="M100.922 37.675C100.46 37.6924 100.001 37.5871 99.5922 37.37C98.9894 37.0484 98.4886 36.5645 98.1465 35.9731C97.7258 35.2302 97.3648 34.4551 97.0668 33.6551C96.3836 31.9532 95.8468 30.3733 95.5174 29.2204L95.3649 28.7141C95.3649 28.5189 95.3039 28.342 95.2734 28.2139C93.2726 20.5828 86.5687 19.1615 85.2389 19.1615C83.9091 19.1615 81.3288 18.3807 77.6993 22.1505C77.155 22.7175 76.693 23.3581 76.3268 24.0537C75.5209 25.0549 74.9666 26.2346 74.7103 27.4941C74.5431 28.0896 74.5139 28.7155 74.6249 29.3241C74.692 29.3241 74.7042 28.6348 74.9848 27.5734C75.1549 26.9497 75.3921 26.3463 75.6924 25.7739C75.3752 27.1834 75.5053 28.6568 76.0645 29.989L77.3638 29.6291L82.0242 28.0431C81.5972 26.6035 82.2255 24.8101 82.5732 23.9744L82.6098 23.9439C82.8703 25.4648 83.6076 26.8635 84.715 27.9381C85.8224 29.0126 87.2428 29.7073 88.7708 29.9219L89.6309 41.9084C95.8285 40.5847 95.6821 32.2948 95.6455 30.6112C95.9261 31.5567 96.2921 32.6486 96.7496 33.7893C97.0514 34.6106 97.4314 35.4012 97.8842 36.15C98.2659 36.78 98.8236 37.2847 99.4885 37.6018C99.9394 37.8121 100.442 37.8863 100.934 37.8153C101.115 37.7988 101.288 37.7334 101.434 37.6262C101.263 37.6316 101.092 37.6479 100.922 37.675Z" fill="#95C8C4"/>
<path d="M80.2126 34.7592C79.9423 34.6965 79.6664 34.6617 79.3891 34.6555C79.261 34.6555 79.1329 34.6555 79.1085 34.5396C79.0899 34.3997 79.1133 34.2575 79.1755 34.1309L79.5233 33.0878C79.7612 32.3436 79.9686 31.6665 80.1333 31.1724C80.231 30.9116 80.2926 30.6386 80.3162 30.3611C80.1677 30.5931 80.045 30.8406 79.9503 31.0992C79.7795 31.5811 79.5538 32.2521 79.3403 32.9963L79.0109 34.0455C78.9358 34.2098 78.9186 34.3947 78.9621 34.5701C78.9812 34.6149 79.0104 34.6548 79.0474 34.6865C79.0845 34.7183 79.1283 34.741 79.1755 34.7531C79.2485 34.7617 79.3222 34.7617 79.3952 34.7531C79.6663 34.79 79.9409 34.792 80.2126 34.7592Z" fill="#263238"/>
<path d="M90.6679 34.5823C90.6064 33.9654 90.6729 33.3424 90.8631 32.7523C90.9594 32.4627 91.132 32.2044 91.3629 32.0047C91.5937 31.805 91.8741 31.6713 92.1746 31.6177C92.5295 31.6016 92.8778 31.7172 93.1526 31.9424C93.4274 32.1677 93.6092 32.4865 93.663 32.8377C93.7034 33.187 93.6392 33.5405 93.4785 33.8533C93.3178 34.166 93.0678 34.424 92.7602 34.5945C92.4471 34.7575 92.1013 34.8477 91.7485 34.8582C91.3957 34.8688 91.045 34.7995 90.7228 34.6555" fill="#FFBE9D"/>
<path d="M91.7293 34.0515C91.7293 34.0088 91.9306 34.1003 92.1868 34.021C92.3481 33.9659 92.488 33.8615 92.5865 33.7224C92.6851 33.5833 92.7373 33.4168 92.7358 33.2463C92.7505 33.1606 92.7467 33.0727 92.7246 32.9885C92.7025 32.9043 92.6627 32.8258 92.6077 32.7583C92.4941 32.6676 92.35 32.6239 92.2052 32.6364C91.9307 32.6364 91.7415 32.7339 91.7232 32.6912C91.7049 32.6485 91.8452 32.5204 92.1746 32.4228C92.279 32.3971 92.3878 32.3947 92.4932 32.4158C92.5987 32.4369 92.6981 32.481 92.7846 32.5448C92.88 32.6367 92.9523 32.7498 92.9958 32.8748C93.0393 32.9999 93.0526 33.1335 93.0347 33.2646C93.0208 33.5164 92.9243 33.7565 92.7602 33.9478C92.6226 34.1061 92.4315 34.2081 92.2234 34.2345C91.8696 34.2711 91.7049 34.0759 91.7293 34.0515Z" fill="#EB996E"/>
<path d="M92.8273 34.5517C92.8273 34.5517 93.1018 34.7408 93.1018 35.2288C93.0891 35.5137 92.9667 35.7825 92.7602 35.9791C92.6286 36.0984 92.4725 36.1875 92.3029 36.2402C92.1332 36.2928 91.9542 36.3078 91.7781 36.2841C91.6015 36.2507 91.4345 36.1787 91.289 36.0733C91.1435 35.9678 91.0231 35.8315 90.9363 35.6741C90.868 35.5472 90.8257 35.4078 90.8121 35.2643C90.7985 35.1208 90.8138 34.976 90.857 34.8384C91.0095 34.3687 91.3206 34.2284 91.3328 34.2772C91.345 34.326 91.1376 34.4907 91.0644 34.8872C91.0279 35.0753 91.0509 35.27 91.1303 35.4444C91.2096 35.6187 91.3413 35.764 91.5071 35.8599C91.6729 35.9559 91.8645 35.9978 92.0552 35.9798C92.2459 35.9618 92.4262 35.8848 92.5711 35.7595C92.7464 35.6161 92.8599 35.4108 92.8883 35.1861C92.8958 34.9729 92.8753 34.7596 92.8273 34.5517Z" fill="#263238"/>
<path d="M90.6801 32.0325C90.5444 32.1586 90.3847 32.2561 90.2104 32.3192C89.743 32.523 89.2381 32.6269 88.7281 32.6242C87.9665 32.6204 87.2172 32.4321 86.5443 32.0752C85.7329 31.6332 85.0369 31.0063 84.513 30.2452C83.6128 28.8388 83.0569 27.2401 82.8904 25.5787C82.805 24.9687 82.7623 24.4441 82.7379 24.0964C82.7067 23.9127 82.7067 23.725 82.7379 23.5413C82.8944 24.2035 83.0165 24.8733 83.1039 25.5482C83.3294 27.1557 83.8951 28.6966 84.7631 30.0683C85.2548 30.7912 85.9032 31.3938 86.6602 31.8312C87.2913 32.1748 87.9921 32.3708 88.7098 32.4046C89.3847 32.4113 90.0543 32.2849 90.6801 32.0325Z" fill="#95C8C4"/>
<path d="M94.7854 26.7864C94.6939 26.7864 94.4194 25.7311 93.7057 24.5843C92.992 23.4375 92.1502 22.7116 92.2112 22.6384C92.9503 23.0589 93.5568 23.6781 93.9619 24.4257C94.4544 25.1188 94.74 25.9374 94.7854 26.7864Z" fill="#263238"/>
<path d="M61.5831 78.3497H59.4298C57.4717 78.1606 56.3798 78.1301 55.8308 77.6116C55.0988 76.9101 56.1053 76.2269 56.1053 76.2269C56.1053 76.2269 54.6901 75.7389 54.8243 74.8788C54.9097 74.2688 55.5807 74.2261 55.5807 74.2261C55.5807 74.2261 54.3607 73.7381 54.0862 73.2135C53.7507 72.5059 54.6291 72.1277 54.6291 72.1277C52.9272 71.0785 53.0858 70.0354 53.4762 69.9317C53.8666 69.828 55.1964 70.4441 55.1964 70.4441C56.3188 70.7613 59.381 71.6946 58.2464 70.0049C57.1118 68.3152 56.88 66.595 57.1362 66.0826C57.192 65.948 57.2941 65.8379 57.4241 65.772C57.5541 65.7062 57.7033 65.689 57.8448 65.7237C57.9863 65.7583 58.1107 65.8425 58.1956 65.9609C58.2805 66.0793 58.3201 66.2242 58.3074 66.3693C58.4828 67.0344 58.7519 67.6711 59.1065 68.2603C59.3761 68.735 59.72 69.1634 60.1252 69.5291C60.6071 69.9561 61.0342 70.2977 61.4001 70.5844L63.3155 72.4144L61.5831 78.3497Z" fill="#FFBE9D"/>
<path d="M48.1815 56.8595C48.3401 56.3959 48.7244 56.0665 49.1392 56.2861C49.2217 56.3831 49.2775 56.4999 49.301 56.6251C49.3245 56.7503 49.315 56.8794 49.2734 56.9998L47.9436 61.3247L49.2002 58.2747C49.3588 57.8111 49.7797 57.5305 50.0664 57.7806C50.1378 57.881 50.1844 57.9969 50.2025 58.1189C50.2205 58.2408 50.2094 58.3653 50.1701 58.4821L49.0233 62.075L49.9566 59.8302C50.1518 59.3178 50.3775 59.1775 50.6398 59.2934C50.9021 59.4093 50.9082 59.7814 50.8472 59.9888L50.0603 62.6362C50.2311 63.1486 50.8167 64.7529 50.2494 65.6557C50.2494 65.6984 50.3104 65.8509 50.3043 65.8997L50.5727 66.2047L48.8403 67.7968C48.8403 67.7968 47.2116 63.6793 46.9005 62.441C46.709 61.7284 46.7431 60.974 46.9981 60.2816L48.1815 56.8595Z" fill="#FFBE9D"/>
</svg>
