<svg width="55" height="48" viewBox="0 0 55 48" fill="none" xmlns="http://www.w3.org/2000/svg">
<path d="M14.0622 39.6205C13.9874 39.6773 13.9037 39.7215 13.8146 39.7512C13.5689 39.8637 13.31 39.9446 13.044 39.992C12.0531 40.1919 11.0235 40.0385 10.1339 39.5586C9.39323 39.1576 8.77978 38.5571 8.36312 37.8251C7.94646 37.0932 7.74327 36.2591 7.7766 35.4175C7.80993 34.5759 8.07846 33.7605 8.5517 33.0638C9.02494 32.3671 9.68396 31.817 10.454 31.4758C11.224 31.1347 12.0743 31.0162 12.9083 31.1337C13.7423 31.2513 14.5266 31.6002 15.1724 32.1409C15.8181 32.6816 16.2994 33.3925 16.5616 34.1929C16.8238 34.9932 16.8565 35.8511 16.6559 36.6691C16.4114 37.6492 15.8353 38.5146 15.0254 39.1183C14.8112 39.2778 14.5806 39.4139 14.3374 39.5242C14.2533 39.5695 14.1628 39.602 14.0691 39.6205C14.0691 39.6205 14.4131 39.4416 14.9428 39.0082C15.6876 38.3944 16.2058 37.5493 16.4151 36.6072C16.5694 35.9215 16.5501 35.2082 16.3591 34.5319C16.1681 33.8555 15.8114 33.2375 15.3212 32.7339C14.7476 32.1348 14.0068 31.7224 13.1954 31.5505C12.3262 31.3602 11.419 31.4524 10.6059 31.8138C9.79289 32.1751 9.1165 32.7867 8.67537 33.5594C8.25863 34.2752 8.06686 35.0998 8.12499 35.9261C8.16609 36.6325 8.38342 37.3174 8.75716 37.9182C9.13089 38.5191 9.64913 39.0168 10.2646 39.3659C11.0988 39.8396 12.0673 40.0212 13.0165 39.8819C13.6976 39.7512 14.0485 39.5586 14.0622 39.6205Z" fill="#305677"/>
<path d="M14.0347 45.4476L14.1379 45.5646L14.42 45.9223L15.5482 47.3808H15.4795L19.1808 45.7022L19.1257 45.7985C18.9812 45.0693 18.8161 44.2643 18.6373 43.3975V43.3356L18.6854 43.2943C19.3659 42.7394 19.9718 42.0989 20.4879 41.3886L20.5292 41.3267H20.598L23.0265 41.6707L22.8889 41.7532C23.3499 40.5561 23.8315 39.2834 24.3406 37.9556L24.3956 38.1207L22.3317 36.7447L22.256 36.6966V36.6072C22.3489 35.7388 22.3258 34.862 22.1872 33.9997V33.9034L22.2629 33.8484L24.2236 32.3761L24.1755 32.5756C23.6595 31.4061 23.0953 30.1471 22.5243 28.8605L22.7032 28.9569L20.2953 29.4316H20.199L20.1302 29.3559C19.5845 28.6762 18.9506 28.0723 18.2451 27.5603L18.1626 27.4984V27.3952C18.2726 26.6384 18.3896 25.8059 18.5134 24.9666L18.6235 25.1524L14.8465 23.7351L15.0598 23.6732L13.6838 25.7371L13.6219 25.8266H13.5118C12.6486 25.7275 11.7757 25.7483 10.9182 25.8885L10.7462 25.8197L10.698 25.7578L10.6086 25.6339L10.4228 25.3863L10.0582 24.8909L9.32207 23.9071L9.54222 23.969L5.82715 25.6133L5.92347 25.4138C6.08858 26.2256 6.24682 27.0305 6.39818 27.8286V27.9318L6.31561 28.0006C5.63688 28.5447 5.03311 29.1763 4.51999 29.8787L4.45808 29.9682H4.35489L1.92633 29.6104L2.11208 29.5004L0.646698 33.2911L0.584772 33.0916L2.6487 34.4675L2.72438 34.5226V34.6189C2.62875 35.4844 2.64725 36.3588 2.77942 37.2194V37.3158L2.71063 37.3708L0.729252 38.7192L0.777415 38.5335C1.34844 39.8475 1.89193 41.079 2.41479 42.2554L2.26343 42.1798L4.67135 41.7119H4.74703L4.79519 41.767C5.34304 42.4531 5.97919 43.0638 6.68712 43.5832L6.74216 43.6245V43.6933C6.60457 44.5739 6.48761 45.372 6.37065 46.1218L6.30873 46.0049L10.0857 47.4909L9.99628 47.5253L11.3722 45.4958H11.4066C12.0665 45.5735 12.7321 45.5896 13.3949 45.544L13.8833 45.5027H14.0485L13.8902 45.544C13.7802 45.544 13.6219 45.5921 13.4018 45.6128C12.7341 45.6853 12.0605 45.6853 11.3929 45.6128H11.4479L10.072 47.6767V47.7248H10.01L6.21242 46.287H6.12987V46.1975C6.23306 45.4476 6.35002 44.6496 6.47385 43.769L6.52201 43.8791C5.79075 43.3578 5.13349 42.7399 4.56816 42.0422L4.69199 42.0834L2.28407 42.5719H2.18088L2.13272 42.4687L0.474704 38.7605L0.426541 38.6504L0.522857 38.5816L2.49047 37.1094L2.42855 37.2607C2.28145 36.3692 2.2583 35.4617 2.35975 34.5639L2.42855 34.7152L0.364626 33.3393L0.254547 33.2636L0.30271 33.1466L1.75434 29.349L1.80249 29.2252H1.94009L4.36864 29.576L4.20353 29.6448C4.73337 28.9141 5.35802 28.2571 6.06106 27.691L5.99915 27.863C5.83862 27.0649 5.68038 26.26 5.52444 25.4482V25.3106L5.65516 25.2556L9.37022 23.6044L9.50094 23.5494L9.5835 23.6594L10.3127 24.6433L10.6843 25.1386L10.87 25.3863L10.9594 25.5101L11.0076 25.572C10.6636 25.4275 10.9113 25.5307 10.8356 25.4963C11.7255 25.3561 12.6302 25.3352 13.5256 25.4344L13.3605 25.5101L14.7364 23.4462L14.8121 23.3292L14.9428 23.3774L18.7336 24.8428L18.8712 24.8909V25.0285C18.7473 25.8678 18.6235 26.7003 18.5134 27.464L18.4377 27.292C19.1694 27.8233 19.8265 28.4504 20.3916 29.1564L20.2265 29.0945L22.6344 28.6198H22.7651L22.8201 28.7367L24.4644 32.4587L24.5126 32.5756L24.4094 32.6513L22.4418 34.1098L22.4968 33.9653C22.6401 34.855 22.6609 35.76 22.5587 36.6553L22.4968 36.5108L24.5607 37.8868L24.6502 37.9487L24.6089 38.0588C24.0929 39.3866 23.6044 40.6525 23.1366 41.8427L23.1022 41.939H22.999L20.5705 41.5743L20.6805 41.5262C20.1517 42.2495 19.5294 42.8995 18.8299 43.4594L18.8643 43.3562C19.0294 44.223 19.1876 45.0349 19.3252 45.7641V45.8398H19.2564L15.5345 47.4565H15.4863V47.4152L14.42 45.943L14.1517 45.5577C14.1092 45.5249 14.07 45.488 14.0347 45.4476Z" fill="#305677"/>
<path d="M14.0622 39.6205L13.9384 39.6687C13.8126 39.7198 13.684 39.7635 13.5531 39.7994C13.0513 39.959 12.5233 40.0197 11.9983 39.9783C11.3894 39.9324 10.7968 39.7596 10.2586 39.4709C9.72051 39.1823 9.24877 38.7841 8.87375 38.3022C8.49874 37.8203 8.22875 37.2652 8.08117 36.6726C7.93358 36.08 7.91167 35.4632 8.01683 34.8616C8.12199 34.2601 8.3519 33.6872 8.69177 33.1799C9.03163 32.6725 9.47394 32.242 9.99022 31.9158C10.5065 31.5897 11.0853 31.3753 11.6895 31.2863C12.2936 31.1973 12.9097 31.2358 13.4981 31.3992C14.3276 31.6408 15.0688 32.119 15.6308 32.7752C16.2356 33.4626 16.6126 34.3205 16.71 35.2309C16.8073 36.1414 16.6202 37.0596 16.1743 37.8593C15.9436 38.2747 15.6514 38.6528 15.3075 38.9807C15.1344 39.1428 14.948 39.2901 14.7502 39.421L14.4475 39.6205L14.2961 39.71L14.2205 39.7512H14.186C14.2044 39.7225 14.2142 39.6891 14.2142 39.6549C14.2142 39.6208 14.2044 39.5874 14.186 39.5586L13.9797 39.4692C14.157 39.4062 14.3276 39.3255 14.4888 39.2284C15.2499 38.7693 15.8475 38.0826 16.1969 37.2652C16.5463 36.4479 16.6298 35.5414 16.4357 34.674C16.2022 33.5537 15.5331 32.572 14.5758 31.945C13.6185 31.3179 12.4513 31.0969 11.331 31.3304C10.2106 31.564 9.22898 32.233 8.60194 33.1903C7.9749 34.1477 7.75384 35.3149 7.98739 36.4352C8.16329 37.3827 8.64705 38.2456 9.36358 38.89C10.0801 39.5344 10.9894 39.9242 11.9501 39.9989C12.4745 40.034 13.0009 39.9757 13.505 39.8269C13.8558 39.7237 14.0209 39.6274 14.0278 39.6412C13.8792 39.7549 13.7115 39.8411 13.5325 39.8957C13.0244 40.0822 12.4838 40.1641 11.9433 40.1365C11.0794 40.0963 10.2456 39.8072 9.54221 39.3041C8.60562 38.6262 7.96136 37.6181 7.73972 36.4834C7.57782 35.6556 7.64578 34.7994 7.93622 34.0075C8.22665 33.2157 8.72846 32.5186 9.38717 31.9919C10.0459 31.4651 10.8363 31.1289 11.6726 31.0197C12.5089 30.9106 13.3592 31.0326 14.131 31.3726C14.9029 31.7126 15.5668 32.2575 16.0508 32.9482C16.5348 33.639 16.8203 34.4491 16.8763 35.2906C16.9323 36.1322 16.7567 36.973 16.3685 37.7218C15.9804 38.4706 15.3945 39.0987 14.6745 39.538C14.4859 39.6517 14.2851 39.744 14.076 39.8132L13.9384 39.8544L13.8696 39.7237C13.8502 39.6915 13.8399 39.6547 13.8399 39.6171C13.8399 39.5795 13.8502 39.5426 13.8696 39.5105L13.904 39.4761H13.9453L14.0209 39.4279L14.1654 39.3453L14.4475 39.1665C14.628 39.0399 14.8004 38.902 14.9635 38.7537C15.2825 38.4542 15.5519 38.1058 15.7615 37.7217C16.0581 37.1811 16.2298 36.5808 16.264 35.9651C16.2982 35.3494 16.194 34.7338 15.9591 34.1637C15.7242 33.5935 15.3645 33.0832 14.9065 32.6703C14.4484 32.2574 13.9037 31.9524 13.3123 31.7776C12.6052 31.5801 11.8582 31.5749 11.1483 31.7623C10.4384 31.9498 9.79138 32.3231 9.2739 32.844C8.82562 33.3024 8.48932 33.8582 8.29122 34.468C8.09312 35.0778 8.03858 35.7252 8.13186 36.3595C8.29672 37.4162 8.85754 38.3706 9.70044 39.0289C10.2261 39.428 10.8347 39.7039 11.4814 39.8361C12.128 39.9682 12.7961 39.9534 13.4362 39.7925C13.8765 39.6549 14.0553 39.5586 14.0622 39.6205Z" fill="#305677"/>
<path d="M14.0347 45.4476L15.5207 47.4428H15.4726L19.2633 45.7641L19.222 45.8329C19.0776 45.0899 18.9124 44.2643 18.7404 43.3768H18.8849V43.4525L18.768 43.3631C19.4601 42.8091 20.0734 42.1633 20.5911 41.4436L20.6943 41.5743L20.6186 41.6087V41.4436L23.116 41.8083L23.0128 41.8702L24.5332 37.9349L24.5676 38.0588L22.4624 36.6828L22.6206 36.5452L22.6688 36.6416H22.4624C22.555 35.7617 22.5319 34.8735 22.3936 33.9997H22.6138L22.5725 34.1029L22.3936 33.9653L24.4575 32.4449L24.4162 32.5963L22.6963 28.7161L22.8339 28.7849L20.3366 29.2802V29.0257L20.4535 29.0669L20.3022 29.2802C19.7481 28.5882 19.1023 27.9748 18.3827 27.4571L18.596 27.292L18.6441 27.4089H18.3758C18.4859 26.6453 18.6166 25.7715 18.7473 24.884L18.8368 25.0354L14.8534 23.5081L15.0323 23.4531L13.6082 25.5789L13.4224 25.3587L13.5394 25.3037L13.5875 25.5927C12.708 25.4975 11.8198 25.5183 10.9457 25.6546V25.3587L10.8287 25.6477H10.8907L10.987 25.3794H11.0282H11.1108L10.9319 25.6202L9.40463 23.5563L9.59038 23.6044L5.69644 25.3381L5.79275 25.1592L6.2881 27.6635H5.97162L6.01979 27.5465L6.27433 27.7254C5.58775 28.2806 4.97711 28.9236 4.45808 29.638L4.25857 29.3903L4.37553 29.3421L4.4168 29.6586L1.89193 29.294L2.0708 29.1908C1.5961 30.4223 1.08012 31.7844 0.550383 33.1604L0.488457 32.954L2.60742 34.3712L2.35288 34.5845L2.30471 34.4813L2.62806 34.4263C2.53886 35.3016 2.56198 36.1848 2.69686 37.0543H2.36664L2.40791 36.9511L2.67622 37.1575L0.612298 38.678L0.667337 38.4647C1.21084 39.6686 1.79561 40.9896 2.39415 42.3242L2.19464 42.221L4.67824 41.7257V42.0628L4.59567 42.0284L4.7883 41.7532C5.34551 42.4339 5.98836 43.0398 6.70088 43.5557L6.43257 43.769V43.6933L6.76968 43.6451C6.6596 44.4294 6.54265 45.2825 6.41881 46.1356L6.30186 45.943L10.2027 47.429L9.98941 47.4978C10.4228 46.8098 10.8907 46.1218 11.3654 45.4339L11.5924 45.6884H11.5511L11.4961 45.3513C12.2451 45.4276 13.0007 45.4114 13.7458 45.3032H13.9315C13.8765 45.3032 13.9315 45.5715 14.0278 45.5371H14.0897L13.7113 45.5715C13.4637 45.5715 13.2023 45.6196 12.9408 45.6265C12.4284 45.6415 11.9156 45.6185 11.4066 45.5577L11.5786 45.482L10.2027 47.546L10.0032 47.2777H10.0651V47.6148L6.28122 46.1356L6.49449 45.8811L6.54264 45.9567L6.21242 46.0187L6.58392 43.5419L6.65272 43.7139C5.89944 43.1703 5.22562 42.5242 4.65071 41.7945L4.82271 41.8564L2.35975 42.338L2.40791 42.0078L2.51111 42.0628L2.27032 42.2898C1.71077 41.0377 1.16497 39.7971 0.632936 38.5679H0.956286V38.6917L0.681089 38.506L2.70374 37.0062L2.63495 37.1713C2.48383 36.2454 2.46298 35.3029 2.57302 34.3712L2.6487 34.5363L0.584773 33.1604L0.839331 32.9678L0.880608 33.1054H0.564135L2.02953 29.3215L2.27032 29.521L2.1396 29.5967L2.08457 29.2871L4.58192 29.6586L4.42368 29.7205C4.96999 28.9446 5.62314 28.2498 6.36377 27.6566L6.30874 27.8148C6.13674 26.9686 5.9785 26.1499 5.82027 25.3381L6.12298 25.3794L6.0473 25.517L5.84091 25.29L9.55598 23.6526V23.9484L9.40463 23.9071L9.56974 23.6594C10.072 24.3474 10.5604 24.9872 11.0351 25.6339L10.9663 25.5789L11.0489 25.6133H11.0902L10.9182 25.7027L10.9801 25.8954L11.0902 25.6064H11.0214C11.9317 25.4602 12.8579 25.4417 13.7733 25.5514L13.6288 25.6202L15.0391 23.515L15.2111 23.742L15.0598 23.7833V23.5081L18.8505 24.9735L18.6785 25.1799L18.6029 25.0423L18.8643 24.9941C18.7336 25.8816 18.6166 26.6934 18.4997 27.4984L18.4446 27.3676C19.2054 27.9122 19.8863 28.5606 20.4673 29.294L20.3366 29.2458L22.8133 28.7574L22.7789 28.9981L22.655 28.9362L22.8339 28.7642C23.4187 30.0989 23.9553 31.3166 24.4782 32.4793H24.2443L24.2855 32.3486L24.4713 32.4724L22.3042 34.0548L22.3523 33.9447C22.5021 34.8544 22.5252 35.7805 22.4211 36.6966L22.373 36.5934C23.1573 37.1231 23.8177 37.5703 24.4369 37.9693L24.2787 38.0932L24.2374 37.9762H24.4369L22.9715 41.767L22.8408 41.6569L22.9371 41.6019L22.9715 41.7738L20.4879 41.4092H20.5705C20.034 42.1556 19.3974 42.8247 18.6785 43.3975V43.3218C18.878 44.3469 19.0294 45.0899 19.1601 45.7779H19.0432L19.0776 45.7091L19.1601 45.7985L15.4451 47.4428V47.3671H15.4932L15.4519 47.429L13.9865 45.4614C14.1278 45.6058 14.2588 45.7598 14.3787 45.9223L15.5139 47.3808L15.5895 47.4703H15.4726H15.4244H15.3212L15.4244 47.4221L19.1188 45.7297L19.284 45.654L19.2014 45.8191L19.1601 45.8879L19.0776 46.0462L19.0432 45.8673C18.9056 45.1793 18.7473 44.4432 18.5409 43.425V43.3768H18.5822C19.2816 42.8059 19.9017 42.1442 20.426 41.4092V41.3679H20.481L22.9577 41.7119L23.2192 41.7532L22.9921 41.8839L22.8958 41.939L22.6757 42.0697L22.7651 41.8289C23.1985 40.6868 23.6595 39.4691 24.2099 38.0313L24.3131 37.7492L24.4025 38.0313L24.4438 38.1482L24.5332 38.4303L24.2855 38.272L22.1872 36.8961H22.1322V36.8273C22.2366 35.9108 22.2088 34.984 22.0496 34.0754V34.0066L22.1047 33.9653L24.1204 32.4518L24.3956 32.2454L24.3131 32.5825L24.2787 32.7132L24.1892 33.0503L24.0448 32.7338C23.5288 31.5643 22.9853 30.3535 22.3867 29.0257L22.2354 28.6885L22.5656 28.8537L22.6963 28.9225L23.0197 29.0945L22.6619 29.1633L20.1852 29.6586H20.1026L20.0545 29.5898C19.4832 28.8779 18.8165 28.2482 18.0731 27.7185L18.0043 27.6703V27.5878C18.1213 26.7829 18.2382 25.971 18.3621 25.0836L18.424 24.6845L18.6304 25.0354L18.7061 25.1661L18.9124 25.517L18.5272 25.3725L14.7364 23.914L14.3443 23.7626L14.7433 23.6319L14.8947 23.5907L15.2937 23.4599L15.0598 23.8108L13.6838 25.916L13.6288 25.9917H13.5394C12.6603 25.89 11.7716 25.9085 10.8975 26.0467H10.8425H10.8081V25.971L10.8631 25.8266C10.8631 25.7578 10.8631 25.7784 10.8631 25.7784H10.9044L10.9663 25.9779L10.8012 26.0674H10.7599H10.7187L10.6361 26.033H10.5948L9.12255 24.0654L8.85424 23.7076L9.28767 23.8246H9.43903L9.87244 23.9415L9.46654 24.1204L5.75148 25.7715L5.33181 25.9642L5.54508 25.5514L5.61388 25.4138L5.82715 25.0079L5.91658 25.4551C6.07482 26.2738 6.23994 27.0924 6.40505 27.9387V28.035L6.32937 28.0969C5.61499 28.665 4.98291 29.3295 4.4512 30.0714L4.39616 30.1539H4.29296L1.79562 29.7893L1.32091 29.7205L1.7337 29.4797L1.85753 29.404L2.2772 29.1633L2.09833 29.6104C1.63968 30.858 1.1535 32.1216 0.639812 33.4012L0.467818 33.8552L0.316463 33.3943L0.275186 33.2567L0.123831 32.7889L0.529744 33.0641L2.62806 34.44L2.7175 34.5019V34.6051C2.61088 35.5048 2.63172 36.415 2.77942 37.3089V37.4121L2.68999 37.474L0.667337 38.9807L0.26831 39.2765L0.392141 38.7949L0.426542 38.6711L0.557259 38.1826L0.756767 38.6436C1.30027 39.8682 1.84377 41.1065 2.40103 42.3586L2.60055 42.8196L2.15337 42.5857L2.05016 42.5306L1.60298 42.2967L2.09833 42.2004L4.56128 41.7188H4.66447L4.73328 41.8014C5.29312 42.5033 5.94579 43.1259 6.67336 43.652L6.75592 43.7139V43.824L6.38441 46.3007L6.30874 46.8029L6.05419 46.3626L6.0129 46.287L5.75148 45.8398L6.22618 46.0324L10.0169 47.5047L10.4847 47.6904L10.0032 47.8418H9.93437L9.4459 48L9.73485 47.5735C10.1958 46.8855 10.6567 46.1975 11.1108 45.5096L11.1727 45.4201H11.2759C11.7692 45.4754 12.2658 45.4961 12.762 45.482C13.0096 45.482 13.2573 45.482 13.505 45.4339L13.8971 45.3926H13.9934C14.0553 45.3926 14.1448 45.6403 14.0897 45.6334L14.0072 45.6815C13.952 45.7133 13.8913 45.7344 13.8283 45.7435H13.6357C12.8609 45.8564 12.0749 45.8702 11.2966 45.7847L10.6086 45.7228L11.2002 45.4476H11.2415L11.8125 45.1793L11.4686 45.7091L10.0926 47.773L10.0169 47.8968L9.87933 47.8418L5.98539 46.3626L5.85467 46.3145V46.17C5.97162 45.3169 6.09547 44.4638 6.20554 43.6795L6.29497 43.0466L6.54953 43.6383V43.7139L6.7972 44.2987L6.2881 43.9272C5.54782 43.3938 4.88155 42.7645 4.30672 42.0559L3.9077 41.5606L4.50624 41.7807H4.59567L5.18733 41.994L4.56816 42.1178L2.08457 42.6132H1.94697L1.89193 42.4825L0.171994 38.6298L0.116955 38.4991L0.227033 38.4165L2.29096 36.8961L2.7863 36.5246L2.55238 37.1025L2.51111 37.2057L2.2772 37.7767L2.18088 37.1644C2.0322 36.2546 2.00905 35.3286 2.11208 34.4125L2.17401 33.7933L2.43543 34.3575L2.48359 34.4607L2.74502 35.0179L2.23592 34.6739L0.116955 33.2567L0 33.181L0.0550393 33.0572L1.58235 29.0876L1.6305 28.9637H1.76122L4.28609 29.3284L4.87774 29.4178L4.32736 29.6448L4.21041 29.6999L3.66691 29.9269L4.0109 29.4453C4.54882 28.7086 5.18015 28.0449 5.88907 27.4708L6.35001 27.1062L6.14362 27.6566L6.23306 27.863L6.03355 28.4134L5.91658 27.8423C5.74459 26.9686 5.57948 26.1018 5.42813 25.3312V25.2074L5.54508 25.1524L9.4459 23.4324L9.55598 23.3774L9.63166 23.4806L11.159 25.5445L11.4892 25.9848L10.9732 25.7784H10.8907H10.8494L10.9457 25.5101H11.0282L10.9594 25.6959L10.9182 25.7784L10.5123 25.6133L10.9319 25.4895C11.8308 25.3461 12.745 25.3253 13.6494 25.4275L14.1861 25.4895L13.6976 25.7165L13.5738 25.7647L13.0853 25.9986L13.388 25.5445L14.8121 23.4255L14.8809 23.3292L14.991 23.3705L18.9606 24.9116L19.0707 24.9528V25.0629C18.94 25.9504 18.8161 26.8241 18.6992 27.5878L18.6235 28.0831L18.4309 27.6222L18.3827 27.5052L18.197 27.0512L18.596 27.3401C19.3284 27.8783 19.9875 28.5097 20.5567 29.2183L20.8594 29.5967L20.4054 29.4316L20.2953 29.3903L19.8412 29.2183L20.3159 29.1289L22.7445 28.551H22.8477L22.8889 28.6404C23.4875 30.0163 24.0723 31.3304 24.602 32.5275V32.6169L24.5263 32.6788L22.4624 34.1855L22.1253 34.44L22.2835 34.0479L22.3248 33.9447L22.483 33.5594L22.545 33.9722C22.6859 34.8691 22.7044 35.781 22.6 36.6828L22.5587 37.075L22.3936 36.7172L22.3455 36.6209L22.1803 36.2563L22.5106 36.4833L24.6089 37.9005L24.6777 37.9487V38.0244L23.1435 41.9458V42.0215H23.0678L20.543 41.6225L20.2402 41.5743L20.5223 41.4574L20.598 41.423L20.8801 41.306L20.7012 41.5537C20.1695 42.2811 19.5424 42.9336 18.8368 43.4938L18.6235 43.6589L18.7129 43.4043V43.3356L18.8093 43.081L18.8574 43.3493C19.0294 44.2368 19.1808 45.0692 19.3252 45.8123V45.8604H19.2771L15.4726 47.4978L14.3924 45.9843L14.1241 45.5921L14.0347 45.4476Z" fill="#305677"/>
<path d="M10.4572 15.679C9.86805 15.7752 9.26837 15.7891 8.67537 15.7203L7.75349 17.0963L5.2011 16.1125L5.44189 14.4751C4.96449 14.1233 4.53642 13.7092 4.16913 13.2436L2.54551 13.567L1.41723 11.0627L2.74502 10.0789C2.64899 9.48973 2.6351 8.89007 2.70374 8.29707L1.32779 7.37518L2.3116 4.82279L3.94897 5.06358C4.29787 4.58399 4.70978 4.15358 5.17358 3.78395L4.85711 2.14657L7.35446 1.03205L8.34515 2.35296C8.93465 2.26032 9.53384 2.24645 10.127 2.31168L11.0489 0.93573L13.6013 1.91954L13.3605 3.55692C13.8451 3.90728 14.2802 4.32152 14.6539 4.78839L16.2775 4.47192L17.3851 6.97615L16.0642 7.95996C16.1535 8.55207 16.1674 9.1531 16.1055 9.7487L17.4815 10.6706L16.4977 13.223L14.8603 12.9822C14.5081 13.4653 14.0941 13.9001 13.6288 14.2756L13.9521 15.8923L11.4479 17.0068L10.4572 15.679ZM10.4572 11.7507C10.9864 11.515 11.4338 11.1278 11.743 10.638C12.0523 10.1481 12.2094 9.57764 12.1946 8.99855C12.1798 8.41947 11.9937 7.85776 11.6598 7.38437C11.326 6.91098 10.8593 6.54715 10.3188 6.33882C9.77828 6.13049 9.18816 6.087 8.62295 6.21386C8.05774 6.34071 7.54279 6.63222 7.14316 7.05155C6.74352 7.47089 6.4771 7.99926 6.37757 8.56992C6.27804 9.14057 6.34984 9.72793 6.58392 10.2578C6.73891 10.6137 6.96323 10.9352 7.24378 11.2035C7.52432 11.4718 7.85548 11.6815 8.21795 11.8205C8.58041 11.9595 8.96693 12.0249 9.35493 12.0129C9.74294 12.0009 10.1247 11.9118 10.4779 11.7507H10.4572Z" fill="#305677"/>
<path d="M10.4779 11.7507C10.264 11.8697 10.0313 11.9512 9.78988 11.9915C9.12843 12.1199 8.44292 12.0154 7.8498 11.6957C7.43776 11.4743 7.0841 11.1583 6.81783 10.7738C6.51036 10.3328 6.32737 9.81705 6.28809 9.28086C6.26086 8.99048 6.28178 8.69759 6.35 8.41402C6.41102 8.1184 6.52027 7.83484 6.67335 7.57469C6.98806 7.01378 7.47548 6.56948 8.06306 6.30792C8.65063 6.04636 9.30696 5.98153 9.93436 6.12306C10.2315 6.18964 10.5169 6.30099 10.7806 6.45328C11.0354 6.59394 11.2674 6.77257 11.4685 6.98303C11.836 7.36713 12.0948 7.84199 12.2184 8.35898C12.3452 8.91532 12.3094 9.49635 12.1155 10.033C11.9216 10.5696 11.5776 11.0393 11.1246 11.3861C10.9312 11.5344 10.7151 11.6506 10.4847 11.7301C10.6811 11.6168 10.8696 11.4904 11.0489 11.3517C11.5567 10.9417 11.9107 10.3718 12.0533 9.73493C12.1566 9.30068 12.1566 8.84827 12.0533 8.41402C11.935 7.91554 11.6829 7.45881 11.3241 7.0931C11.1361 6.89285 10.9179 6.72338 10.6774 6.59088C10.4294 6.44772 10.1599 6.3455 9.87932 6.28817C9.28598 6.15792 8.6665 6.22125 8.1118 6.46889C7.55709 6.71653 7.09636 7.13543 6.79719 7.66412C6.64944 7.90817 6.54472 8.17579 6.4876 8.4553C6.42383 8.72321 6.40064 8.99919 6.4188 9.27399C6.44691 9.75287 6.5961 10.2168 6.85239 10.6223C7.10868 11.0278 7.4637 11.3616 7.88419 11.5925C8.45447 11.9131 9.11547 12.0341 9.76237 11.9365C10.0049 11.8911 10.2439 11.8291 10.4779 11.7507Z" fill="#305677"/>
<path d="M10.4572 15.679C10.4572 15.679 10.4572 15.679 10.526 15.7547L10.7187 16.0023C10.8907 16.2363 11.1452 16.5596 11.4686 16.9862H11.4342L13.9315 15.8647V15.9129C13.8352 15.4176 13.7251 14.8741 13.6082 14.2893C14.066 13.9149 14.4731 13.4825 14.819 13.0028H14.8534L16.4908 13.2367L16.422 13.2711L17.4195 10.6637V10.7462L16.0436 9.82432V9.78304C16.1059 9.19415 16.0897 8.59958 15.9954 8.01495V7.91175H16.0298L17.3576 6.92106V7.0105L16.25 4.51315L16.3325 4.56131L14.7158 4.87777H14.6676V4.8365C14.2976 4.37704 13.8672 3.96974 13.388 3.62566V3.57063C13.4637 3.06152 13.5394 2.50426 13.6219 1.94012L13.677 2.02956L11.0489 1.03199H11.1452L10.2233 2.40794V2.44922H10.1752C9.58889 2.38427 8.99655 2.39816 8.41395 2.4905C8.37955 2.4905 8.49651 2.4905 8.3314 2.4905L8.297 2.44922L8.23508 2.36667L8.11124 2.19467L7.86357 1.86444L7.37511 1.17647H7.47143L4.97407 2.28411L5.02224 2.19467C5.12543 2.73817 5.2355 3.28167 5.3387 3.81142V3.85957H5.29742C4.8369 4.22798 4.4274 4.65598 4.0797 5.13233V5.1736H4.03155L2.39416 4.93281L2.48361 4.88466L1.41724 7.40265V7.30633L2.79319 8.2351V8.28326C2.72521 8.8692 2.73679 9.46164 2.82759 10.0445V10.0926L1.49979 11.0833V10.9939C1.88506 11.8745 2.24969 12.7069 2.60056 13.4981L2.53176 13.4637L4.15538 13.1472C4.52381 13.6121 4.95438 14.0242 5.43502 14.3718C5.34558 14.9704 5.26991 15.507 5.19423 16.0092L5.15983 15.9542L7.70534 16.9517H7.66406L8.59282 15.5758C9.03898 15.6186 9.48822 15.6186 9.93438 15.5758H10.2646H10.3678H10.2646C10.1889 15.5758 10.0789 15.6102 9.93438 15.624C9.47699 15.672 9.01583 15.672 8.55843 15.624C8.30388 15.9955 8.00805 16.4495 7.64342 16.9999H7.60902L5.18734 16.1675H5.14607V16.1262C5.22175 15.6171 5.29742 15.0805 5.37998 14.4888V14.5438C4.89189 14.1901 4.45241 13.7737 4.07283 13.3055H4.13474L2.51112 13.6288H2.46297V13.5807L1.34844 11.0833V11.0283H1.38973C1.82315 10.7118 2.26345 10.3816 2.71751 10.0376L2.68311 10.1133C2.59034 9.51685 2.57647 8.91082 2.64184 8.31078V8.37957L1.26589 7.45768H1.21085V7.40265C1.53419 6.5702 1.85755 5.71711 2.19466 4.85026V4.78834H2.26345L3.89396 5.02913L3.81828 5.06353C4.1731 4.57211 4.59187 4.13021 5.06351 3.7495V3.83205C4.95344 3.29543 4.85024 2.75881 4.74016 2.20843V2.14652H4.80208L7.30631 1.03199H7.36135L7.40263 1.08015L7.89797 1.76813L8.14564 2.10523L8.26948 2.27035L8.3314 2.35291V2.39419H8.24883C8.8476 2.30184 9.45586 2.28796 10.0582 2.35291H9.97566L10.8975 0.976954V0.915039H10.9595L13.5119 1.89884H13.5738V1.96076L13.333 3.59815V3.52247C13.8248 3.87432 14.2648 4.29349 14.6401 4.7677L14.5645 4.7333L16.1881 4.41683H16.25V4.47875C16.6353 5.3456 17.0136 6.19181 17.3576 6.9761V7.03114L17.3095 7.07242L15.9817 8.05622V7.98743C16.0738 8.5839 16.0877 9.18986 16.023 9.78993V9.72112L17.3989 10.6499H17.4402V10.6981C17.0893 11.5924 16.7522 12.4455 16.4495 13.2504V13.2917H16.4013L14.7709 13.0509H14.819C14.4656 13.5352 14.0491 13.9702 13.5806 14.3443V14.2962C13.6976 14.8809 13.8008 15.4313 13.8971 15.9198L11.3929 17.0137L10.7049 16.0299L10.5192 15.7684L10.4572 15.679Z" fill="#305677"/>
<path fill-rule="evenodd" clip-rule="evenodd" d="M41.4023 28.4478C40.2646 28.629 39.1076 28.6568 37.9625 28.5304L36.1806 31.1859L31.2478 29.2871L31.7088 26.1224C30.7757 25.4444 29.936 24.6463 29.2114 23.7489L26.0811 24.3681L23.9346 19.5523L26.4939 17.6466C26.3161 16.5085 26.2883 15.352 26.4113 14.2067L23.7558 12.4248L25.6615 7.49205L28.8193 7.953C29.4998 7.0198 30.3002 6.18016 31.1997 5.45565L30.5805 2.32536L35.3963 0.178875L37.3089 2.74502C38.4463 2.56089 39.6033 2.53081 40.7488 2.65559L42.5306 0L47.4634 1.90569L47.0025 5.0635C47.9372 5.74226 48.777 6.5428 49.4998 7.4439L52.637 6.82472L54.7766 11.6405L52.2173 13.5531C52.3987 14.6909 52.4264 15.8478 52.2999 16.993L54.9555 18.768L53.0566 23.7008L49.892 23.2398C49.2131 24.1724 48.4125 25.01 47.5116 25.7303L48.1307 28.8675L43.3149 31.0071L41.4092 28.4478H41.4023ZM41.4368 20.8801C42.4611 20.4247 43.3274 19.6759 43.9262 18.7283C44.5251 17.7807 44.8295 16.6768 44.8011 15.5562C44.7727 14.4356 44.4127 13.3486 43.7666 12.4326C43.1206 11.5165 42.2174 10.8126 41.1713 10.4097C40.1253 10.0069 38.9832 9.92317 37.8896 10.1692C36.796 10.4153 35.7998 10.9801 35.0271 11.7922C34.2544 12.6043 33.7398 13.6272 33.5484 14.7317C33.357 15.8362 33.4973 16.9727 33.9516 17.9974C34.2547 18.6772 34.6888 19.2906 35.2292 19.8024C35.7696 20.3143 36.4055 20.7146 37.1007 20.9804C37.796 21.2462 38.5368 21.3724 39.2808 21.3516C40.0248 21.3308 40.7574 21.1636 41.4368 20.8594V20.8801Z" fill="#305677"/>
<g opacity="0.4">
<path opacity="0.4" d="M10.4572 15.679C9.86805 15.7752 9.26837 15.7891 8.67537 15.7203L7.75349 17.0962L5.2011 16.1124L5.44189 14.475C4.96449 14.1233 4.53642 13.7091 4.16913 13.2436L2.54551 13.5669L1.41723 11.0627L2.74502 10.0789C2.64899 9.48967 2.6351 8.89001 2.70374 8.29701L1.32779 7.37512L2.3116 4.82273L3.94897 5.06352C4.29787 4.58393 4.70978 4.15351 5.17358 3.78389L4.85711 2.14651L7.35446 1.03199L8.34515 2.3529C8.93465 2.26026 9.53384 2.24638 10.127 2.31162L11.0489 0.935669L13.6013 1.91947L13.3605 3.55685C13.8451 3.90722 14.2802 4.32146 14.6539 4.78833L16.2775 4.47186L17.3851 6.97609L16.0642 7.9599C16.1535 8.55201 16.1674 9.15304 16.1055 9.74863L17.4815 10.6705L16.4977 13.2229L14.8603 12.9821C14.5081 13.4652 14.0941 13.9001 13.6288 14.2755L13.9521 15.8923L11.4479 17.0068L10.4572 15.679ZM10.4572 11.7506C10.9864 11.515 11.4338 11.1277 11.743 10.6379C12.0523 10.1481 12.2094 9.57757 12.1946 8.99849C12.1798 8.41941 11.9937 7.8577 11.6598 7.38431C11.326 6.91092 10.8593 6.54709 10.3188 6.33876C9.77828 6.13043 9.18816 6.08694 8.62295 6.21379C8.05774 6.34065 7.54279 6.63215 7.14316 7.05149C6.74352 7.47083 6.4771 7.9992 6.37757 8.56986C6.27804 9.14051 6.34984 9.72787 6.58392 10.2577C6.73891 10.6136 6.96323 10.9351 7.24378 11.2034C7.52432 11.4717 7.85548 11.6815 8.21795 11.8204C8.58041 11.9594 8.96693 12.0248 9.35493 12.0128C9.74294 12.0008 10.1247 11.9117 10.4779 11.7506H10.4572Z" fill="white"/>
<path opacity="0.4" d="M10.4779 11.7506C10.264 11.8697 10.0313 11.9511 9.78991 11.9914C9.12846 12.1199 8.44295 12.0153 7.84983 11.6956C7.43779 11.4742 7.08413 11.1583 6.81786 10.7737C6.51039 10.3327 6.3274 9.81699 6.28812 9.2808C6.26089 8.99042 6.28181 8.69753 6.35003 8.41396C6.41105 8.11834 6.5203 7.83478 6.67338 7.57463C6.98809 7.01372 7.47551 6.56942 8.06309 6.30786C8.65066 6.0463 9.30699 5.98147 9.93439 6.123C10.2316 6.18958 10.5169 6.30092 10.7806 6.45322C11.0355 6.59388 11.2675 6.7725 11.4686 6.98297C11.836 7.36707 12.0948 7.84192 12.2185 8.35892C12.3452 8.91526 12.3095 9.49629 12.1156 10.0329C11.9216 10.5695 11.5777 11.0392 11.1246 11.386C10.9312 11.5344 10.7152 11.6505 10.4848 11.73C10.6812 11.6168 10.8696 11.4904 11.0489 11.3516C11.5567 10.9416 11.9107 10.3718 12.0534 9.73487C12.1566 9.30062 12.1566 8.84821 12.0534 8.41396C11.9351 7.91547 11.6829 7.45874 11.3241 7.09304C11.1362 6.89279 10.9179 6.72332 10.6774 6.59082C10.4294 6.44766 10.1599 6.34544 9.87935 6.28811C9.28601 6.15786 8.66653 6.22119 8.11183 6.46883C7.55712 6.71646 7.09639 7.13536 6.79722 7.66406C6.64947 7.90811 6.54475 8.17573 6.48763 8.45523C6.42386 8.72315 6.40067 8.99913 6.41883 9.27393C6.44695 9.75281 6.59613 10.2167 6.85242 10.6222C7.10871 11.0277 7.46373 11.3615 7.88422 11.5924C8.4545 11.913 9.1155 12.0341 9.7624 11.9364C10.0049 11.8911 10.244 11.829 10.4779 11.7506Z" fill="white"/>
<path opacity="0.4" d="M10.4572 15.679C10.4572 15.679 10.4572 15.679 10.526 15.7547L10.7187 16.0023C10.8907 16.2363 11.1452 16.5596 11.4686 16.9862H11.4342L13.9315 15.8647V15.9129C13.8352 15.4176 13.7251 14.8741 13.6082 14.2893C14.066 13.9149 14.4731 13.4825 14.819 13.0028H14.8534L16.4908 13.2367L16.422 13.2711L17.4195 10.6637V10.7462L16.0436 9.82432V9.78304C16.1059 9.19415 16.0897 8.59958 15.9954 8.01495V7.91175H16.0298L17.3576 6.92106V7.0105L16.25 4.51315L16.3325 4.56131L14.7158 4.87777H14.6676V4.8365C14.2976 4.37704 13.8672 3.96974 13.388 3.62566V3.57063C13.4637 3.06152 13.5394 2.50426 13.6219 1.94012L13.677 2.02956L11.0489 1.03199H11.1452L10.2233 2.40794V2.44922H10.1752C9.58889 2.38427 8.99655 2.39816 8.41395 2.4905C8.37955 2.4905 8.49651 2.4905 8.3314 2.4905L8.297 2.44922L8.23508 2.36667L8.11124 2.19467L7.86357 1.86444L7.37511 1.17647H7.47143L4.97407 2.28411L5.02224 2.19467C5.12543 2.73817 5.2355 3.28167 5.3387 3.81142V3.85957H5.29742C4.8369 4.22798 4.4274 4.65598 4.0797 5.13233V5.1736H4.03155L2.39416 4.93281L2.48361 4.88466L1.41724 7.40265V7.30633L2.79319 8.2351V8.28326C2.72521 8.8692 2.73679 9.46164 2.82759 10.0445V10.0926L1.49979 11.0833V10.9939C1.88506 11.8745 2.24969 12.7069 2.60056 13.4981L2.53176 13.4637L4.15538 13.1472C4.52381 13.6121 4.95438 14.0242 5.43502 14.3718C5.34558 14.9704 5.26991 15.507 5.19423 16.0092L5.15983 15.9542L7.70534 16.9517H7.66406L8.59282 15.5758C9.03898 15.6186 9.48822 15.6186 9.93438 15.5758H10.2646H10.3678H10.2646C10.1889 15.5758 10.0789 15.6102 9.93438 15.624C9.47699 15.672 9.01583 15.672 8.55843 15.624C8.30388 15.9955 8.00805 16.4495 7.64342 16.9999H7.60902L5.18734 16.1675H5.14607V16.1262C5.22175 15.6171 5.29742 15.0805 5.37998 14.4888V14.5438C4.89189 14.1901 4.45241 13.7737 4.07283 13.3055H4.13474L2.51112 13.6288H2.46297V13.5807L1.34844 11.0833V11.0283H1.38973C1.82315 10.7118 2.26345 10.3816 2.71751 10.0376L2.68311 10.1133C2.59034 9.51685 2.57647 8.91082 2.64184 8.31078V8.37957L1.26589 7.45768H1.21085V7.40265C1.53419 6.5702 1.85755 5.71711 2.19466 4.85026V4.78834H2.26345L3.89396 5.02913L3.81828 5.06353C4.1731 4.57211 4.59187 4.13021 5.06351 3.7495V3.83205C4.95344 3.29543 4.85024 2.75881 4.74016 2.20843V2.14652H4.80208L7.30631 1.03199H7.36135L7.40263 1.08015L7.89797 1.76813L8.14564 2.10523L8.26948 2.27035L8.3314 2.35291V2.39419H8.24883C8.8476 2.30184 9.45586 2.28796 10.0582 2.35291H9.97566L10.8975 0.976954V0.915039H10.9595L13.5119 1.89884H13.5738V1.96076L13.333 3.59815V3.52247C13.8248 3.87432 14.2648 4.29349 14.6401 4.7677L14.5645 4.7333L16.1881 4.41683H16.25V4.47875C16.6353 5.3456 17.0136 6.19181 17.3576 6.9761V7.03114L17.3095 7.07242L15.9817 8.05622V7.98743C16.0738 8.5839 16.0877 9.18986 16.023 9.78993V9.72112L17.3989 10.6499H17.4402V10.6981C17.0893 11.5924 16.7522 12.4455 16.4495 13.2504V13.2917H16.4013L14.7709 13.0509H14.819C14.4656 13.5352 14.0491 13.9702 13.5806 14.3443V14.2962C13.6976 14.8809 13.8008 15.4313 13.8971 15.9198L11.3929 17.0137L10.7049 16.0299L10.5192 15.7684L10.4572 15.679Z" fill="white"/>
</g>
</svg>
