<svg width="140" height="157" viewBox="0 0 140 157" fill="none" xmlns="http://www.w3.org/2000/svg">
<path d="M79.3086 125.691L79.917 124.876C80.3487 124.36 80.9571 123.585 81.7422 122.531C84.0237 119.467 85.9961 116.178 87.63 112.715C88.8044 110.218 89.7886 107.633 90.5739 104.984C91.4178 102.083 92.0851 98.8439 92.929 95.406C94.5776 88.4905 96.4617 80.641 98.5224 71.9569C100.583 63.2728 102.899 53.7541 105.333 43.5597C105.893 40.927 106.614 38.332 107.491 35.7897C108.455 33.1811 109.665 30.6723 111.103 28.2979C112.608 25.8571 114.357 23.5797 116.323 21.5016C117.319 20.4411 118.374 19.4392 119.483 18.5009H119.581C119.993 20.1304 119.581 18.9381 119.738 19.2958H119.483L118.953 19.1567L117.893 18.8984L115.774 18.3817L80.2113 9.59823L61.39 4.92828L51.7733 2.54363L46.9061 1.3513H46.6117H46.4547C46.3566 1.3513 46.965 1.3513 46.6706 1.3513L46.1015 1.5699L44.9435 2.02695C44.2173 2.40452 43.4323 2.70261 42.7258 3.11992C36.8892 6.23175 32.1912 11.1558 29.3212 17.1695C27.9599 20.1293 26.9836 23.2555 26.4165 26.4697C25.6904 29.6492 24.9643 32.8089 24.2577 35.9486C21.3923 48.4681 18.6447 60.5503 16.0148 72.0761L14.0522 80.6013C12.021 88.6993 8.44031 96.315 3.51307 103.017C2.72803 104.07 1.92334 105.004 1.09905 106.077L0.785027 106.455L0.628046 106.654C0.2159 105.282 0.628072 106.276 0.471064 105.978H0.647691L1.57011 106.216L3.39531 106.674L10.5391 108.462L24.0026 111.84L64.5499 122.055L75.5796 124.896L78.4254 125.651L79.4067 125.949L78.4058 125.751L75.5208 125.095L64.4713 122.452L23.826 112.516L10.3625 109.217L3.19904 107.449L1.37384 107.011L0.451419 106.773H0.274792C0.157037 106.475 0.431771 107.449 0 106.077L0.157041 105.898L0.451419 105.521C1.27571 104.547 2.06073 103.534 2.82614 102.48C5.99359 98.1384 8.59888 93.4034 10.5784 88.3912C12.5415 83.0121 14.0515 77.4745 15.0924 71.8377C17.7026 60.3119 20.4503 48.2296 23.2764 35.6903C24.0026 32.5505 24.7091 29.3908 25.4352 26.2113C26.0126 22.9284 27.0088 19.7354 28.3988 16.7124C31.2697 10.3784 36.0897 5.15642 42.137 1.82823C42.8828 1.39104 43.6874 1.0731 44.4528 0.715397L45.65 0.238456L46.2388 0H46.5921H46.7491H47.0631L51.9107 1.2122L61.5274 3.81544L80.3487 8.48539L115.891 17.3285L118.011 17.865L119.071 18.1234L119.601 18.2625H119.856C119.954 18.64 119.738 17.4477 120.091 19.0971H119.993C118.914 20.0311 117.874 21.0843 116.892 22.0382C113.093 26.0263 110.14 30.7605 108.218 35.9486C107.352 38.4527 106.638 41.0077 106.078 43.5994L99.1505 71.9768L93.4196 95.3861C92.5365 98.824 91.8299 102.043 90.9468 104.965C90.1366 107.629 89.1262 110.226 87.9244 112.734C86.2628 116.198 84.2361 119.47 81.8796 122.492C81.0852 123.608 80.2267 124.677 79.3086 125.691Z" fill="#5F6770"/>
<path d="M90.8008 41.0067C90.08 41.0001 89.3638 40.8839 88.6736 40.6614C87.3252 40.377 85.3689 39.9302 82.9759 39.3614C78.1708 38.2036 71.5804 36.538 64.2493 34.5474C56.9182 32.5567 50.3849 30.4849 45.6558 29.063C43.2817 28.3114 41.3824 27.6614 40.072 27.1943C39.3754 27.0133 38.7047 26.7332 38.0777 26.3615C38.793 26.4322 39.4995 26.5819 40.1859 26.8083L45.8837 28.3521L64.5152 33.5114L83.1848 38.6302L88.8825 40.2755C89.5433 40.4494 90.1861 40.6944 90.8008 41.0067Z" fill="#5F6770"/>
<path d="M90.8008 49.794C90.0409 49.7609 89.2868 49.6452 88.5514 49.4487C87.1054 49.1643 85.0569 48.7174 82.5263 48.1283C77.4451 46.9705 70.4761 45.3049 62.7036 43.3143C54.9312 41.3237 48.0626 39.2518 43.0617 37.8502C40.5512 37.0784 38.5429 36.4487 37.1571 35.9815C36.4587 35.7816 35.7849 35.5022 35.1487 35.1487C35.9055 35.2042 36.6535 35.3473 37.378 35.5752L43.4031 37.119L63.1053 42.2987L82.7673 47.4174L88.7924 49.0424C89.4871 49.2177 90.1606 49.4697 90.8008 49.794Z" fill="#5F6770"/>
<path d="M87.8717 55.652C87.1522 55.648 86.4366 55.5604 85.7446 55.3917C84.3771 55.1638 82.4399 54.7896 80.0469 54.3339C75.2418 53.4064 68.6514 52.0721 61.3013 50.4773C53.9513 48.8826 47.4559 47.3042 42.7267 46.0838C40.3527 45.4817 38.4534 44.9772 37.143 44.603C36.4533 44.4396 35.7851 44.216 35.1487 43.9358C35.8659 43.9698 36.5748 44.0847 37.2569 44.2775L42.9546 45.5142L61.5862 49.6475L80.2748 53.7481L85.9725 55.0662C86.6258 55.2094 87.2618 55.4056 87.8717 55.652Z" fill="#5F6770"/>
<path d="M87.8717 64.4392C87.1121 64.4191 86.3578 64.3031 85.6264 64.0939C84.2031 63.8095 82.1382 63.3627 79.6122 62.7939C74.5401 61.6361 67.5836 59.9705 59.8452 57.9595C52.1069 55.9486 45.2105 54.0189 40.2186 52.4955C37.7327 51.7439 35.728 51.0939 34.3447 50.6267C33.6041 50.4425 32.8899 50.1626 32.2197 49.7939C32.9749 49.8628 33.7209 50.0126 34.445 50.2408L40.4593 51.7643L60.1459 56.9439L79.8327 62.0627L85.8469 63.708C86.5458 63.8775 87.2246 64.1226 87.8717 64.4392Z" fill="#5F6770"/>
<path d="M84.9426 73.2265C84.1847 73.1933 83.4324 73.0772 82.6989 72.8802C81.2566 72.595 79.2132 72.1469 76.689 71.5562C71.6206 70.3952 64.6691 68.7249 56.9163 66.7288C49.1635 64.7326 42.3121 62.655 37.3239 61.2291C34.8197 60.4755 32.8164 59.8441 31.4341 59.3756C30.691 59.1986 29.9714 58.9319 29.2906 58.5812C30.0471 58.6237 30.7947 58.7675 31.5142 59.0089L37.5242 60.557L57.1767 65.751L76.8693 70.8637L82.8792 72.5135C83.5928 72.6657 84.2857 72.905 84.9426 73.2265Z" fill="#5F6770"/>
<path d="M82.0136 82.0136C81.2528 82.007 80.4968 81.8907 79.7683 81.6682C78.3449 81.3839 76.28 80.937 73.754 80.3683C68.682 79.2104 61.7255 77.5448 53.9871 75.5542C46.2487 73.5636 39.3523 71.4917 34.3605 70.0698C31.8746 69.3183 29.8498 68.6683 28.4665 68.2011C27.7312 68.0201 27.0233 67.74 26.3615 67.3683C27.1165 67.439 27.8622 67.5888 28.5868 67.8151L34.601 69.3589L54.2878 74.5183L73.9746 79.637L79.9888 81.2823C80.6864 81.4562 81.3647 81.7012 82.0136 82.0136Z" fill="#5F6770"/>
<path d="M79.0845 90.8008C78.3637 90.7958 77.6469 90.6863 76.9536 90.4754C75.6027 90.1906 73.6429 89.7431 71.2455 89.1532C66.4318 87.9938 59.8295 86.3259 52.4662 84.3325C45.1028 82.3391 38.5957 80.2643 33.858 78.8405C31.4987 78.0879 29.577 77.4573 28.2642 76.9895C27.6025 76.7893 26.9642 76.5095 26.3615 76.1555C27.08 76.198 27.7901 76.3416 28.4734 76.5827L34.1815 78.1286L52.8467 83.3154L71.55 88.4209L77.258 90.0685C77.8875 90.2491 78.4992 90.4943 79.0845 90.8008Z" fill="#5F6770"/>
<path d="M79.0845 99.588C77.455 99.488 75.8395 99.2126 74.2636 98.7661C71.3108 98.1129 67.2532 97.1646 62.7939 95.9635C58.3346 94.7624 54.3574 93.4559 51.4648 92.5498C49.8732 92.152 48.3299 91.5652 46.8649 90.8008C48.492 90.9671 50.0997 91.2988 51.6657 91.7912C54.5984 92.5287 58.6158 93.6877 63.055 94.9099C67.4943 96.1321 71.5317 97.1646 74.4444 98.0075C76.0405 98.3587 77.5962 98.8886 79.0845 99.588Z" fill="#5F6770"/>
<path d="M66.624 145.634L11.4581 104.244C19.1925 100.321 25.8794 94.5439 30.9359 87.4154L59.1048 47.7639C61.7401 44.1624 65.2126 41.2778 69.2082 39.3711C73.2038 37.4643 77.5966 36.5954 81.9895 36.8429L133.145 75.2797C126.126 77.4837 119.971 81.9118 115.586 87.9126L83.9071 131.18C79.3786 137.345 73.446 142.306 66.624 145.634Z" fill="#EBEB32"/>
<path opacity="0.7" d="M66.624 145.634L11.4581 104.244C19.1925 100.321 25.8794 94.5439 30.9359 87.4154L59.1048 47.7639C61.7401 44.1624 65.2126 41.2778 69.2082 39.3711C73.2038 37.4643 77.5966 36.5954 81.9895 36.8429L133.145 75.2797C126.126 77.4837 119.971 81.9118 115.586 87.9126L83.9071 131.18C79.3786 137.345 73.446 142.306 66.624 145.634Z" fill="#FAFAFA"/>
<path d="M102.194 87.5204C102.051 87.7067 93.1928 81.2593 82.4 73.092C71.6073 64.9246 62.9704 58.1736 63.114 57.9872C63.2576 57.8008 72.1155 64.2482 82.9082 72.4155C93.701 80.5829 102.338 87.334 102.194 87.5204Z" fill="#263238"/>
<path d="M97.5127 96.6437C97.3628 96.848 88.0842 89.7325 76.768 80.7613C65.4518 71.79 56.4244 64.3282 56.5743 64.1239C56.7242 63.9196 66.0069 71.0177 77.3028 80.0026C88.5988 88.9875 97.5656 96.4168 97.5127 96.6437Z" fill="#263238"/>
<path d="M93.3953 103.345C93.2615 103.553 83.9676 96.4303 72.6687 87.458C61.3697 78.4858 52.323 71.0335 52.4568 70.8253C52.5905 70.6171 61.8885 77.7226 73.1995 86.7162C84.5106 95.7097 93.4524 103.101 93.3953 103.345Z" fill="#263238"/>
<path d="M89.277 110.046C89.122 110.249 79.2975 103.007 67.3122 93.8798C55.3269 84.7528 45.7582 77.1834 45.9172 76.9628C46.0763 76.7423 55.8966 84.0023 67.8649 93.1253C79.8332 102.248 89.4367 109.9 89.277 110.046Z" fill="#263238"/>
<path d="M82.7368 116.181C82.6798 116.426 73.3009 109.287 62.0008 100.302C50.7008 91.3168 41.6458 83.8859 41.7998 83.6642C41.9538 83.4425 51.2154 90.5719 62.5357 99.5434C73.856 108.515 82.9514 115.992 82.7368 116.181Z" fill="#263238"/>
<path d="M59.0801 108.118C57.8703 107.567 56.7301 106.888 55.6837 106.096C53.6448 104.769 50.8707 102.892 47.8437 100.767C44.8168 98.6418 42.0929 96.6979 40.1509 95.2516C39.0449 94.5338 38.0274 93.7039 37.1188 92.7785C38.3189 93.3454 39.4572 94.023 40.5152 94.8006C42.5506 96.1425 45.3246 98.0194 48.3551 100.129C51.3855 102.24 54.1024 104.213 56.0444 105.66C57.145 106.38 58.1627 107.204 59.0801 108.118Z" fill="#263238"/>
<path d="M68.8039 128.564C68.722 128.544 69.1205 128.02 69.5107 127.013C70.0412 125.557 70.0852 123.967 69.6362 122.481C69.2676 121.303 68.5792 120.249 67.6469 119.435C66.7147 118.621 65.5749 118.078 64.3536 117.867C63.1324 117.656 61.8771 117.785 60.7265 118.239C59.5759 118.693 58.5749 119.455 57.8339 120.44C57.0929 121.425 56.6409 122.596 56.5278 123.823C56.4147 125.05 56.645 126.284 57.1931 127.391C57.7412 128.497 58.5859 129.432 59.6337 130.093C60.6816 130.753 61.8918 131.113 63.1307 131.133C64.6922 131.149 66.2143 130.655 67.4628 129.726C68.3437 129.056 68.7384 128.548 68.7963 128.596C68.5514 129.169 68.1614 129.669 67.664 130.047C66.4138 131.153 64.8053 131.775 63.1301 131.802C61.8757 131.833 60.6329 131.548 59.5177 130.973C58.4024 130.398 57.4512 129.552 56.7527 128.513C55.8915 127.225 55.4516 125.705 55.4931 124.16C55.5347 122.616 56.0558 121.124 56.985 119.888C57.9141 118.653 59.2058 117.735 60.6827 117.26C62.1596 116.784 63.7495 116.776 65.2341 117.235C66.4336 117.606 67.5194 118.274 68.3896 119.176C69.2599 120.078 69.886 121.185 70.2093 122.392C70.6459 124 70.4979 125.709 69.7913 127.216C69.5701 127.735 69.2323 128.196 68.8039 128.564Z" fill="#263238"/>
<path d="M84.6123 61.9625L68.4608 49.8832L66.7194 52.2117L82.8709 64.291L84.6123 61.9625Z" fill="#263238"/>
</svg>
