<svg width="109" height="31" viewBox="0 0 109 31" fill="none" xmlns="http://www.w3.org/2000/svg">
<path d="M42.504 24L36.36 7.2H39.648L44.4 20.856L49.176 7.2H52.416L46.272 24H42.504ZM55.9973 10.248C55.4373 10.248 54.9733 10.08 54.6053 9.744C54.2533 9.408 54.0773 8.984 54.0773 8.472C54.0773 7.96 54.2533 7.544 54.6053 7.224C54.9733 6.888 55.4373 6.72 55.9973 6.72C56.5573 6.72 57.0133 6.888 57.3653 7.224C57.7333 7.544 57.9173 7.96 57.9173 8.472C57.9173 8.984 57.7333 9.408 57.3653 9.744C57.0133 10.08 56.5573 10.248 55.9973 10.248ZM54.4613 24V12.096H57.5333V24H54.4613ZM66.0437 24C64.7957 24 63.7957 23.696 63.0437 23.088C62.2917 22.48 61.9157 21.4 61.9157 19.848V14.664H59.8757V12.096H61.9157L62.2757 8.904H64.9877V12.096H68.2037V14.664H64.9877V19.872C64.9877 20.448 65.1077 20.848 65.3477 21.072C65.6037 21.28 66.0357 21.384 66.6437 21.384H68.1317V24H66.0437ZM74.9453 24.288C73.9213 24.288 73.0813 24.128 72.4253 23.808C71.7693 23.472 71.2813 23.032 70.9613 22.488C70.6413 21.944 70.4813 21.344 70.4813 20.688C70.4813 19.584 70.9133 18.688 71.7773 18C72.6413 17.312 73.9373 16.968 75.6653 16.968H78.6893V16.68C78.6893 15.864 78.4573 15.264 77.9933 14.88C77.5293 14.496 76.9533 14.304 76.2653 14.304C75.6413 14.304 75.0973 14.456 74.6333 14.76C74.1693 15.048 73.8813 15.48 73.7693 16.056H70.7693C70.8493 15.192 71.1373 14.44 71.6333 13.8C72.1453 13.16 72.8013 12.672 73.6013 12.336C74.4013 11.984 75.2973 11.808 76.2893 11.808C77.9853 11.808 79.3213 12.232 80.2973 13.08C81.2733 13.928 81.7613 15.128 81.7613 16.68V24H79.1453L78.8573 22.08C78.5053 22.72 78.0093 23.248 77.3693 23.664C76.7453 24.08 75.9373 24.288 74.9453 24.288ZM75.6413 21.888C76.5213 21.888 77.2013 21.6 77.6813 21.024C78.1773 20.448 78.4893 19.736 78.6173 18.888H76.0013C75.1853 18.888 74.6013 19.04 74.2493 19.344C73.8973 19.632 73.7213 19.992 73.7213 20.424C73.7213 20.888 73.8973 21.248 74.2493 21.504C74.6013 21.76 75.0653 21.888 75.6413 21.888ZM84.6928 24V6.72H87.7648V24H84.6928ZM92.5598 10.248C91.9998 10.248 91.5358 10.08 91.1678 9.744C90.8158 9.408 90.6398 8.984 90.6398 8.472C90.6398 7.96 90.8158 7.544 91.1678 7.224C91.5358 6.888 91.9998 6.72 92.5598 6.72C93.1198 6.72 93.5758 6.888 93.9278 7.224C94.2958 7.544 94.4798 7.96 94.4798 8.472C94.4798 8.984 94.2958 9.408 93.9278 9.744C93.5758 10.08 93.1198 10.248 92.5598 10.248ZM91.0238 24V12.096H94.0958V24H91.0238ZM102.222 24.288C101.166 24.288 100.238 24.12 99.4382 23.784C98.6382 23.432 97.9982 22.952 97.5182 22.344C97.0382 21.736 96.7502 21.032 96.6542 20.232H99.7502C99.8462 20.696 100.102 21.096 100.518 21.432C100.95 21.752 101.502 21.912 102.174 21.912C102.846 21.912 103.334 21.776 103.638 21.504C103.958 21.232 104.118 20.92 104.118 20.568C104.118 20.056 103.894 19.712 103.446 19.536C102.998 19.344 102.374 19.16 101.574 18.984C101.062 18.872 100.542 18.736 100.014 18.576C99.4862 18.416 98.9982 18.216 98.5502 17.976C98.1182 17.72 97.7662 17.4 97.4942 17.016C97.2222 16.616 97.0862 16.128 97.0862 15.552C97.0862 14.496 97.5022 13.608 98.3342 12.888C99.1822 12.168 100.366 11.808 101.886 11.808C103.294 11.808 104.414 12.136 105.246 12.792C106.094 13.448 106.598 14.352 106.758 15.504H103.854C103.678 14.624 103.014 14.184 101.862 14.184C101.286 14.184 100.838 14.296 100.518 14.52C100.214 14.744 100.062 15.024 100.062 15.36C100.062 15.712 100.294 15.992 100.758 16.2C101.222 16.408 101.838 16.6 102.606 16.776C103.438 16.968 104.198 17.184 104.886 17.424C105.59 17.648 106.15 17.992 106.566 18.456C106.982 18.904 107.19 19.552 107.19 20.4C107.206 21.136 107.014 21.8 106.614 22.392C106.214 22.984 105.638 23.448 104.886 23.784C104.134 24.12 103.246 24.288 102.222 24.288Z" fill="#10272B"/>
<path fill-rule="evenodd" clip-rule="evenodd" d="M14 28C21.732 28 28 21.732 28 14C28 6.26801 21.732 0 14 0C6.26801 0 0 6.26801 0 14C0 21.732 6.26801 28 14 28ZM16.8 25.2C21.4392 25.2 25.2 21.4392 25.2 16.8C25.2 12.1608 21.4392 8.4 16.8 8.4C12.1608 8.4 8.4 12.1608 8.4 16.8C8.4 21.4392 12.1608 25.2 16.8 25.2Z" fill="#58A1A4"/>
</svg>
